<?xml version="1.0" encoding="utf-8"?>
<svg xmlns="http://www.w3.org/2000/svg" xmlns:xlink="http://www.w3.org/1999/xlink" width="600" height="400" viewBox="0 0 2400 1600">
<defs>
  <clipPath id="clip150">
    <rect x="0" y="0" width="2400" height="1600"/>
  </clipPath>
</defs>
<path clip-path="url(#clip150)" d="
M0 1600 L2400 1600 L2400 0 L0 0  Z
  " fill="#282a36" fill-rule="evenodd" fill-opacity="1"/>
<defs>
  <clipPath id="clip151">
    <rect x="480" y="0" width="1681" height="1600"/>
  </clipPath>
</defs>
<defs>
  <clipPath id="clip152">
    <rect x="112" y="47" width="2242" height="1440"/>
  </clipPath>
</defs>
<path clip-path="url(#clip152)" d="
M48.8463 1476.49 L32.6431 1366.91 L120.264 1328.68 L244.592 1348.6 L231.202 1451.37 L173.227 1519.37 L48.8463 1476.49  Z
  " fill="#30343b" fill-rule="evenodd" fill-opacity="1"/>
<polyline clip-path="url(#clip152)" style="stroke:#f8f8f2; stroke-linecap:butt; stroke-linejoin:round; stroke-width:2; stroke-opacity:0.1; fill:none" points="
  707.547,1180.14 1122.83,827.901 
  "/>
<polyline clip-path="url(#clip152)" style="stroke:#f8f8f2; stroke-linecap:butt; stroke-linejoin:round; stroke-width:2; stroke-opacity:0.1; fill:none" points="
  1122.83,827.901 1107.94,204.428 
  "/>
<polyline clip-path="url(#clip152)" style="stroke:#f8f8f2; stroke-linecap:butt; stroke-linejoin:round; stroke-width:2; stroke-opacity:0.1; fill:none" points="
  847.875,1237.01 1247.21,865.998 
  "/>
<polyline clip-path="url(#clip152)" style="stroke:#f8f8f2; stroke-linecap:butt; stroke-linejoin:round; stroke-width:2; stroke-opacity:0.1; fill:none" points="
  1247.21,865.998 1249.27,231.044 
  "/>
<polyline clip-path="url(#clip152)" style="stroke:#f8f8f2; stroke-linecap:butt; stroke-linejoin:round; stroke-width:2; stroke-opacity:0.1; fill:none" points="
  996.572,1297.26 1377.62,905.94 
  "/>
<polyline clip-path="url(#clip152)" style="stroke:#f8f8f2; stroke-linecap:butt; stroke-linejoin:round; stroke-width:2; stroke-opacity:0.1; fill:none" points="
  1377.62,905.94 1398.42,259.134 
  "/>
<polyline clip-path="url(#clip152)" style="stroke:#f8f8f2; stroke-linecap:butt; stroke-linejoin:round; stroke-width:2; stroke-opacity:0.1; fill:none" points="
  1154.41,1361.22 1514.49,947.864 
  "/>
<polyline clip-path="url(#clip152)" style="stroke:#f8f8f2; stroke-linecap:butt; stroke-linejoin:round; stroke-width:2; stroke-opacity:0.1; fill:none" points="
  1514.49,947.864 1556.07,288.824 
  "/>
<polyline clip-path="url(#clip152)" style="stroke:#f8f8f2; stroke-linecap:butt; stroke-linejoin:round; stroke-width:2; stroke-opacity:0.1; fill:none" points="
  1322.26,1429.24 1658.33,991.921 
  "/>
<polyline clip-path="url(#clip152)" style="stroke:#f8f8f2; stroke-linecap:butt; stroke-linejoin:round; stroke-width:2; stroke-opacity:0.1; fill:none" points="
  1658.33,991.921 1722.95,320.253 
  "/>
<polyline clip-path="url(#clip150)" style="stroke:#f8f8f2; stroke-linecap:butt; stroke-linejoin:round; stroke-width:4; stroke-opacity:1; fill:none" points="
  698.865,1176.62 1396.05,1459.14 
  "/>
<polyline clip-path="url(#clip150)" style="stroke:#f8f8f2; stroke-linecap:butt; stroke-linejoin:round; stroke-width:4; stroke-opacity:1; fill:none" points="
  707.547,1180.14 713.604,1175.01 
  "/>
<polyline clip-path="url(#clip150)" style="stroke:#f8f8f2; stroke-linecap:butt; stroke-linejoin:round; stroke-width:4; stroke-opacity:1; fill:none" points="
  847.875,1237.01 853.729,1231.57 
  "/>
<polyline clip-path="url(#clip150)" style="stroke:#f8f8f2; stroke-linecap:butt; stroke-linejoin:round; stroke-width:4; stroke-opacity:1; fill:none" points="
  996.572,1297.26 1002.19,1291.5 
  "/>
<polyline clip-path="url(#clip150)" style="stroke:#f8f8f2; stroke-linecap:butt; stroke-linejoin:round; stroke-width:4; stroke-opacity:1; fill:none" points="
  1154.41,1361.22 1159.75,1355.1 
  "/>
<polyline clip-path="url(#clip150)" style="stroke:#f8f8f2; stroke-linecap:butt; stroke-linejoin:round; stroke-width:4; stroke-opacity:1; fill:none" points="
  1322.26,1429.24 1327.27,1422.72 
  "/>
<path clip-path="url(#clip150)" d="M640.985 1193.17 Q637.374 1193.17 635.545 1196.73 Q633.74 1200.28 633.74 1207.4 Q633.74 1214.51 635.545 1218.08 Q637.374 1221.62 640.985 1221.62 Q644.619 1221.62 646.425 1218.08 Q648.253 1214.51 648.253 1207.4 Q648.253 1200.28 646.425 1196.73 Q644.619 1193.17 640.985 1193.17 M640.985 1189.47 Q646.795 1189.47 649.851 1194.07 Q652.929 1198.65 652.929 1207.4 Q652.929 1216.13 649.851 1220.74 Q646.795 1225.32 640.985 1225.32 Q635.175 1225.32 632.096 1220.74 Q629.041 1216.13 629.041 1207.4 Q629.041 1198.65 632.096 1194.07 Q635.175 1189.47 640.985 1189.47 Z" fill="#f8f8f2" fill-rule="evenodd" fill-opacity="1" /><path clip-path="url(#clip150)" d="M661.147 1218.77 L666.031 1218.77 L666.031 1224.65 L661.147 1224.65 L661.147 1218.77 Z" fill="#f8f8f2" fill-rule="evenodd" fill-opacity="1" /><path clip-path="url(#clip150)" d="M686.216 1193.17 Q682.605 1193.17 680.776 1196.73 Q678.971 1200.28 678.971 1207.4 Q678.971 1214.51 680.776 1218.08 Q682.605 1221.62 686.216 1221.62 Q689.85 1221.62 691.656 1218.08 Q693.485 1214.51 693.485 1207.4 Q693.485 1200.28 691.656 1196.73 Q689.85 1193.17 686.216 1193.17 M686.216 1189.47 Q692.026 1189.47 695.082 1194.07 Q698.161 1198.65 698.161 1207.4 Q698.161 1216.13 695.082 1220.74 Q692.026 1225.32 686.216 1225.32 Q680.406 1225.32 677.327 1220.74 Q674.272 1216.13 674.272 1207.4 Q674.272 1198.65 677.327 1194.07 Q680.406 1189.47 686.216 1189.47 Z" fill="#f8f8f2" fill-rule="evenodd" fill-opacity="1" /><path clip-path="url(#clip150)" d="M776.336 1277.58 L792.656 1277.58 L792.656 1281.51 L770.711 1281.51 L770.711 1277.58 Q773.373 1274.82 777.957 1270.2 Q782.563 1265.54 783.744 1264.2 Q785.989 1261.68 786.869 1259.94 Q787.771 1258.18 787.771 1256.49 Q787.771 1253.74 785.827 1252 Q783.906 1250.26 780.804 1250.26 Q778.605 1250.26 776.151 1251.03 Q773.721 1251.79 770.943 1253.34 L770.943 1248.62 Q773.767 1247.49 776.221 1246.91 Q778.674 1246.33 780.711 1246.33 Q786.082 1246.33 789.276 1249.01 Q792.47 1251.7 792.47 1256.19 Q792.47 1258.32 791.66 1260.24 Q790.873 1262.14 788.767 1264.73 Q788.188 1265.4 785.086 1268.62 Q781.984 1271.82 776.336 1277.58 Z" fill="#f8f8f2" fill-rule="evenodd" fill-opacity="1" /><path clip-path="url(#clip150)" d="M802.47 1275.63 L807.355 1275.63 L807.355 1281.51 L802.47 1281.51 L802.47 1275.63 Z" fill="#f8f8f2" fill-rule="evenodd" fill-opacity="1" /><path clip-path="url(#clip150)" d="M817.586 1246.95 L835.942 1246.95 L835.942 1250.89 L821.868 1250.89 L821.868 1259.36 Q822.887 1259.01 823.905 1258.85 Q824.924 1258.67 825.943 1258.67 Q831.73 1258.67 835.109 1261.84 Q838.489 1265.01 838.489 1270.43 Q838.489 1276.01 835.017 1279.11 Q831.544 1282.19 825.225 1282.19 Q823.049 1282.19 820.781 1281.82 Q818.535 1281.45 816.128 1280.7 L816.128 1276.01 Q818.211 1277.14 820.433 1277.7 Q822.655 1278.25 825.132 1278.25 Q829.137 1278.25 831.475 1276.14 Q833.813 1274.04 833.813 1270.43 Q833.813 1266.82 831.475 1264.71 Q829.137 1262.6 825.132 1262.6 Q823.257 1262.6 821.382 1263.02 Q819.531 1263.44 817.586 1264.32 L817.586 1246.95 Z" fill="#f8f8f2" fill-rule="evenodd" fill-opacity="1" /><path clip-path="url(#clip150)" d="M920.057 1307.21 L938.413 1307.21 L938.413 1311.15 L924.339 1311.15 L924.339 1319.62 Q925.358 1319.27 926.376 1319.11 Q927.395 1318.92 928.413 1318.92 Q934.2 1318.92 937.58 1322.09 Q940.959 1325.27 940.959 1330.68 Q940.959 1336.26 937.487 1339.36 Q934.015 1342.44 927.695 1342.44 Q925.52 1342.44 923.251 1342.07 Q921.006 1341.7 918.598 1340.96 L918.598 1336.26 Q920.682 1337.4 922.904 1337.95 Q925.126 1338.51 927.603 1338.51 Q931.607 1338.51 933.945 1336.4 Q936.283 1334.29 936.283 1330.68 Q936.283 1327.07 933.945 1324.96 Q931.607 1322.86 927.603 1322.86 Q925.728 1322.86 923.853 1323.28 Q922.001 1323.69 920.057 1324.57 L920.057 1307.21 Z" fill="#f8f8f2" fill-rule="evenodd" fill-opacity="1" /><path clip-path="url(#clip150)" d="M950.172 1335.89 L955.056 1335.89 L955.056 1341.77 L950.172 1341.77 L950.172 1335.89 Z" fill="#f8f8f2" fill-rule="evenodd" fill-opacity="1" /><path clip-path="url(#clip150)" d="M975.242 1310.29 Q971.63 1310.29 969.802 1313.85 Q967.996 1317.4 967.996 1324.53 Q967.996 1331.63 969.802 1335.2 Q971.63 1338.74 975.242 1338.74 Q978.876 1338.74 980.681 1335.2 Q982.51 1331.63 982.51 1324.53 Q982.51 1317.4 980.681 1313.85 Q978.876 1310.29 975.242 1310.29 M975.242 1306.59 Q981.052 1306.59 984.107 1311.19 Q987.186 1315.78 987.186 1324.53 Q987.186 1333.25 984.107 1337.86 Q981.052 1342.44 975.242 1342.44 Q969.431 1342.44 966.353 1337.86 Q963.297 1333.25 963.297 1324.53 Q963.297 1315.78 966.353 1311.19 Q969.431 1306.59 975.242 1306.59 Z" fill="#f8f8f2" fill-rule="evenodd" fill-opacity="1" /><path clip-path="url(#clip150)" d="M1077.66 1371.17 L1099.89 1371.17 L1099.89 1373.16 L1087.34 1405.73 L1082.45 1405.73 L1094.26 1375.11 L1077.66 1375.11 L1077.66 1371.17 Z" fill="#f8f8f2" fill-rule="evenodd" fill-opacity="1" /><path clip-path="url(#clip150)" d="M1109.01 1399.85 L1113.89 1399.85 L1113.89 1405.73 L1109.01 1405.73 L1109.01 1399.85 Z" fill="#f8f8f2" fill-rule="evenodd" fill-opacity="1" /><path clip-path="url(#clip150)" d="M1124.12 1371.17 L1142.48 1371.17 L1142.48 1375.11 L1128.4 1375.11 L1128.4 1383.58 Q1129.42 1383.23 1130.44 1383.07 Q1131.46 1382.88 1132.48 1382.88 Q1138.26 1382.88 1141.64 1386.05 Q1145.02 1389.23 1145.02 1394.64 Q1145.02 1400.22 1141.55 1403.32 Q1138.08 1406.4 1131.76 1406.4 Q1129.58 1406.4 1127.32 1406.03 Q1125.07 1405.66 1122.66 1404.92 L1122.66 1400.22 Q1124.75 1401.36 1126.97 1401.91 Q1129.19 1402.47 1131.67 1402.47 Q1135.67 1402.47 1138.01 1400.36 Q1140.35 1398.25 1140.35 1394.64 Q1140.35 1391.03 1138.01 1388.92 Q1135.67 1386.82 1131.67 1386.82 Q1129.79 1386.82 1127.92 1387.23 Q1126.07 1387.65 1124.12 1388.53 L1124.12 1371.17 Z" fill="#f8f8f2" fill-rule="evenodd" fill-opacity="1" /><path clip-path="url(#clip150)" d="M1216.34 1469.81 L1223.98 1469.81 L1223.98 1443.45 L1215.67 1445.11 L1215.67 1440.85 L1223.94 1439.19 L1228.61 1439.19 L1228.61 1469.81 L1236.25 1469.81 L1236.25 1473.75 L1216.34 1473.75 L1216.34 1469.81 Z" fill="#f8f8f2" fill-rule="evenodd" fill-opacity="1" /><path clip-path="url(#clip150)" d="M1255.7 1442.26 Q1252.09 1442.26 1250.26 1445.83 Q1248.45 1449.37 1248.45 1456.5 Q1248.45 1463.61 1250.26 1467.17 Q1252.09 1470.71 1255.7 1470.71 Q1259.33 1470.71 1261.14 1467.17 Q1262.96 1463.61 1262.96 1456.5 Q1262.96 1449.37 1261.14 1445.83 Q1259.33 1442.26 1255.7 1442.26 M1255.7 1438.56 Q1261.51 1438.56 1264.56 1443.17 Q1267.64 1447.75 1267.64 1456.5 Q1267.64 1465.23 1264.56 1469.83 Q1261.51 1474.42 1255.7 1474.42 Q1249.89 1474.42 1246.81 1469.83 Q1243.75 1465.23 1243.75 1456.5 Q1243.75 1447.75 1246.81 1443.17 Q1249.89 1438.56 1255.7 1438.56 Z" fill="#f8f8f2" fill-rule="evenodd" fill-opacity="1" /><path clip-path="url(#clip150)" d="M1275.86 1467.87 L1280.74 1467.87 L1280.74 1473.75 L1275.86 1473.75 L1275.86 1467.87 Z" fill="#f8f8f2" fill-rule="evenodd" fill-opacity="1" /><path clip-path="url(#clip150)" d="M1300.93 1442.26 Q1297.32 1442.26 1295.49 1445.83 Q1293.68 1449.37 1293.68 1456.5 Q1293.68 1463.61 1295.49 1467.17 Q1297.32 1470.71 1300.93 1470.71 Q1304.56 1470.71 1306.37 1467.17 Q1308.2 1463.61 1308.2 1456.5 Q1308.2 1449.37 1306.37 1445.83 Q1304.56 1442.26 1300.93 1442.26 M1300.93 1438.56 Q1306.74 1438.56 1309.79 1443.17 Q1312.87 1447.75 1312.87 1456.5 Q1312.87 1465.23 1309.79 1469.83 Q1306.74 1474.42 1300.93 1474.42 Q1295.12 1474.42 1292.04 1469.83 Q1288.98 1465.23 1288.98 1456.5 Q1288.98 1447.75 1292.04 1443.17 Q1295.12 1438.56 1300.93 1438.56 Z" fill="#f8f8f2" fill-rule="evenodd" fill-opacity="1" /><polyline clip-path="url(#clip152)" style="stroke:#f8f8f2; stroke-linecap:butt; stroke-linejoin:round; stroke-width:2; stroke-opacity:0.1; fill:none" points="
  1416.16,1431.42 724.01,1155.42 
  "/>
<polyline clip-path="url(#clip152)" style="stroke:#f8f8f2; stroke-linecap:butt; stroke-linejoin:round; stroke-width:2; stroke-opacity:0.1; fill:none" points="
  724.01,1155.42 638.56,438.984 
  "/>
<polyline clip-path="url(#clip152)" style="stroke:#f8f8f2; stroke-linecap:butt; stroke-linejoin:round; stroke-width:2; stroke-opacity:0.1; fill:none" points="
  1474.11,1351.52 796.923,1093.91 
  "/>
<polyline clip-path="url(#clip152)" style="stroke:#f8f8f2; stroke-linecap:butt; stroke-linejoin:round; stroke-width:2; stroke-opacity:0.1; fill:none" points="
  796.923,1093.91 726.424,393.927 
  "/>
<polyline clip-path="url(#clip152)" style="stroke:#f8f8f2; stroke-linecap:butt; stroke-linejoin:round; stroke-width:2; stroke-opacity:0.1; fill:none" points="
  1528.03,1277.19 865.353,1036.19 
  "/>
<polyline clip-path="url(#clip152)" style="stroke:#f8f8f2; stroke-linecap:butt; stroke-linejoin:round; stroke-width:2; stroke-opacity:0.1; fill:none" points="
  865.353,1036.19 808.043,352.073 
  "/>
<polyline clip-path="url(#clip152)" style="stroke:#f8f8f2; stroke-linecap:butt; stroke-linejoin:round; stroke-width:2; stroke-opacity:0.1; fill:none" points="
  1578.32,1207.86 929.702,981.912 
  "/>
<polyline clip-path="url(#clip152)" style="stroke:#f8f8f2; stroke-linecap:butt; stroke-linejoin:round; stroke-width:2; stroke-opacity:0.1; fill:none" points="
  929.702,981.912 884.059,313.092 
  "/>
<polyline clip-path="url(#clip152)" style="stroke:#f8f8f2; stroke-linecap:butt; stroke-linejoin:round; stroke-width:2; stroke-opacity:0.1; fill:none" points="
  1625.33,1143.04 990.323,930.778 
  "/>
<polyline clip-path="url(#clip152)" style="stroke:#f8f8f2; stroke-linecap:butt; stroke-linejoin:round; stroke-width:2; stroke-opacity:0.1; fill:none" points="
  990.323,930.778 955.03,276.698 
  "/>
<polyline clip-path="url(#clip152)" style="stroke:#f8f8f2; stroke-linecap:butt; stroke-linejoin:round; stroke-width:2; stroke-opacity:0.1; fill:none" points="
  1669.38,1082.31 1047.53,882.522 
  "/>
<polyline clip-path="url(#clip152)" style="stroke:#f8f8f2; stroke-linecap:butt; stroke-linejoin:round; stroke-width:2; stroke-opacity:0.1; fill:none" points="
  1047.53,882.522 1021.44,242.642 
  "/>
<polyline clip-path="url(#clip152)" style="stroke:#f8f8f2; stroke-linecap:butt; stroke-linejoin:round; stroke-width:2; stroke-opacity:0.1; fill:none" points="
  1710.74,1025.29 1101.61,836.908 
  "/>
<polyline clip-path="url(#clip152)" style="stroke:#f8f8f2; stroke-linecap:butt; stroke-linejoin:round; stroke-width:2; stroke-opacity:0.1; fill:none" points="
  1101.61,836.908 1083.72,210.706 
  "/>
<polyline clip-path="url(#clip150)" style="stroke:#f8f8f2; stroke-linecap:butt; stroke-linejoin:round; stroke-width:4; stroke-opacity:1; fill:none" points="
  1396.05,1459.14 1721.02,1011.12 
  "/>
<polyline clip-path="url(#clip150)" style="stroke:#f8f8f2; stroke-linecap:butt; stroke-linejoin:round; stroke-width:4; stroke-opacity:1; fill:none" points="
  1416.16,1431.42 1406.69,1427.64 
  "/>
<polyline clip-path="url(#clip150)" style="stroke:#f8f8f2; stroke-linecap:butt; stroke-linejoin:round; stroke-width:4; stroke-opacity:1; fill:none" points="
  1474.11,1351.52 1464.88,1348.01 
  "/>
<polyline clip-path="url(#clip150)" style="stroke:#f8f8f2; stroke-linecap:butt; stroke-linejoin:round; stroke-width:4; stroke-opacity:1; fill:none" points="
  1528.03,1277.19 1519.04,1273.92 
  "/>
<polyline clip-path="url(#clip150)" style="stroke:#f8f8f2; stroke-linecap:butt; stroke-linejoin:round; stroke-width:4; stroke-opacity:1; fill:none" points="
  1578.32,1207.86 1569.55,1204.8 
  "/>
<polyline clip-path="url(#clip150)" style="stroke:#f8f8f2; stroke-linecap:butt; stroke-linejoin:round; stroke-width:4; stroke-opacity:1; fill:none" points="
  1625.33,1143.04 1616.78,1140.18 
  "/>
<polyline clip-path="url(#clip150)" style="stroke:#f8f8f2; stroke-linecap:butt; stroke-linejoin:round; stroke-width:4; stroke-opacity:1; fill:none" points="
  1669.38,1082.31 1661.04,1079.63 
  "/>
<polyline clip-path="url(#clip150)" style="stroke:#f8f8f2; stroke-linecap:butt; stroke-linejoin:round; stroke-width:4; stroke-opacity:1; fill:none" points="
  1710.74,1025.29 1702.6,1022.77 
  "/>
<path clip-path="url(#clip150)" d="M1450.02 1435.9 Q1446.41 1435.9 1444.58 1439.47 Q1442.77 1443.01 1442.77 1450.14 Q1442.77 1457.25 1444.58 1460.81 Q1446.41 1464.35 1450.02 1464.35 Q1453.65 1464.35 1455.46 1460.81 Q1457.29 1457.25 1457.29 1450.14 Q1457.29 1443.01 1455.46 1439.47 Q1453.65 1435.9 1450.02 1435.9 M1450.02 1432.2 Q1455.83 1432.2 1458.88 1436.81 Q1461.96 1441.39 1461.96 1450.14 Q1461.96 1458.87 1458.88 1463.47 Q1455.83 1468.06 1450.02 1468.06 Q1444.21 1468.06 1441.13 1463.47 Q1438.07 1458.87 1438.07 1450.14 Q1438.07 1441.39 1441.13 1436.81 Q1444.21 1432.2 1450.02 1432.2 Z" fill="#f8f8f2" fill-rule="evenodd" fill-opacity="1" /><path clip-path="url(#clip150)" d="M1501.65 1383.55 L1517.97 1383.55 L1517.97 1387.49 L1496.03 1387.49 L1496.03 1383.55 Q1498.69 1380.8 1503.27 1376.17 Q1507.88 1371.52 1509.06 1370.17 Q1511.3 1367.65 1512.18 1365.92 Q1513.09 1364.16 1513.09 1362.47 Q1513.09 1359.71 1511.14 1357.98 Q1509.22 1356.24 1506.12 1356.24 Q1503.92 1356.24 1501.46 1357 Q1499.03 1357.77 1496.26 1359.32 L1496.26 1354.6 Q1499.08 1353.46 1501.53 1352.88 Q1503.99 1352.3 1506.03 1352.3 Q1511.4 1352.3 1514.59 1354.99 Q1517.78 1357.67 1517.78 1362.17 Q1517.78 1364.3 1516.97 1366.22 Q1516.19 1368.11 1514.08 1370.71 Q1513.5 1371.38 1510.4 1374.6 Q1507.3 1377.79 1501.65 1383.55 Z" fill="#f8f8f2" fill-rule="evenodd" fill-opacity="1" /><path clip-path="url(#clip150)" d="M1565.54 1282.67 L1553.74 1301.12 L1565.54 1301.12 L1565.54 1282.67 M1564.32 1278.6 L1570.2 1278.6 L1570.2 1301.12 L1575.13 1301.12 L1575.13 1305.01 L1570.2 1305.01 L1570.2 1313.16 L1565.54 1313.16 L1565.54 1305.01 L1549.94 1305.01 L1549.94 1300.49 L1564.32 1278.6 Z" fill="#f8f8f2" fill-rule="evenodd" fill-opacity="1" /><path clip-path="url(#clip150)" d="M1612.57 1224.68 Q1609.42 1224.68 1607.57 1226.83 Q1605.74 1228.99 1605.74 1232.74 Q1605.74 1236.46 1607.57 1238.64 Q1609.42 1240.79 1612.57 1240.79 Q1615.72 1240.79 1617.55 1238.64 Q1619.4 1236.46 1619.4 1232.74 Q1619.4 1228.99 1617.55 1226.83 Q1615.72 1224.68 1612.57 1224.68 M1621.85 1210.03 L1621.85 1214.29 Q1620.09 1213.45 1618.29 1213.01 Q1616.5 1212.57 1614.75 1212.57 Q1610.12 1212.57 1607.66 1215.7 Q1605.23 1218.82 1604.88 1225.14 Q1606.25 1223.13 1608.31 1222.06 Q1610.37 1220.98 1612.85 1220.98 Q1618.06 1220.98 1621.07 1224.15 Q1624.1 1227.3 1624.1 1232.74 Q1624.1 1238.06 1620.95 1241.28 Q1617.8 1244.49 1612.57 1244.49 Q1606.57 1244.49 1603.4 1239.91 Q1600.23 1235.31 1600.23 1226.58 Q1600.23 1218.38 1604.12 1213.52 Q1608.01 1208.64 1614.56 1208.64 Q1616.32 1208.64 1618.1 1208.99 Q1619.91 1209.33 1621.85 1210.03 Z" fill="#f8f8f2" fill-rule="evenodd" fill-opacity="1" /><path clip-path="url(#clip150)" d="M1659.1 1162.59 Q1655.77 1162.59 1653.84 1164.37 Q1651.95 1166.16 1651.95 1169.28 Q1651.95 1172.41 1653.84 1174.19 Q1655.77 1175.97 1659.1 1175.97 Q1662.43 1175.97 1664.35 1174.19 Q1666.28 1172.38 1666.28 1169.28 Q1666.28 1166.16 1664.35 1164.37 Q1662.46 1162.59 1659.1 1162.59 M1654.42 1160.6 Q1651.41 1159.86 1649.72 1157.8 Q1648.06 1155.74 1648.06 1152.78 Q1648.06 1148.63 1651 1146.23 Q1653.96 1143.82 1659.1 1143.82 Q1664.26 1143.82 1667.2 1146.23 Q1670.14 1148.63 1670.14 1152.78 Q1670.14 1155.74 1668.45 1157.8 Q1666.78 1159.86 1663.8 1160.6 Q1667.18 1161.39 1669.05 1163.68 Q1670.95 1165.97 1670.95 1169.28 Q1670.95 1174.31 1667.87 1176.99 Q1664.82 1179.68 1659.1 1179.68 Q1653.38 1179.68 1650.3 1176.99 Q1647.25 1174.31 1647.25 1169.28 Q1647.25 1165.97 1649.15 1163.68 Q1651.04 1161.39 1654.42 1160.6 M1652.71 1153.22 Q1652.71 1155.9 1654.38 1157.41 Q1656.07 1158.91 1659.1 1158.91 Q1662.11 1158.91 1663.8 1157.41 Q1665.51 1155.9 1665.51 1153.22 Q1665.51 1150.53 1663.8 1149.03 Q1662.11 1147.52 1659.1 1147.52 Q1656.07 1147.52 1654.38 1149.03 Q1652.71 1150.53 1652.71 1153.22 Z" fill="#f8f8f2" fill-rule="evenodd" fill-opacity="1" /><path clip-path="url(#clip150)" d="M1691.97 1114.34 L1699.61 1114.34 L1699.61 1087.97 L1691.3 1089.64 L1691.3 1085.38 L1699.56 1083.71 L1704.24 1083.71 L1704.24 1114.34 L1711.88 1114.34 L1711.88 1118.27 L1691.97 1118.27 L1691.97 1114.34 Z" fill="#f8f8f2" fill-rule="evenodd" fill-opacity="1" /><path clip-path="url(#clip150)" d="M1731.32 1086.79 Q1727.71 1086.79 1725.88 1090.36 Q1724.08 1093.9 1724.08 1101.03 Q1724.08 1108.13 1725.88 1111.7 Q1727.71 1115.24 1731.32 1115.24 Q1734.96 1115.24 1736.76 1111.7 Q1738.59 1108.13 1738.59 1101.03 Q1738.59 1093.9 1736.76 1090.36 Q1734.96 1086.79 1731.32 1086.79 M1731.32 1083.09 Q1737.13 1083.09 1740.19 1087.69 Q1743.27 1092.28 1743.27 1101.03 Q1743.27 1109.75 1740.19 1114.36 Q1737.13 1118.94 1731.32 1118.94 Q1725.51 1118.94 1722.43 1114.36 Q1719.38 1109.75 1719.38 1101.03 Q1719.38 1092.28 1722.43 1087.69 Q1725.51 1083.09 1731.32 1083.09 Z" fill="#f8f8f2" fill-rule="evenodd" fill-opacity="1" /><path clip-path="url(#clip150)" d="M1733.33 1057.32 L1740.97 1057.32 L1740.97 1030.95 L1732.66 1032.62 L1732.66 1028.36 L1740.92 1026.69 L1745.6 1026.69 L1745.6 1057.32 L1753.24 1057.32 L1753.24 1061.25 L1733.33 1061.25 L1733.33 1057.32 Z" fill="#f8f8f2" fill-rule="evenodd" fill-opacity="1" /><path clip-path="url(#clip150)" d="M1766.71 1057.32 L1783.03 1057.32 L1783.03 1061.25 L1761.08 1061.25 L1761.08 1057.32 Q1763.75 1054.56 1768.33 1049.93 Q1772.94 1045.28 1774.12 1043.94 Q1776.36 1041.41 1777.24 1039.68 Q1778.15 1037.92 1778.15 1036.23 Q1778.15 1033.47 1776.2 1031.74 Q1774.28 1030 1771.18 1030 Q1768.98 1030 1766.52 1030.76 Q1764.09 1031.53 1761.32 1033.08 L1761.32 1028.36 Q1764.14 1027.22 1766.59 1026.64 Q1769.05 1026.07 1771.08 1026.07 Q1776.46 1026.07 1779.65 1028.75 Q1782.84 1031.44 1782.84 1035.93 Q1782.84 1038.06 1782.03 1039.98 Q1781.25 1041.88 1779.14 1044.47 Q1778.56 1045.14 1775.46 1048.36 Q1772.36 1051.55 1766.71 1057.32 Z" fill="#f8f8f2" fill-rule="evenodd" fill-opacity="1" /><polyline clip-path="url(#clip152)" style="stroke:#f8f8f2; stroke-linecap:butt; stroke-linejoin:round; stroke-width:2; stroke-opacity:0.1; fill:none" points="
  688.811,1096.7 1113.29,754.733 
  "/>
<polyline clip-path="url(#clip152)" style="stroke:#f8f8f2; stroke-linecap:butt; stroke-linejoin:round; stroke-width:2; stroke-opacity:0.1; fill:none" points="
  1113.29,754.733 1729.43,935.213 
  "/>
<polyline clip-path="url(#clip152)" style="stroke:#f8f8f2; stroke-linecap:butt; stroke-linejoin:round; stroke-width:2; stroke-opacity:0.1; fill:none" points="
  675.407,990.148 1110.89,661.077 
  "/>
<polyline clip-path="url(#clip152)" style="stroke:#f8f8f2; stroke-linecap:butt; stroke-linejoin:round; stroke-width:2; stroke-opacity:0.1; fill:none" points="
  1110.89,661.077 1740.61,834.382 
  "/>
<polyline clip-path="url(#clip152)" style="stroke:#f8f8f2; stroke-linecap:butt; stroke-linejoin:round; stroke-width:2; stroke-opacity:0.1; fill:none" points="
  661.325,878.204 1108.4,563.583 
  "/>
<polyline clip-path="url(#clip152)" style="stroke:#f8f8f2; stroke-linecap:butt; stroke-linejoin:round; stroke-width:2; stroke-opacity:0.1; fill:none" points="
  1108.4,563.583 1752.3,728.912 
  "/>
<polyline clip-path="url(#clip152)" style="stroke:#f8f8f2; stroke-linecap:butt; stroke-linejoin:round; stroke-width:2; stroke-opacity:0.1; fill:none" points="
  646.513,760.455 1105.81,462.009 
  "/>
<polyline clip-path="url(#clip152)" style="stroke:#f8f8f2; stroke-linecap:butt; stroke-linejoin:round; stroke-width:2; stroke-opacity:0.1; fill:none" points="
  1105.81,462.009 1764.54,618.473 
  "/>
<polyline clip-path="url(#clip152)" style="stroke:#f8f8f2; stroke-linecap:butt; stroke-linejoin:round; stroke-width:2; stroke-opacity:0.1; fill:none" points="
  630.912,636.435 1103.1,356.094 
  "/>
<polyline clip-path="url(#clip152)" style="stroke:#f8f8f2; stroke-linecap:butt; stroke-linejoin:round; stroke-width:2; stroke-opacity:0.1; fill:none" points="
  1103.1,356.094 1777.38,502.707 
  "/>
<polyline clip-path="url(#clip152)" style="stroke:#f8f8f2; stroke-linecap:butt; stroke-linejoin:round; stroke-width:2; stroke-opacity:0.1; fill:none" points="
  614.457,505.63 1100.27,245.553 
  "/>
<polyline clip-path="url(#clip152)" style="stroke:#f8f8f2; stroke-linecap:butt; stroke-linejoin:round; stroke-width:2; stroke-opacity:0.1; fill:none" points="
  1100.27,245.553 1790.84,381.22 
  "/>
<polyline clip-path="url(#clip150)" style="stroke:#f8f8f2; stroke-linecap:butt; stroke-linejoin:round; stroke-width:4; stroke-opacity:1; fill:none" points="
  698.865,1176.62 608.042,454.634 
  "/>
<polyline clip-path="url(#clip150)" style="stroke:#f8f8f2; stroke-linecap:butt; stroke-linejoin:round; stroke-width:4; stroke-opacity:1; fill:none" points="
  688.811,1096.7 695.021,1091.7 
  "/>
<polyline clip-path="url(#clip150)" style="stroke:#f8f8f2; stroke-linecap:butt; stroke-linejoin:round; stroke-width:4; stroke-opacity:1; fill:none" points="
  675.407,990.148 681.806,985.312 
  "/>
<polyline clip-path="url(#clip150)" style="stroke:#f8f8f2; stroke-linecap:butt; stroke-linejoin:round; stroke-width:4; stroke-opacity:1; fill:none" points="
  661.325,878.204 667.924,873.56 
  "/>
<polyline clip-path="url(#clip150)" style="stroke:#f8f8f2; stroke-linecap:butt; stroke-linejoin:round; stroke-width:4; stroke-opacity:1; fill:none" points="
  646.513,760.455 653.325,756.028 
  "/>
<polyline clip-path="url(#clip150)" style="stroke:#f8f8f2; stroke-linecap:butt; stroke-linejoin:round; stroke-width:4; stroke-opacity:1; fill:none" points="
  630.912,636.435 637.951,632.256 
  "/>
<polyline clip-path="url(#clip150)" style="stroke:#f8f8f2; stroke-linecap:butt; stroke-linejoin:round; stroke-width:4; stroke-opacity:1; fill:none" points="
  614.457,505.63 621.738,501.733 
  "/>
<path clip-path="url(#clip150)" d="M648.067 1082.5 Q644.456 1082.5 642.627 1086.07 Q640.822 1089.61 640.822 1096.74 Q640.822 1103.84 642.627 1107.41 Q644.456 1110.95 648.067 1110.95 Q651.701 1110.95 653.507 1107.41 Q655.336 1103.84 655.336 1096.74 Q655.336 1089.61 653.507 1086.07 Q651.701 1082.5 648.067 1082.5 M648.067 1078.8 Q653.877 1078.8 656.933 1083.4 Q660.011 1087.99 660.011 1096.74 Q660.011 1105.46 656.933 1110.07 Q653.877 1114.65 648.067 1114.65 Q642.257 1114.65 639.178 1110.07 Q636.123 1105.46 636.123 1096.74 Q636.123 1087.99 639.178 1083.4 Q642.257 1078.8 648.067 1078.8 Z" fill="#f8f8f2" fill-rule="evenodd" fill-opacity="1" /><path clip-path="url(#clip150)" d="M626.7 1003.49 L634.339 1003.49 L634.339 977.127 L626.029 978.793 L626.029 974.534 L634.292 972.868 L638.968 972.868 L638.968 1003.49 L646.607 1003.49 L646.607 1007.43 L626.7 1007.43 L626.7 1003.49 Z" fill="#f8f8f2" fill-rule="evenodd" fill-opacity="1" /><path clip-path="url(#clip150)" d="M616.206 891.549 L632.525 891.549 L632.525 895.484 L610.581 895.484 L610.581 891.549 Q613.243 888.795 617.826 884.165 Q622.433 879.512 623.613 878.17 Q625.859 875.647 626.738 873.91 Q627.641 872.151 627.641 870.461 Q627.641 867.707 625.697 865.971 Q623.775 864.235 620.673 864.235 Q618.474 864.235 616.021 864.998 Q613.59 865.762 610.812 867.313 L610.812 862.591 Q613.636 861.457 616.09 860.878 Q618.544 860.299 620.581 860.299 Q625.951 860.299 629.146 862.985 Q632.34 865.67 632.34 870.16 Q632.34 872.29 631.53 874.211 Q630.743 876.109 628.636 878.702 Q628.058 879.373 624.956 882.591 Q621.854 885.785 616.206 891.549 Z" fill="#f8f8f2" fill-rule="evenodd" fill-opacity="1" /><path clip-path="url(#clip150)" d="M610.583 759.101 Q613.94 759.818 615.815 762.087 Q617.713 764.355 617.713 767.689 Q617.713 772.804 614.194 775.605 Q610.676 778.406 604.194 778.406 Q602.018 778.406 599.704 777.966 Q597.412 777.55 594.958 776.693 L594.958 772.179 Q596.903 773.313 599.217 773.892 Q601.532 774.471 604.055 774.471 Q608.454 774.471 610.745 772.735 Q613.06 770.999 613.06 767.689 Q613.06 764.633 610.907 762.92 Q608.778 761.184 604.958 761.184 L600.93 761.184 L600.93 757.341 L605.143 757.341 Q608.592 757.341 610.421 755.976 Q612.25 754.587 612.25 751.994 Q612.25 749.332 610.352 747.92 Q608.477 746.485 604.958 746.485 Q603.037 746.485 600.838 746.902 Q598.639 747.318 596 748.198 L596 744.031 Q598.662 743.29 600.977 742.92 Q603.315 742.55 605.375 742.55 Q610.699 742.55 613.801 744.98 Q616.903 747.388 616.903 751.508 Q616.903 754.378 615.259 756.369 Q613.616 758.337 610.583 759.101 Z" fill="#f8f8f2" fill-rule="evenodd" fill-opacity="1" /><path clip-path="url(#clip150)" d="M592.528 623.229 L580.723 641.678 L592.528 641.678 L592.528 623.229 M591.301 619.155 L597.181 619.155 L597.181 641.678 L602.112 641.678 L602.112 645.567 L597.181 645.567 L597.181 653.715 L592.528 653.715 L592.528 645.567 L576.927 645.567 L576.927 641.053 L591.301 619.155 Z" fill="#f8f8f2" fill-rule="evenodd" fill-opacity="1" /><path clip-path="url(#clip150)" d="M564.754 488.35 L583.111 488.35 L583.111 492.285 L569.037 492.285 L569.037 500.758 Q570.055 500.41 571.074 500.248 Q572.092 500.063 573.111 500.063 Q578.898 500.063 582.277 503.234 Q585.657 506.406 585.657 511.822 Q585.657 517.401 582.185 520.503 Q578.712 523.582 572.393 523.582 Q570.217 523.582 567.949 523.211 Q565.703 522.841 563.296 522.1 L563.296 517.401 Q565.379 518.535 567.601 519.091 Q569.824 519.646 572.3 519.646 Q576.305 519.646 578.643 517.54 Q580.981 515.433 580.981 511.822 Q580.981 508.211 578.643 506.105 Q576.305 503.998 572.3 503.998 Q570.425 503.998 568.55 504.415 Q566.699 504.832 564.754 505.711 L564.754 488.35 Z" fill="#f8f8f2" fill-rule="evenodd" fill-opacity="1" /><polyline clip-path="url(#clip152)" style="stroke:#8be9fd; stroke-linecap:butt; stroke-linejoin:round; stroke-width:4; stroke-opacity:1; fill:none" points="
  924.18,442.269 924.606,441.568 925.04,440.968 925.482,440.471 925.931,440.077 926.387,439.786 926.851,439.598 927.323,439.515 927.802,439.537 928.288,439.663 
  928.782,439.895 929.284,440.233 929.793,440.677 930.31,441.228 930.834,441.885 931.366,442.65 931.905,443.522 932.452,444.502 933.006,445.59 933.567,446.787 
  934.136,448.093 934.713,449.507 935.297,451.031 935.888,452.664 936.487,454.408 937.093,456.261 937.706,458.224 938.327,460.297 938.955,462.481 939.591,464.776 
  940.233,467.182 940.883,469.698 941.54,472.325 942.205,475.064 942.876,477.914 943.555,480.875 944.241,483.947 944.934,487.131 945.633,490.426 946.34,493.833 
  947.054,497.351 947.775,500.98 948.503,504.721 949.237,508.573 949.979,512.536 950.727,516.611 951.482,520.796 952.244,525.092 953.012,529.5 953.788,534.018 
  954.569,538.646 955.357,543.385 956.152,548.234 956.953,553.193 957.761,558.262 958.575,563.44 959.395,568.728 960.222,574.125 961.055,579.63 961.894,585.244 
  962.739,590.966 963.59,596.796 964.447,602.733 965.311,608.778 966.18,614.929 967.054,621.187 967.935,627.55 968.822,634.02 969.714,640.594 970.611,647.273 
  971.515,654.057 972.423,660.944 973.337,667.935 974.257,675.029 975.182,682.225 976.112,689.522 977.047,696.922 977.987,704.421 978.933,712.022 979.883,719.721 
  980.838,727.52 981.798,735.417 982.763,743.412 983.733,751.505 984.707,759.693 985.685,767.978 986.669,776.358 1000.93,774.603 1005.24,780.538 1009.54,786.548 
  1013.82,792.634 1018.09,798.794 1022.34,805.028 1026.58,811.335 1030.8,817.713 1035.01,824.162 1039.2,830.681 1043.38,837.27 1047.54,843.927 1051.68,850.651 
  1055.81,857.441 1059.93,864.298 1064.02,871.219 1068.1,878.204 1072.17,885.251 1076.21,892.361 1080.24,899.533 1084.25,906.764 1088.25,914.055 1092.23,921.405 
  1096.19,928.812 1100.13,936.277 1104.05,943.797 1107.96,951.372 1111.85,959.002 1115.72,966.685 1119.57,974.42 1123.41,982.207 1127.23,990.045 1131.02,997.932 
  1134.8,1005.87 1138.57,1013.85 1142.31,1021.89 1146.03,1029.96 1149.74,1038.09 1153.42,1046.26 1157.09,1054.47 1160.74,1062.73 1164.37,1071.03 1167.98,1079.37 
  1171.57,1087.75 1175.14,1096.17 1178.69,1104.63 1182.23,1113.13 1185.74,1121.66 1189.23,1130.23 1192.71,1138.84 1196.16,1147.48 1199.6,1156.16 1203.01,1164.87 
  1206.41,1173.61 1209.79,1182.39 1213.14,1191.19 1216.43,1186.75 1219.7,1176.74 1222.98,1166.79 1226.27,1156.9 1229.57,1147.06 1232.88,1137.28 1236.2,1127.55 
  1239.53,1117.89 1242.86,1108.29 1246.21,1098.75 1249.56,1089.27 1252.92,1079.85 1256.29,1070.5 1259.67,1061.21 1263.05,1051.98 1266.44,1042.82 1269.84,1033.73 
  1273.25,1024.71 1276.66,1015.76 1280.08,1006.87 1283.51,998.058 1286.95,989.314 1290.38,980.643 1293.83,972.044 1297.28,963.519 1300.74,955.068 1304.2,946.692 
  1307.67,938.392 1311.14,930.169 1314.62,922.023 1318.1,913.955 1321.59,905.967 1325.08,898.058 1328.58,890.229 1332.07,882.482 1335.58,874.816 1339.08,867.234 
  1342.59,859.734 1346.1,852.319 1349.62,844.988 1353.13,837.743 1356.65,830.584 1360.18,823.512 1363.7,816.527 1367.22,809.63 1370.75,802.822 1374.28,796.104 
  1377.81,789.475 1381.34,782.937 1384.87,776.491 1388.4,770.136 1391.93,763.873 1395.45,757.704 1398.98,751.628 1402.51,745.646 1406.04,739.759 1409.57,733.967 
  1413.09,728.271 1416.62,722.671 1420.14,717.168 1423.66,711.761 1427.18,706.453 1430.69,701.243 1434.21,696.131 1437.72,691.118 1441.22,686.205 1444.73,681.391 
  1448.23,676.678 1451.72,672.066 1455.21,667.554 1458.7,663.144 1462.19,658.835 1465.66,654.629 1469.14,650.525 1472.61,646.524 1476.07,642.625 1479.52,638.83 
  1482.98,635.139 1486.42,631.551 1489.86,628.067 1493.29,624.688 1496.72,621.413 1500.13,618.243 1503.55,615.177 1506.95,612.217 1510.34,609.362 1513.73,606.613 
  1517.11,603.968 1520.48,601.43 1523.85,598.997 1527.2,596.67 1530.55,594.449 1533.88,592.334 1537.21,590.325 1540.53,588.422 1543.83,586.625 1547.13,584.934 
  1550.42,583.349 1553.69,581.87 1556.88,580.478 1555.78,578.17 1554.68,575.972 1553.57,573.885 1552.46,571.908 1551.34,570.041 1550.22,568.283 1549.1,566.634 
  1547.98,565.094 1546.85,563.662 1545.72,562.339 1544.58,561.123 1543.44,560.014 1542.3,559.013 1541.16,558.118 1540.01,557.329 1538.86,556.646 1537.71,556.068 
  1536.55,555.596 1535.4,555.227 1534.24,554.963 1533.07,554.802 1531.91,554.744 1530.74,554.788 1529.57,554.935 1528.4,555.183 1527.23,555.532 1526.05,555.981 
  1524.88,556.53 1523.7,557.179 1522.52,557.926 1521.34,558.772 1520.15,559.715 1518.97,560.756 1517.78,561.893 1516.6,563.126 1515.41,564.454 1514.22,565.877 
  1513.03,567.394 1511.84,569.004 1510.65,570.708 1509.45,572.503 1508.26,574.39 1507.07,576.368 1505.87,578.436 1504.68,580.594 1503.48,582.841 1502.29,585.176 
  1501.09,587.598 1499.9,590.108 1498.7,592.703 1497.51,595.385 1496.31,598.151 1495.11,601.001 1493.92,603.935 1492.72,606.951 1491.53,610.049 1490.33,613.229 
  1489.14,616.49 1487.95,619.83 1486.75,623.249 1485.56,626.747 1484.37,630.323 1483.18,633.975 1481.99,637.704 1480.8,641.508 1479.61,645.387 1478.42,649.341 
  1477.24,653.367 1476.05,657.466 1474.87,661.637 1473.69,665.879 1472.51,670.191 1471.33,674.573 1470.15,679.024 1468.97,683.543 1467.8,688.129 1466.62,692.782 
  1465.45,697.5 1464.28,702.284 1463.11,707.132 1461.94,712.044 1460.78,717.019 1459.62,722.055 1458.46,727.154 1457.3,732.312 1456.14,737.531 1454.98,742.809 
  1453.83,748.145 1452.68,753.54 1451.53,758.99 1450.39,764.498 1449.24,770.06 1448.1,775.678 1446.96,781.349 1445.83,787.074 1444.69,792.851 1443.56,798.68 
  1442.43,804.561 1441.31,810.491 1440.18,816.472 1439.06,822.501 1437.94,828.578 1436.83,834.704 1435.72,840.875 1434.61,847.093 1433.5,853.357 1432.4,859.665 
  1431.29,866.017 1430.2,872.413 1429.1,878.851 1428.01,885.331 1426.92,891.853 1425.83,898.415 1424.75,905.017 1423.67,911.658 1422.59,918.338 1421.52,925.056 
  1420.45,931.811 1419.38,938.603 1418.32,945.431 1417.26,952.294 1416.33,956.174 1415.95,946.631 1415.57,937.153 1415.18,927.742 1414.79,918.396 1414.4,909.118 
  1414,899.908 1413.6,890.767 1413.2,881.694 1412.79,872.691 1412.38,863.758 1411.97,854.897 1411.55,846.106 1411.13,837.388 1410.7,828.743 1410.28,820.171 
  1409.85,811.672 1409.41,803.248 1408.97,794.899 1408.53,786.626 1408.09,778.428 1407.64,770.307 1407.19,762.263 1406.73,754.297 1406.27,746.409 1405.81,738.599 
  1405.35,730.869 1404.88,723.218 1404.41,715.647 1403.94,708.157 1403.46,700.748 1402.98,693.421 1402.5,686.175 1402.01,679.012 1401.52,671.932 1401.03,664.935 
  1400.53,658.021 1400.04,651.192 1399.53,644.447 1399.03,637.787 1398.52,631.212 1398.01,624.723 1397.5,618.32 1396.99,612.003 1396.47,605.773 1395.95,599.63 
  1395.42,593.574 1394.9,587.606 1394.37,581.726 1393.84,575.934 1393.3,570.231 1392.77,564.616 1392.23,559.091 1391.68,553.655 1391.14,548.309 1390.59,543.052 
  1388.76,538.922 1386.61,535.129 1384.46,531.419 1382.3,527.791 1380.13,524.247 1377.96,520.785 1375.79,517.408 1373.61,514.115 1371.43,510.906 1369.24,507.782 
  1367.04,504.743 1364.85,501.79 1362.64,498.923 1360.44,496.141 1358.23,493.447 1356.02,490.838 1353.8,488.317 1351.58,485.883 1349.35,483.536 1347.12,481.277 
  1344.89,479.107 1342.66,477.024 1340.42,475.03 1338.18,473.124 1335.94,471.307 1333.69,469.579 1331.44,467.941 1329.19,466.391 1326.94,464.931 1324.68,463.561 
  1322.42,462.281 1320.16,461.091 1317.9,459.991 1315.64,458.981 1313.38,458.061 1311.11,457.231 1308.84,456.493 1306.57,455.844 1304.3,455.286 1302.03,454.819 
  1299.76,454.443 1297.49,454.157 1295.21,453.963 1292.94,453.859 1290.67,453.845 1288.39,453.923 1286.12,454.091 1283.84,454.35 1281.57,454.7 1279.3,455.14 
  1277.02,455.671 1274.75,456.292 1272.48,457.004 1270.21,457.807 1267.94,458.699 1265.67,459.682 1263.4,460.755 1261.13,461.917 1258.87,463.17 1256.6,464.512 
  1254.34,465.943 1252.08,467.464 1249.82,469.074 1247.56,470.773 1245.31,472.561 1243.06,474.438 1240.81,476.402 1238.56,478.455 1236.32,480.596 1234.07,482.824 
  1231.83,485.14 1229.6,487.543 1227.36,490.033 1225.13,492.61 1222.91,495.273 1220.68,498.021 1218.46,500.856 1216.25,503.776 1214.04,506.781 1211.83,509.871 
  1209.62,513.045 1207.42,516.304 1205.23,519.646 1203.04,523.072 1200.85,526.58 1198.67,530.171 1196.49,533.845 1194.32,537.6 1192.15,541.437 1189.98,545.355 
  1187.83,549.353 1185.67,553.432 1183.52,557.59 1181.38,561.828 1179.25,566.144 1177.11,570.539 1174.99,575.012 1172.87,579.563 1170.76,584.191 1168.65,588.895 
  1166.55,593.675 1164.45,598.531 1162.36,603.462 1160.28,608.467 1158.2,613.547 1156.13,618.7 1154.07,623.927 1152.01,629.226 1149.96,634.596 1147.92,640.039 
  1145.88,645.552 1143.85,651.136 1141.83,656.789 1139.82,662.512 1137.81,668.304 1135.81,674.163 1133.82,680.091 1131.83,686.085 1129.85,692.146 1127.88,698.273 
  1125.92,704.464 1123.97,710.721 1122.02,717.042 1120.08,723.426 1118.15,729.873 1116.23,736.383 1114.32,742.954 1112.41,749.586 1110.51,756.279 1108.62,763.032 
  1106.74,769.844 1104.87,776.714 1103.01,783.643 1101.15,790.629 1099.3,797.672 1097.47,804.771 1095.64,811.925 1093.82,819.135 1092,826.398 1090.2,833.716 
  1088.41,841.086 1086.62,848.509 1084.85,855.983 1083.08,863.509 1081.32,871.085 1079.57,878.71 1077.83,886.385 1076.1,894.109 1074.38,901.88 1072.67,909.699 
  1070.97,917.564 1069.28,925.475 1067.59,933.432 1065.92,941.433 1064.25,949.479 1062.16,946.1 1059.91,938.723 1057.66,931.401 1055.41,924.134 1053.15,916.924 
  1050.89,909.771 1048.62,902.675 1046.35,895.638 1044.08,888.659 1041.81,881.739 1039.53,874.88 1037.25,868.081 1034.97,861.344 1032.69,854.669 1030.4,848.056 
  1028.11,841.506 1025.82,835.02 1023.53,828.599 1021.24,822.242 1018.94,815.952 1016.65,809.727 1014.35,803.569 1012.05,797.479 1009.75,791.456 1007.44,785.503 
  1005.14,779.618 1002.84,773.803 1000.53,768.058 998.225,762.385 995.919,756.782 993.612,751.252 991.306,745.794 988.999,740.41 986.692,735.099 984.385,729.862 
  982.079,724.699 979.773,719.612 977.468,714.601 975.163,709.666 972.859,704.807 970.556,700.026 968.254,695.322 965.953,690.697 963.654,686.15 961.356,681.682 
  959.059,677.294 956.764,672.986 954.472,668.759 952.181,664.612 949.892,660.547 947.605,656.563 945.321,652.662 943.039,648.843 940.76,645.107 938.483,641.455 
  936.21,637.886 933.939,634.401 931.672,631.001 929.408,627.686 927.148,624.456 924.891,621.311 922.637,618.253 920.388,615.28 918.142,612.394 915.901,609.595 
  913.664,606.883 911.431,604.258 909.203,601.721 906.979,599.272 904.76,596.911 902.546,594.639 900.337,592.455 898.133,590.36 895.935,588.355 893.741,586.438 
  891.554,584.611 889.372,582.874 895.855,583.578 895.994,582.646 896.14,581.804 896.292,581.051 896.451,580.389 896.616,579.816 896.788,579.335 896.966,578.944 
  897.151,578.644 897.342,578.436 897.539,578.318 897.743,578.292 897.954,578.358 898.171,578.515 898.395,578.765 898.625,579.106 898.861,579.539 899.104,580.065 
  899.353,580.683 899.609,581.393 899.872,582.195 900.141,583.091 900.416,584.078 900.697,585.158 900.985,586.331 901.28,587.596 901.581,588.954 901.888,590.405 
  902.202,591.948 902.522,593.583 902.848,595.311 903.181,597.131 903.519,599.044 903.865,601.049 904.216,603.146 904.574,605.336 904.938,607.617 905.308,609.99 
  905.684,612.455 906.067,615.012 906.455,617.66 906.85,620.399 907.251,623.23 907.658,626.151 908.071,629.163 908.49,632.266 908.915,635.459 909.346,638.742 
  909.783,642.115 910.226,645.578 910.675,649.13 911.129,652.771 911.59,656.501 912.056,660.32 912.528,664.227 913.006,668.222 913.489,672.304 913.978,676.474 
  914.473,680.731 914.973,685.075 915.479,689.504 915.99,694.02 916.507,698.622 917.029,703.308 917.557,708.079 918.09,712.935 918.629,717.875 919.172,722.898 
  919.721,728.004 920.275,733.194 920.835,738.465 921.399,743.818 921.969,749.253 922.543,754.768 923.123,760.364 923.708,766.04 924.297,771.796 924.891,777.63 
  925.491,783.543 926.095,789.533 926.703,795.601 927.317,801.746 927.935,807.968 928.558,814.265 929.185,820.637 929.817,827.084 930.453,833.605 931.093,840.2 
  931.738,846.868 932.388,853.608 933.041,860.42 933.699,867.304 934.361,874.257 935.027,881.281 935.697,888.375 936.371,895.537 937.049,902.767 937.731,910.065 
  938.417,917.43 939.107,924.861 939.8,932.358 940.497,939.92 941.198,947.546 941.902,955.236 942.61,962.989 943.322,970.804 944.037,978.682 944.755,986.62 
  945.476,994.618 946.201,1002.68 946.929,1010.79 947.661,1018.97 948.395,1027.2 949.133,1035.49 949.873,1043.84 950.617,1052.24 951.363,1060.7 952.113,1069.21 
  952.865,1077.78 953.62,1086.39 954.377,1095.06 955.138,1103.79 955.534,1106.85 955.312,1100.28 955.094,1093.76 954.88,1087.31 954.671,1080.91 954.466,1074.56 
  954.266,1068.28 954.07,1062.05 953.879,1055.89 953.692,1049.78 953.51,1043.74 953.333,1037.75 953.16,1031.83 952.992,1025.97 952.829,1020.18 952.671,1014.45 
  952.517,1008.78 952.368,1003.19 952.224,997.653 952.085,992.188 951.951,986.791 951.822,981.463 951.698,976.204 951.58,971.015 951.466,965.896 951.357,960.849 
  951.254,955.874 951.155,950.971 951.062,946.142 950.975,941.386 950.892,936.705 950.815,932.1 950.743,927.57 950.677,923.116 950.615,918.739 950.56,914.441 
  950.51,910.22 950.465,906.078 950.426,902.016 950.392,898.034 950.364,894.132 950.342,890.311 950.325,886.573 950.313,882.916 950.308,879.343 950.308,875.853 
  950.314,872.447 950.325,869.125 950.343,865.889 950.366,862.738 950.395,859.673 950.429,856.695 950.47,853.804 950.516,851 950.568,848.284 950.626,845.657 
  950.69,843.118 950.76,840.669 950.836,838.31 950.918,836.041 951.005,833.863 951.099,831.775 951.198,829.78 951.304,827.876 951.415,826.064 951.533,824.345 
  951.657,822.718 951.786,821.185 951.922,819.746 952.063,818.401 952.211,817.15 952.365,815.993 952.525,814.931 952.69,813.965 952.862,813.094 953.04,812.318 
  953.224,811.639 953.414,811.055 953.61,810.568 953.812,810.178 954.02,809.884 954.235,809.687 954.455,809.588 954.681,809.585 954.914,809.68 955.152,809.873 
  955.396,810.164 955.647,810.552 955.903,811.038 956.166,811.623 956.434,812.305 956.708,813.085 956.989,813.964 957.275,814.941 957.567,816.016 957.865,817.19 
  958.169,818.462 958.479,819.832 958.795,821.301 959.117,822.867 959.444,824.532 959.778,826.295 960.117,828.156 960.462,830.115 960.813,832.172 961.169,834.326 
  961.531,836.578 961.899,838.928 962.273,841.375 962.652,843.919 963.037,846.56 963.427,849.297 963.824,852.132 964.225,855.063 964.632,858.089 965.045,861.212 
  965.463,864.431 965.886,867.745 966.315,871.154 966.749,874.657 967.189,878.256 967.634,881.948 968.084,885.735 968.539,889.615 969,893.588 969.466,897.654 
  969.937,901.813 970.413,906.064 970.894,910.406 971.38,914.84 971.871,919.364 972.367,923.98 972.868,928.685 982.218,926.069 984.264,929.64 986.308,933.296 
  988.352,937.036 990.394,940.86 992.436,944.767 994.476,948.757 996.515,952.829 998.552,956.981 1000.59,961.215 1002.62,965.529 1004.65,969.922 1006.68,974.394 
  1008.71,978.944 1010.74,983.572 1012.76,988.277 1014.78,993.058 1016.8,997.914 1018.81,1002.85 1020.82,1007.85 1022.83,1012.93 1024.84,1018.08 1026.84,1023.31 
  1028.84,1028.6 1030.84,1033.97 1032.83,1039.41 1034.82,1044.91 1036.81,1050.49 1038.79,1056.13 1040.77,1061.84 1042.74,1067.62 1044.71,1073.46 1046.68,1079.37 
  1048.64,1085.34 1050.6,1091.38 1052.55,1097.47 1054.5,1103.64 1056.45,1109.86 1058.38,1116.14 1060.32,1122.48 1062.25,1128.89 1064.17,1135.35 1066.09,1141.87 
  1068.01,1148.44 1069.92,1155.08 1071.82,1161.76 1073.72,1168.51 1075.61,1175.31 1077.5,1182.16 1079.38,1189.06 1081.26,1196.02 1083.13,1203.02 1085,1210.08 
  1086.86,1217.19 1088.71,1224.34 1090.52,1230.36 1091.85,1222.57 1093.2,1214.84 1094.55,1207.18 1095.9,1199.59 1097.26,1192.06 1098.63,1184.6 1100,1177.21 
  1101.38,1169.88 1102.76,1162.63 1104.15,1155.45 1105.55,1148.33 1106.95,1141.29 1108.35,1134.32 1109.76,1127.42 1111.18,1120.59 1112.59,1113.84 1114.02,1107.17 
  1115.45,1100.57 1116.88,1094.04 1118.32,1087.59 1119.77,1081.22 1121.22,1074.93 1122.67,1068.71 1124.13,1062.58 1125.59,1056.52 1127.05,1050.54 1128.52,1044.65 
  1130,1038.83 1131.48,1033.1 1132.96,1027.45 1134.44,1021.88 1135.93,1016.4 1137.43,1011 1138.93,1005.68 1140.43,1000.45 1141.93,995.309 1143.44,990.25 
  1144.95,985.278 1146.46,980.393 1147.98,975.596 1149.5,970.886 1151.02,966.264 1152.55,961.732 1154.08,957.288 1155.61,952.934 1157.14,948.671 1158.68,944.497 
  1160.21,940.414 1161.75,936.423 1163.3,932.523 1164.84,928.714 1166.39,924.998 1167.94,921.374 1169.49,917.844 1171.04,914.406 1172.59,911.061 1174.15,907.811 
  1175.7,904.654 1177.26,901.591 1178.82,898.623 1180.38,895.749 1181.94,892.971 1183.5,890.287 1185.06,887.699 1186.63,885.206 1188.19,882.808 1189.76,880.507 
  1191.32,878.301 1192.89,876.192 1194.45,874.178 1196.02,872.261 1197.58,870.44 1199.15,868.716 1200.71,867.088 1202.28,865.557 1203.84,864.123 1205.4,862.785 
  1206.97,861.544 1208.53,860.399 1210.09,859.352 1211.65,858.401 1213.21,857.546 1214.77,856.789 1216.33,856.128 1217.89,855.563 1219.44,855.095 1220.99,854.723 
  1222.55,854.448 1224.1,854.269 1225.64,854.185 1227.19,854.198 1228.74,854.306 1230.28,854.51 1231.82,854.81 1233.36,855.205 1234.89,855.694 1236.43,856.279 
  1237.96,856.958 1239.49,857.732 1241.01,858.6 1242.54,859.561 1244.06,860.617 1245.57,861.766 1247.09,863.008 1248.6,864.342 1250.11,865.77 1251.61,867.289 
  1253.11,868.9 1254.61,870.603 1256.1,872.397 1257.59,874.282 1259.08,876.258 1260.56,878.323 1262.04,880.479 1263.52,882.723 1264.99,885.057 1266.46,887.479 
  1267.92,889.989 1269.38,892.587 1270.83,895.272 1272.28,898.044 1273.73,900.902 1275.17,903.846 1276.6,906.875 1278.04,909.99 1279.46,913.188 1280.88,916.471 
  1282.3,919.837 1283.71,923.286 1285.12,926.817 1286.52,930.43 1287.92,934.124 1289.31,937.899 1290.7,941.755 1292.08,945.689 1293.45,949.703 1294.82,953.796 
  1296.19,957.966 1297.54,962.214 1298.9,966.539 1300.24,970.94 1301.58,975.416 1302.92,979.967 1304.25,984.593 1305.57,989.292 1306.89,994.065 1308.2,998.91 
  1309.51,1003.83 1310.81,1008.81 1312.1,1013.87 1313.39,1019 1314.67,1024.2 1315.94,1029.47 1317.21,1034.8 1318.47,1040.2 1319.73,1045.67 1320.98,1051.21 
  1322.22,1056.81 1323.46,1062.47 1324.68,1068.2 1325.91,1073.99 1327.12,1079.85 1328.33,1085.76 1329.53,1091.74 1330.73,1097.78 1331.92,1103.88 1333.1,1110.03 
  1334.28,1116.25 1335.44,1122.52 1336.61,1128.86 1337.76,1135.24 1338.91,1141.69 1340.05,1148.18 1341.18,1154.74 1342.31,1161.34 1343.43,1168 1344.54,1174.71 
  1345.97,1169.42 1347.45,1162.28 1348.93,1155.21 1350.41,1148.2 1351.89,1141.26 1353.37,1134.39 1354.85,1127.59 1356.33,1120.86 1357.82,1114.21 1359.3,1107.62 
  1360.78,1101.11 1362.27,1094.67 1363.75,1088.3 1365.24,1082.01 1366.72,1075.79 1368.2,1069.65 1369.68,1063.58 1371.17,1057.59 1372.65,1051.67 1374.13,1045.84 
  1375.61,1040.08 1377.09,1034.4 1378.57,1028.8 1380.04,1023.28 1381.52,1017.84 1383,1012.48 1384.47,1007.21 1385.94,1002.01 1387.41,996.896 1388.88,991.865 
  1390.35,986.917 1391.82,982.053 1393.28,977.273 1394.74,972.577 1396.2,967.967 1397.66,963.442 1399.12,959.003 1400.57,954.65 1402.02,950.384 1403.47,946.205 
  1404.92,942.113 1406.36,938.109 1407.8,934.193 1409.24,930.366 1410.68,926.627 1412.11,922.978 1413.54,919.417 1414.96,915.947 1416.39,912.567 1417.81,909.277 
  1419.22,906.077 1420.63,902.969 1422.04,899.951 1423.45,897.025 1424.85,894.191 1426.24,891.448 1427.64,888.797 1429.03,886.238 1430.41,883.772 1431.79,881.398 
  1433.17,879.117 1434.54,876.929 1435.91,874.834 1437.27,872.832 1438.63,870.923 1439.98,869.107 1441.33,867.385 1442.67,865.756 1444.01,864.221 1445.34,862.779 
  1446.67,861.431 1447.99,860.177 1449.31,859.016 1450.62,857.95 1451.93,856.976 1453.23,856.097 1454.52,855.311 1455.81,854.619 1457.1,854.021 1458.38,853.516 
  1459.65,853.104 1460.91,852.786 1462.17,852.562 1463.43,852.43 1464.67,852.392 1465.92,852.446 1467.15,852.594 1468.38,852.834 1469.6,853.166 1470.82,853.591 
  1472.03,854.108 1473.23,854.717 1474.42,855.418 1475.61,856.21 1476.8,857.094 1477.97,858.069 1479.14,859.134 1480.3,860.29 1481.45,861.537 1482.6,862.874 
  1483.74,864.3 1484.87,865.816 1486,867.421 1487.12,869.115 1488.23,870.898 1489.33,872.768 1490.43,874.727 1491.52,876.773 1492.6,878.906 1493.67,881.126 
  1494.74,883.432 1495.79,885.825 1496.84,888.303 1497.89,890.866 1498.92,893.514 1499.95,896.246 1500.97,899.063 1501.98,901.962 1502.98,904.945 1503.97,908.011 
  1504.96,911.158 1505.94,914.387 1506.91,917.698 1507.87,921.089 1508.83,924.56 1509.78,928.111 1510.71,931.741 1511.64,935.45 1512.57,939.237 1513.48,943.101 
  1514.38,947.043 1515.28,951.061 1516.17,955.155 1517.05,959.325 1517.92,963.57 1518.79,967.889 1519.64,972.281 1520.49,976.747 1521.33,981.286 1522.16,985.897 
  1522.98,990.579 1523.79,995.331 1524.6,1000.15 1525.4,1005.05 1526.18,1010.01 1526.96,1015.04 1527.73,1020.14 1528.5,1025.3 1529.25,1030.53 1530,1035.83 
  1530.74,1041.2 1531.46,1046.62 1532.18,1052.12 1532.9,1057.67 1533.6,1063.29 1533.11,1068.58 1532.31,1073.84 1531.51,1079.15 1530.7,1084.52 1529.9,1089.96 
  1529.09,1095.45 1528.29,1100.99 1527.47,1106.6 1526.66,1112.26 1525.85,1117.97 1525.03,1123.74 1524.85,1120.17 1524.92,1113.07 1524.97,1106.04 1525.02,1099.09 
  1525.07,1092.2 1525.11,1085.39 1525.14,1078.65 1525.17,1071.99 1525.19,1065.4 1525.21,1058.89 1525.22,1052.46 1525.23,1046.1 1525.23,1039.82 1525.22,1033.62 
  1525.21,1027.49 1525.2,1021.44 1525.18,1015.48 1525.15,1009.59 1525.12,1003.78 1525.08,998.054 1525.03,992.408 1524.98,986.844 1524.93,981.361 1524.87,975.961 
  1524.8,970.644 1524.73,965.41 1524.65,960.259 1524.57,955.193 1524.48,950.211 1524.38,945.313 1524.28,940.501 1524.17,935.774 1524.06,931.133 1523.94,926.578 
  1523.82,922.109 1523.69,917.727 1523.56,913.433 1523.42,909.225 1523.27,905.105 1523.12,901.073 1522.96,897.13 1522.8,893.274 1522.63,889.508 1522.46,885.83 
  1522.28,882.241 1522.09,878.742 1521.9,875.332 1521.7,872.012 1521.5,868.782 1521.3,865.642 1521.08,862.592 1520.86,859.632 1520.64,856.763 1520.41,853.985 
  1520.18,851.297 1519.94,848.7 1519.69,846.194 1519.44,843.779 1519.18,841.455 1518.92,839.223 1518.65,837.081 1518.38,835.031 1518.1,833.072 1517.82,831.204 
  1517.53,829.428 1517.24,827.743 1516.94,826.149 1516.64,824.647 1516.33,823.236 1516.01,821.915 1515.69,820.687 1515.37,819.549 1515.04,818.502 1514.7,817.546 
  1514.37,816.68 1514.02,815.906 1513.67,815.222 1513.32,814.628 1512.96,814.125 1512.59,813.712 1512.22,813.389 1511.85,813.155 1511.47,813.012 1511.09,812.958 
  1510.7,812.993 1510.31,813.117 1509.91,813.33 1509.51,813.631 1509.1,814.021 1508.69,814.499 1508.28,815.065 1507.86,815.719 1507.43,816.459 1507,817.287 
  1506.57,818.202 1506.13,819.203 1505.69,820.29 1505.25,821.463 1504.8,822.721 1504.34,824.065 1503.89,825.494 1503.42,827.007 1502.96,828.604 1502.49,830.284 
  1502.01,832.048 1501.53,833.896 1501.05,835.825 1500.57,837.837 1500.08,839.931 1499.58,842.106 1499.09,844.362 1498.58,846.698 1498.08,849.115 1497.57,851.611 
  1497.06,854.186 1496.55,856.841 1496.03,859.573 1495.5,862.383 1494.98,865.271 1494.45,868.235 1493.92,871.276 1493.38,874.393 1492.85,877.585 1492.3,880.852 
  1491.76,884.194 1491.21,887.609 1490.66,891.098 1490.11,894.659 1489.55,898.293 1488.99,901.998 1488.43,905.775 1487.86,909.623 1487.29,913.54 1486.72,917.527 
  1486.15,921.584 1485.57,925.708 1485,929.901 1484.41,934.161 1483.83,938.488 1483.24,942.881 1482.66,947.339 1482.07,951.863 1481.47,956.451 1480.88,961.104 
  1480.28,965.819 1479.68,970.597 1479.08,975.437 1478.47,980.339 1477.87,985.302 1477.26,990.325 1476.65,995.408 1476.04,1000.55 1475.42,1005.75 1474.81,1011.01 
  1474.19,1016.32 1474,1013.92 1474.02,1007.57 1474.04,1001.28 1474.05,995.069 1474.06,988.931 1474.07,982.866 1474.07,976.875 1474.07,970.959 1474.06,965.117 
  1474.05,959.352 1474.04,953.662 1474.02,948.049 1473.99,942.512 1473.96,937.053 1473.93,931.671 1473.89,926.367 1473.85,921.142 1473.8,915.996 1473.75,910.929 
  1473.7,905.942 1473.64,901.035 1473.57,896.208 1473.51,891.461 1473.43,886.796 1473.36,882.213 1473.27,877.711 1473.19,873.291 1473.1,868.953 1473,864.699 
  1472.9,860.527 1472.8,856.438 1472.69,852.433 1472.58,848.512 1472.46,844.674 1472.34,840.921 1472.21,837.253 1472.08,833.669 1471.95,830.171 1471.81,826.757 
  1471.67,823.429 1471.52,820.186 1471.37,817.03 1471.21,813.959 1471.05,810.974 1470.88,808.076 1470.71,805.264 1470.54,802.538 1470.36,799.899 1470.18,797.347 
  1469.99,794.882 1469.8,792.503 1469.6,790.212 1469.41,788.008 1469.2,785.891 1468.99,783.861 1468.78,781.919 1468.56,780.064 1468.34,778.296 1468.12,776.616 
  1467.89,775.023 1467.66,773.517 1467.42,772.099 1467.18,770.768 1466.93,769.524 1466.69,768.368 1466.43,767.299 1466.17,766.317 1465.91,765.422 1465.65,764.614 
  1465.38,763.893 1465.11,763.259 1464.83,762.712 1464.55,762.251 1464.26,761.877 1463.97,761.588 1463.68,761.387 1463.39,761.271 1463.09,761.241 1462.78,761.297 
  1462.48,761.438 1462.16,761.664 1461.85,761.976 1461.53,762.373 1461.21,762.854 1460.88,763.42 1460.55,764.07 1460.22,764.804 1459.89,765.622 1459.55,766.523 
  1459.2,767.508 1458.86,768.575 1458.51,769.725 1458.15,770.958 1457.8,772.272 1457.44,773.669 1457.07,775.147 1456.71,776.706 1456.34,778.345 1455.96,780.066 
  1455.59,781.866 1455.21,783.746 1454.83,785.706 1454.44,787.744 1454.05,789.862 1453.66,792.057 1453.27,794.331 1452.87,796.682 1452.47,799.11 1452.07,801.615 
  1451.66,804.196 1451.25,806.854 1450.84,809.586 1450.42,812.394 1450.01,815.276 1449.59,818.233 1449.17,821.263 1448.74,824.366 1448.31,827.542 1447.88,830.791 
  1447.45,834.111 1447.01,837.503 1446.58,840.966 1446.14,844.499 1445.69,848.103 1445.25,851.775 1444.8,855.517 1444.35,859.327 1443.9,863.205 1443.45,867.151 
  1442.99,871.163 1442.53,875.242 1442.07,879.387 1441.61,883.597 1441.14,887.873 1440.68,892.212 1440.21,896.615 1439.74,901.082 1439.26,905.611 1438.79,910.203 
  1438.31,914.856 1437.84,919.57 1437.36,924.345 1436.87,929.179 1436.39,934.074 1436.23,931.813 1436.23,926.085 1436.23,920.43 1436.22,914.847 1436.21,909.338 
  1436.2,903.903 1436.18,898.542 1436.16,893.255 1436.13,888.044 1436.11,882.907 1436.07,877.847 1436.04,872.862 1436,867.955 1435.96,863.124 1435.91,858.37 
  1435.86,853.693 1435.81,849.095 1435.75,844.575 1435.69,840.133 1435.62,835.771 1435.56,831.487 1435.48,827.283 1435.41,823.158 1435.33,819.114 1435.25,815.15 
  1435.16,811.267 1435.07,807.464 1434.98,803.742 1434.88,800.102 1434.78,796.543 1434.68,793.066 1434.57,789.671 1434.46,786.358 1434.35,783.128 1434.23,779.98 
  1434.11,776.915 1433.98,773.933 1433.86,771.033 1433.72,768.217 1433.59,765.485 1433.45,762.836 1433.31,760.27 1433.16,757.789 1433.01,755.391 1432.86,753.077 
  1432.7,750.847 1432.54,748.701 1432.38,746.64 1432.21,744.662 1432.04,742.769 1431.87,740.961 1431.69,739.236 1431.51,737.597 1431.33,736.041 1431.14,734.57 
  1430.95,733.184 1430.76,731.881 1430.56,730.664 1430.36,729.53 1430.16,728.481 1429.95,727.516 1429.74,726.636 1429.53,725.84 1429.31,725.127 1429.09,724.499 
  1428.87,723.955 1428.64,723.494 1428.41,723.118 1428.18,722.824 1427.94,722.615 1427.7,722.488 1427.46,722.445 1427.22,722.485 1426.97,722.608 1426.72,722.814 
  1426.46,723.102 1426.21,723.472 1425.95,723.925 1425.68,724.46 1425.42,725.076 1425.15,725.774 1424.88,726.553 1424.6,727.414 1424.32,728.355 1424.04,729.377 
  1423.76,730.479 1423.48,731.661 1423.19,732.924 1422.9,734.265 1422.6,735.686 1422.3,737.186 1422,738.765 1421.7,740.422 1421.4,742.157 1421.09,743.969 
  1420.78,745.86 1420.47,747.827 1420.15,749.871 1419.84,751.991 1419.52,754.188 1419.19,756.46 1418.87,758.807 1418.54,761.229 1418.21,763.726 1417.88,766.297 
  1417.54,768.942 1417.21,771.66 1416.87,774.452 1416.53,777.315 1416.18,780.251 1415.84,783.259 1415.49,786.338 1415.14,789.488 1414.79,792.709 1414.43,795.999 
  1414.08,799.359 1413.72,802.788 1413.36,806.286 1413,809.853 1412.63,813.486 1412.27,817.188 1411.9,820.956 1411.53,824.79 1411.16,828.691 1410.78,832.656 
  1410.41,836.687 1410.03,840.782 1409.65,844.941 1409.27,849.164 1408.89,853.449 1408.5,857.797 1408.11,862.207 1407.73,866.678 1407.62,863.812 1407.61,858.666 
  1407.59,853.594 1407.56,848.595 1407.54,843.67 1407.51,838.819 1407.48,834.042 1407.44,829.34 1407.4,824.714 1407.36,820.162 1407.32,815.687 1407.27,811.287 
  1407.22,806.964 1407.17,802.718 1407.11,798.549 1407.05,794.457 1406.99,790.442 1406.93,786.506 1406.86,782.647 1406.79,778.867 1406.71,775.166 1406.64,771.543 
  1406.28,768.263 1405.75,765.232 1405.21,762.279 1404.67,759.404 1404.12,756.607 1403.57,753.889 1403.02,751.25 1402.47,748.69 1401.91,746.209 1401.35,743.807 
  1400.78,741.486 1400.22,739.244 1399.65,737.082 1399.07,735 1398.5,732.998 1397.92,731.077 1397.34,729.237 1396.75,727.478 1396.16,725.799 1395.57,724.202 
  1394.98,722.685 1394.38,721.25 1393.79,719.896 1393.18,718.624 1392.58,717.433 1391.97,716.324 1391.37,715.297 1390.75,714.351 1390.14,713.487 1389.52,712.705 
  1388.9,712.004 1388.28,711.386 1387.66,710.849 1387.03,710.394 1386.4,710.021 1385.77,709.73 1385.14,709.52 1384.5,709.393 1383.87,709.347 1383.23,709.383 
  1382.58,709.5 1381.94,709.699 1381.29,709.979 1380.65,710.341 1380,710.785 1379.34,711.309 1378.69,711.915 1378.03,712.601 1377.38,713.369 1376.72,714.217 
  1376.06,715.145 1375.39,716.155 1374.73,717.244 1374.06,718.414 1373.4,719.663 1372.73,720.993 1372.05,722.401 1371.38,723.89 1370.71,725.457 1370.03,727.104 
  1369.36,728.829 1368.68,730.632 1368,732.514 1367.32,734.474 1366.64,736.512 1365.95,738.627 1365.27,740.82 1364.58,743.09 1363.9,745.436 1363.21,747.859 
  1362.52,750.357 1361.83,752.932 1361.14,755.582 1360.45,758.308 1359.76,761.108 1359.06,763.983 1358.37,766.932 1357.67,769.955 1356.98,773.051 1356.28,776.221 
  1355.59,779.464 1354.89,782.779 1354.19,786.166 1353.49,789.624 1352.79,793.155 1352.09,796.756 1351.39,800.427 1350.69,804.169 1349.99,807.98 1349.29,811.861 
  1348.59,815.811 1347.89,819.829 1347.19,823.915 1346.49,828.069 1345.79,832.29 1345.08,836.578 1344.38,840.932 1343.68,845.352 1342.98,849.838 1342.28,854.388 
  1341.57,859.003 1340.87,863.682 1340.17,868.424 1339.47,873.229 1338.77,878.097 1338.07,883.027 1337.37,888.019 1336.67,893.072 1335.97,898.185 1335.27,903.359 
  1334.57,908.592 1334.06,905.118 1333.6,900.127 1333.13,895.205 1332.65,890.351 1332.18,885.567 1331.7,880.853 1331.22,876.208 1330.74,871.635 1330.26,867.132 
  1329.77,862.701 1329.28,858.341 1328.79,854.054 1328.3,849.839 1327.8,845.697 1327.3,841.629 1326.8,837.634 1326.3,833.713 1325.8,829.866 1325.29,826.094 
  1324.79,822.396 1324.28,818.775 1323.76,815.228 1323.25,811.758 1322.74,808.364 1322.22,805.046 1321.7,801.806 1321.18,798.642 1320.65,795.555 1320.13,792.547 
  1319.6,789.616 1319.07,786.763 1318.54,783.989 1318.01,781.293 1317.48,778.676 1316.94,776.138 1316.41,773.679 1315.87,771.3 1315.33,769 1314.79,766.781 
  1314.24,764.641 1313.7,762.581 1313.15,760.602 1312.61,758.703 1312.06,756.885 1311.51,755.147 1310.96,753.491 1310.4,751.915 1309.85,750.421 1309.29,749.007 
  1308.74,747.675 1308.18,746.425 1307.62,745.256 1307.06,744.168 1306.5,743.162 1305.94,742.238 1305.37,741.395 1304.81,740.634 1304.24,739.955 1303.68,739.358 
  1303.11,738.842 1302.54,738.408 1301.97,738.056 1301.4,737.785 1300.83,737.596 1300.26,737.489 1299.68,737.464 1299.11,737.52 1298.54,737.657 1297.96,737.876 
  1297.39,738.177 1296.81,738.558 1296.23,739.021 1295.66,739.565 1295.08,740.19 1294.5,740.895 1293.92,741.682 1293.34,742.549 1292.77,743.496 1292.19,744.523 
  1291.61,745.631 1291.02,746.819 1290.44,748.086 1289.86,749.433 1289.28,750.86 1288.7,752.365 1288.12,753.95 1287.54,755.613 1286.96,757.355 1286.37,759.175 
  1285.79,761.073 1285.21,763.049 1284.63,765.103 1284.05,767.234 1283.47,769.441 1282.89,771.726 1282.3,774.087 1281.72,776.524 1281.14,779.038 1280.56,781.626 
  1279.98,784.29 1279.4,787.029 1278.82,789.843 1278.24,792.731 1277.66,795.692 1277.08,798.728 1276.51,801.836 1275.93,805.018 1275.35,808.272 1274.77,811.598 
  1274.2,814.996 1273.62,818.465 1273.05,822.006 1272.47,825.617 1271.9,829.298 1271.33,833.049 1270.75,836.87 1270.18,840.759 1269.61,844.717 1269.04,848.744 
  1268.47,852.838 1267.9,856.999 1267.34,861.227 1266.77,865.522 1266.21,869.882 1265.64,874.308 1265.08,878.799 1264.51,883.355 1263.95,887.974 1263.39,892.658 
  1262.83,897.404 1262.27,902.213 1261.72,907.085 1261.16,912.018 1260.66,907.885 1260.17,903.187 1259.67,898.56 1259.17,894.003 1258.68,889.517 1258.18,885.102 
  1257.68,880.759 1257.18,876.488 1256.67,872.29 1256.17,868.165 1255.67,864.113 1255.16,860.135 1254.65,856.231 1254.15,852.401 1253.64,848.646 1253.13,844.965 
  1252.62,841.36 1252.11,837.831 1251.6,834.378 1251.09,831.001 1250.58,827.7 1250.07,824.476 1249.55,821.33 1249.04,818.26 1248.52,815.269 1248.01,812.355 
  1247.49,809.519 1246.98,806.762 1246.46,804.083 1245.94,801.483 1245.43,798.962 1244.91,796.521 1244.39,794.158 1243.87,791.876 1243.35,789.673 1242.84,787.55 
  1242.32,785.507 1241.8,783.545 1241.28,781.663 1240.76,779.862 1240.24,778.141 1239.72,776.501 1239.2,774.943 1238.68,773.465 1238.16,772.068 1237.64,770.753 
  1237.12,769.519 1236.6,768.367 1236.08,767.296 1235.56,766.306 1235.04,765.398 1234.52,764.572 1234,763.827 1233.48,763.164 1232.96,762.582 1232.44,762.083 
  1231.92,761.665 1231.4,761.328 1230.89,761.074 1230.37,760.901 1229.85,760.809 1229.34,760.799 1228.82,760.87 1228.3,761.023 1227.79,761.257 1227.27,761.573 
  1226.76,761.969 1226.25,762.447 1225.73,763.006 1225.22,763.645 1224.71,764.365 1224.2,765.166 1223.69,766.047 1223.18,767.008 1222.67,768.05 1222.16,769.171 
  1221.66,770.373 1221.15,771.653 1220.65,773.014 1220.14,774.453 1219.64,775.972 1219.14,777.569 1218.63,779.245 1218.13,781 1217.63,782.832 1217.14,784.742 
  1216.64,786.73 1216.14,788.796 1215.65,790.938 1215.15,793.157 1214.66,795.453 1214.17,797.825 1213.68,800.273 1213.19,802.797 1212.7,805.396 1212.22,808.07 
  1211.73,810.819 1211.25,813.642 1210.76,816.539 1210.28,819.51 1209.8,822.555 1209.32,825.672 1208.85,828.862 1208.37,832.125 1207.9,835.459 1207.43,838.865 
  1206.95,842.342 1206.48,845.889 1206.02,849.508 1205.55,853.196 1205.09,856.953 1204.62,860.78 1204.16,864.676 1203.7,868.64 1203.24,872.671 1202.79,876.77 
  1202.33,880.937 1201.88,885.169 1201.43,889.468 1200.98,893.833 1200.53,898.263 1200.08,901.878 1199.57,897.553 1199.06,893.301 1198.55,889.121 1198.04,885.015 
  1197.53,880.982 1197.02,877.022 1196.51,873.137 1196,869.326 1195.49,865.59 1194.99,861.929 1194.48,858.343 1193.97,854.833 1193.46,851.399 1192.96,848.042 
  1192.45,844.761 1191.94,841.556 1191.44,838.429 1190.93,835.38 1190.42,832.408 1189.92,829.514 1189.42,826.698 1188.91,823.961 1188.41,821.302 1187.91,818.722 
  1187.4,816.222 1186.9,813.8 1186.4,811.458 1185.9,809.196 1185.4,807.013 1184.9,804.911 1184.41,802.888 1183.91,800.946 1183.41,799.085 1182.92,797.304 
  1182.42,795.604 1181.93,793.984 1181.44,792.446 1180.95,790.989 1180.45,789.613 1179.97,788.318 1179.48,787.104 1178.99,785.972 1178.5,784.921 1178.02,783.952 
  1177.53,783.065 1177.05,782.259 1176.57,781.535 1176.09,780.892 1175.61,780.331 1175.13,779.851 1174.65,779.454 1174.18,779.138 1173.7,778.903 1173.23,778.75 
  1172.76,778.679 1172.29,778.689 1171.82,778.78 1171.35,778.953 1170.89,779.207 1170.42,779.542 1169.96,779.959 1169.5,780.456 1169.04,781.034 1168.58,781.693 
  1168.13,782.433 1167.67,783.253 1167.22,784.153 1166.77,785.133 1166.32,786.194 1165.87,787.335 1165.42,788.555 1164.98,789.854 1164.54,791.233 1164.1,792.691 
  1163.66,794.228 1163.22,795.844 1162.79,797.538 1162.35,799.31 1161.92,801.161 1161.49,803.089 1161.06,805.094 1160.64,807.177 1160.21,809.337 1159.79,811.573 
  1159.37,813.886 1158.96,816.275 1158.54,818.74 1158.13,821.28 1157.72,823.895 1157.31,826.586 1156.9,829.35 1156.49,832.189 1156.09,835.102 1155.69,838.089 
  1155.29,841.149 1154.9,844.281 1154.5,847.486 1154.11,850.763 1153.72,854.112 1153.33,857.532 1152.95,861.023 1152.56,864.584 1152.18,868.216 1151.81,871.918 
  1151.43,875.688 1151.06,879.528 1150.68,883.436 1150.32,887.413 1149.95,891.457 1149.58,895.568 1149.17,896.954 1148.66,892.966 1148.15,889.052 1147.64,885.212 
  1147.13,881.447 1146.62,877.757 1146.11,874.142 1145.61,870.603 1145.1,867.14 1144.6,863.753 1144.09,860.442 1143.59,857.209 1143.09,854.052 1142.59,850.973 
  1142.1,847.971 1141.6,845.047 1141.1,842.201 1140.61,839.434 1140.12,836.745 1139.63,834.135 1139.14,831.604 1138.65,829.152 1138.16,826.78 1137.68,824.487 
  1137.2,822.274 1136.71,820.14 1136.23,818.088 1135.76,816.115 1135.28,814.223 1134.8,812.411 1134.33,810.68 1133.86,809.03 1133.39,807.46 1132.92,805.972 
  1132.46,804.565 1131.99,803.239 1131.53,801.995 1131.07,800.832 1130.61,799.75 1130.15,798.75 1129.7,797.831 1129.24,796.994 1128.79,796.238 1128.35,795.565 
  1127.9,794.972 1127.45,794.462 1127.01,794.033 1126.57,793.686 1126.13,793.42 1125.7,793.236 1125.26,793.133 1124.83,793.112 1124.4,793.172 1123.98,793.314 
  1123.55,793.537 1123.13,793.841 1122.71,794.226 1122.29,794.692 1121.87,795.24 1121.46,795.867 1121.05,796.576 1120.64,797.365 1120.24,798.234 1119.83,799.184 
  1119.43,800.214 1119.03,801.323 1118.64,802.513 1118.25,803.781 1117.85,805.13 1117.47,806.557 1117.08,808.063 1116.7,809.648 1116.32,811.312 1115.94,813.053 
  1115.56,814.873 1115.19,816.771 1114.82,818.746 1114.45,820.798 1114.09,822.928 1113.73,825.134 1113.37,827.416 1113.01,829.775 1112.66,832.21 1112.31,834.72 
  1111.96,837.305 1111.61,839.966 1111.27,842.701 1110.93,845.51 1110.6,848.393 1110.26,851.35 1109.93,854.38 1109.6,857.483 1109.28,860.658 1108.95,863.906 
  1108.63,867.225 1108.32,870.616 1108,874.078 1107.69,877.61 1107.38,881.213 1107.08,884.885 1106.77,888.627 1106.48,892.438 1106.18,896.317 1105.88,900.265 
  1105.59,904.28 1105.31,908.363 1105.02,912.512 1104.74,916.728 1104.46,921.01 1104.18,925.357 1103.91,929.769 1103.49,929.144 1102.97,924.878 1102.45,920.684 
  1101.93,916.564 1101.42,912.517 1100.9,908.543 1100.39,904.643 1099.88,900.818 1099.37,897.067 1098.86,893.392 1098.36,889.791 1097.85,886.266 1097.35,882.817 
  1096.85,879.445 1096.36,876.148 1095.86,872.929 1095.37,869.786 1094.88,866.721 1094.39,863.734 1093.9,860.824 1093.41,857.993 1092.93,855.239 1092.45,852.565 
  1091.97,849.969 1091.5,847.452 1091.02,845.014 1090.55,842.655 1090.08,840.376 1089.62,838.177 1089.15,836.058 1088.69,834.019 1088.23,832.06 1087.78,830.182 
  1087.32,828.384 1086.87,826.666 1086.42,825.03 1085.98,823.474 1085.53,822 1085.09,820.606 1084.65,819.294 1084.22,818.062 1083.79,816.913 1083.36,815.844 
  1082.93,814.857 1082.51,813.951 1082.08,813.127 1081.67,812.385 1081.25,811.724 1080.84,811.145 1080.43,810.647 1080.02,810.23 1079.62,809.896 1079.21,809.642 
  1078.82,809.471 1078.42,809.38 1078.03,809.371 1077.64,809.444 1077.25,809.597 1076.87,809.832 1076.49,810.148 1076.11,810.545 1075.74,811.022 1075.37,811.581 
  1075,812.22 1074.64,812.94 1074.28,813.74 1073.92,814.62 1073.57,815.581 1073.21,816.621 1072.87,817.741 1072.52,818.941 1072.18,820.22 1071.84,821.578 
  1071.51,823.016 1071.18,824.532 1070.85,826.127 1070.52,827.8 1070.2,829.551 1069.88,831.38 1069.57,833.286 1069.26,835.271 1068.95,837.332 1068.64,839.47 
  1068.34,841.684 1068.05,843.975 1067.75,846.342 1067.46,848.785 1067.17,851.303 1066.89,853.896 1066.61,856.563 1066.33,859.306 1066.06,862.122 1065.79,865.012 
  1065.52,867.975 1065.26,871.012 1065,874.121 1064.74,877.303 1064.49,880.556 1064.24,883.881 1063.99,887.277 1063.75,890.745 1063.51,894.282 1063.28,897.89 
  1063.05,901.567 1062.82,905.313 1062.59,909.128 1062.37,913.012 1062.15,916.963 1061.94,920.982 1061.73,925.068 1061.52,929.221 1061.06,926.662 1060.54,922.677 
  1060.03,918.767 1059.52,914.93 1059.01,911.169 1058.5,907.482 1057.99,903.87 1057.49,900.334 1056.99,896.873 1056.5,893.489 1056,890.181 1055.51,886.95 
  1055.02,883.796 1054.54,880.719 1054.06,877.719 1053.58,874.797 1053.1,871.954 1052.63,869.188 1052.16,866.501 1051.69,863.893 1051.22,861.363 1050.76,858.913 
  1050.3,856.542 1049.85,854.25 1049.4,852.038 1048.95,849.906 1048.5,847.854 1048.06,845.883 1047.62,843.991 1047.18,842.18 1046.75,840.449 1046.32,838.8 
  1045.89,837.231 1045.47,835.742 1045.05,834.335 1044.63,833.009 1044.22,831.765 1043.81,830.601 1043.4,829.519 1043,828.518 1042.6,827.599 1042.21,826.761 
  1041.81,826.004 1041.43,825.329 1041.04,824.736 1040.66,824.224 1040.28,823.793 1039.91,823.444 1039.54,823.176 1039.17,822.99 1038.81,822.885 1038.45,822.862 
  1038.09,822.92 1037.74,823.059 1037.39,823.279 1037.05,823.58 1036.71,823.962 1036.37,824.425 1036.04,824.968 1035.71,825.593 1035.38,826.297 1035.06,827.082 
  1034.75,827.948 1034.43,828.893 1034.12,829.918 1033.82,831.023 1033.51,832.207 1033.22,833.471 1032.92,834.814 1032.63,836.236 1032.35,837.736 1032.06,839.316 
  1031.79,840.973 1031.51,842.709 1031.24,844.522 1030.97,846.413 1030.71,848.381 1030.45,850.427 1030.2,852.549 1029.95,854.747 1029.7,857.022 1029.46,859.373 
  1029.22,861.8 1028.99,864.302 1028.76,866.878 1028.53,869.53 1028.31,872.256 1028.09,875.056 1027.88,877.93 1027.67,880.877 1027.46,883.897 1027.26,886.99 
  1027.06,890.155 1026.87,893.392 1026.68,896.7 1026.49,900.08 1026.31,903.53 1026.13,907.051 1025.96,910.642 1025.79,914.302 1025.62,918.032 1025.46,921.83 
  1025.3,925.697 1025.15,929.631 1025,933.633 1024.85,937.702 1024.71,941.837 1024.57,946.039 1024.44,950.307 1024.3,954.639 1024.15,958.521 1023.62,954.242 
  1023.09,950.036 1022.57,945.902 1022.05,941.842 1021.53,937.855 1021.01,933.941 1020.5,930.102 1019.99,926.337 1019.48,922.647 1018.98,919.032 1018.48,915.492 
  1017.99,912.028 1017.49,908.64 1017,905.328 1016.52,902.093 1016.04,898.934 1015.56,895.853 1015.08,892.849 1014.61,889.923 1014.14,887.075 1013.68,884.304 
  1013.22,881.613 1012.76,878.999 1012.3,876.465 1011.85,874.009 1011.41,871.633 1010.97,869.336 1010.53,867.118 1010.09,864.98 1009.66,862.922 1009.24,860.944 
  1008.81,859.047 1008.39,857.229 1007.98,855.493 1007.57,853.836 1007.16,852.261 1006.76,850.766 1006.36,849.352 1005.96,848.019 1005.57,846.767 1005.19,845.596 
  1004.8,844.507 1004.43,843.498 1004.05,842.571 1003.68,841.726 1003.32,840.961 1002.95,840.278 1002.6,839.677 1002.24,839.156 1001.89,838.717 1001.55,838.36 
  1001.21,838.084 1000.87,837.889 1000.54,837.775 1000.22,837.743 999.894,837.791 999.575,837.921 999.262,838.132 998.952,838.424 998.647,838.796 998.347,839.249 
  998.051,839.783 997.759,840.397 997.472,841.092 997.189,841.867 996.911,842.722 996.638,843.656 996.368,844.671 996.104,845.765 995.844,846.939 995.588,848.192 
  995.337,849.523 995.091,850.934 994.849,852.423 994.612,853.991 994.379,855.637 994.151,857.361 993.927,859.163 993.708,861.042 993.493,862.998 993.283,865.031 
  993.078,867.141 992.877,869.327 992.681,871.589 992.49,873.928 992.302,876.341 992.12,878.83 991.942,881.394 991.769,884.033 991.6,886.745 991.436,889.532 
  991.276,892.392 991.121,895.326 990.971,898.332 990.825,901.411 990.683,904.562 990.546,907.785 990.414,911.079 990.286,914.444 990.163,917.88 990.044,921.387 
  989.93,924.963 989.82,928.608 989.715,932.323 989.614,936.106 989.518,939.957 989.426,943.877 989.338,947.863 989.255,951.916 989.177,956.036 988.967,957.741 
  988.444,953.697 987.924,949.727 987.408,945.831 986.896,942.008 986.388,938.26 985.884,934.587 985.383,930.989 984.887,927.466 984.394,924.019 983.905,920.648 
  983.421,917.353 982.94,914.135 982.464,910.993 981.991,907.929 981.523,904.941 981.059,902.032 980.599,899.2 980.143,896.446 979.692,893.771 979.245,891.174 
  978.802,888.656 978.364,886.217 977.929,883.857 977.5,881.576 977.074,879.375 976.654,877.253 976.237,875.211 975.825,873.249 975.418,871.368 975.015,869.566 
  974.617,867.845 974.223,866.205 973.834,864.645 973.45,863.166 973.07,861.767 972.695,860.45 972.324,859.213 971.959,858.058 971.598,856.983 971.242,855.99 
  970.89,855.078 970.544,854.247 970.202,853.498 969.865,852.829 969.533,852.242 969.205,851.737 968.883,851.312 968.565,850.969 968.253,850.707 967.945,850.526 
  967.642,850.426 967.344,850.408 967.051,850.47 966.763,850.614 966.48,850.838 966.202,851.143 965.929,851.528 965.661,851.995 965.398,852.541 965.14,853.169 
  964.887,853.876 964.639,854.663 964.396,855.531 964.159,856.478 963.926,857.504 963.698,858.61 963.475,859.796 963.258,861.06 963.045,862.404 962.838,863.826 
  962.636,865.326 962.438,866.905 962.246,868.562 962.059,870.296 961.877,872.108 961.7,873.998 961.528,875.964 961.361,878.007 961.199,880.127 961.043,882.323 
  960.891,884.595 960.744,886.942 960.603,889.365 960.466,891.863 960.335,894.436 960.209,897.083 960.087,899.804 959.971,902.598 959.86,905.467 959.753,908.408 
  
  "/>
<path clip-path="url(#clip150)" d="
M1789.51 198.898 L2278.07 198.898 L2278.07 95.2176 L1789.51 95.2176  Z
  " fill="#282a36" fill-rule="evenodd" fill-opacity="1"/>
<polyline clip-path="url(#clip150)" style="stroke:#f8f8f2; stroke-linecap:butt; stroke-linejoin:round; stroke-width:4; stroke-opacity:1; fill:none" points="
  1789.51,198.898 2278.07,198.898 2278.07,95.2176 1789.51,95.2176 1789.51,198.898 
  "/>
<polyline clip-path="url(#clip150)" style="stroke:#8be9fd; stroke-linecap:butt; stroke-linejoin:round; stroke-width:4; stroke-opacity:1; fill:none" points="
  1814.41,147.058 1963.78,147.058 
  "/>
<path clip-path="url(#clip150)" d="M1999.3 128.366 Q1996.2 133.69 1994.69 138.898 Q1993.19 144.106 1993.19 149.453 Q1993.19 154.801 1994.69 160.055 Q1996.22 165.287 1999.3 170.588 L1995.6 170.588 Q1992.12 165.148 1990.39 159.893 Q1988.67 154.639 1988.67 149.453 Q1988.67 144.291 1990.39 139.06 Q1992.1 133.828 1995.6 128.366 L1999.3 128.366 Z" fill="#f8f8f2" fill-rule="evenodd" fill-opacity="1" /><path clip-path="url(#clip150)" d="M2007.12 154.106 L2007.12 138.412 L2011.38 138.412 L2011.38 153.944 Q2011.38 157.625 2012.82 159.476 Q2014.25 161.305 2017.12 161.305 Q2020.57 161.305 2022.56 159.106 Q2024.58 156.907 2024.58 153.111 L2024.58 138.412 L2028.84 138.412 L2028.84 164.338 L2024.58 164.338 L2024.58 160.356 Q2023.03 162.717 2020.97 163.875 Q2018.93 165.009 2016.22 165.009 Q2011.75 165.009 2009.44 162.231 Q2007.12 159.453 2007.12 154.106 M2017.84 137.787 L2017.84 137.787 Z" fill="#f8f8f2" fill-rule="evenodd" fill-opacity="1" /><path clip-path="url(#clip150)" d="M2039.02 160.402 L2046.66 160.402 L2046.66 134.037 L2038.35 135.703 L2038.35 131.444 L2046.61 129.778 L2051.29 129.778 L2051.29 160.402 L2058.93 160.402 L2058.93 164.338 L2039.02 164.338 L2039.02 160.402 Z" fill="#f8f8f2" fill-rule="evenodd" fill-opacity="1" /><path clip-path="url(#clip150)" d="M2068.86 158.458 L2073.74 158.458 L2073.74 162.439 L2069.95 169.847 L2066.96 169.847 L2068.86 162.439 L2068.86 158.458 Z" fill="#f8f8f2" fill-rule="evenodd" fill-opacity="1" /><path clip-path="url(#clip150)" d="M2082.4 154.106 L2082.4 138.412 L2086.66 138.412 L2086.66 153.944 Q2086.66 157.625 2088.09 159.476 Q2089.53 161.305 2092.4 161.305 Q2095.85 161.305 2097.84 159.106 Q2099.85 156.907 2099.85 153.111 L2099.85 138.412 L2104.11 138.412 L2104.11 164.338 L2099.85 164.338 L2099.85 160.356 Q2098.3 162.717 2096.24 163.875 Q2094.21 165.009 2091.5 165.009 Q2087.03 165.009 2084.72 162.231 Q2082.4 159.453 2082.4 154.106 M2093.12 137.787 L2093.12 137.787 Z" fill="#f8f8f2" fill-rule="evenodd" fill-opacity="1" /><path clip-path="url(#clip150)" d="M2117.52 160.402 L2133.84 160.402 L2133.84 164.338 L2111.89 164.338 L2111.89 160.402 Q2114.55 157.648 2119.14 153.018 Q2123.74 148.365 2124.92 147.023 Q2127.17 144.5 2128.05 142.764 Q2128.95 141.004 2128.95 139.315 Q2128.95 136.56 2127.01 134.824 Q2125.09 133.088 2121.98 133.088 Q2119.78 133.088 2117.33 133.852 Q2114.9 134.615 2112.12 136.166 L2112.12 131.444 Q2114.95 130.31 2117.4 129.731 Q2119.85 129.153 2121.89 129.153 Q2127.26 129.153 2130.46 131.838 Q2133.65 134.523 2133.65 139.014 Q2133.65 141.143 2132.84 143.065 Q2132.05 144.963 2129.95 147.555 Q2129.37 148.227 2126.27 151.444 Q2123.16 154.639 2117.52 160.402 Z" fill="#f8f8f2" fill-rule="evenodd" fill-opacity="1" /><path clip-path="url(#clip150)" d="M2144.14 158.458 L2149.02 158.458 L2149.02 162.439 L2145.22 169.847 L2142.24 169.847 L2144.14 162.439 L2144.14 158.458 Z" fill="#f8f8f2" fill-rule="evenodd" fill-opacity="1" /><path clip-path="url(#clip150)" d="M2157.68 154.106 L2157.68 138.412 L2161.94 138.412 L2161.94 153.944 Q2161.94 157.625 2163.37 159.476 Q2164.81 161.305 2167.68 161.305 Q2171.13 161.305 2173.12 159.106 Q2175.13 156.907 2175.13 153.111 L2175.13 138.412 L2179.39 138.412 L2179.39 164.338 L2175.13 164.338 L2175.13 160.356 Q2173.58 162.717 2171.52 163.875 Q2169.48 165.009 2166.78 165.009 Q2162.31 165.009 2159.99 162.231 Q2157.68 159.453 2157.68 154.106 M2168.4 137.787 L2168.4 137.787 Z" fill="#f8f8f2" fill-rule="evenodd" fill-opacity="1" /><path clip-path="url(#clip150)" d="M2202.93 145.703 Q2206.29 146.421 2208.16 148.689 Q2210.06 150.958 2210.06 154.291 Q2210.06 159.407 2206.54 162.208 Q2203.02 165.009 2196.54 165.009 Q2194.37 165.009 2192.05 164.569 Q2189.76 164.152 2187.31 163.296 L2187.31 158.782 Q2189.25 159.916 2191.57 160.495 Q2193.88 161.074 2196.4 161.074 Q2200.8 161.074 2203.09 159.338 Q2205.41 157.601 2205.41 154.291 Q2205.41 151.236 2203.26 149.523 Q2201.13 147.787 2197.31 147.787 L2193.28 147.787 L2193.28 143.944 L2197.49 143.944 Q2200.94 143.944 2202.77 142.578 Q2204.6 141.19 2204.6 138.597 Q2204.6 135.935 2202.7 134.523 Q2200.83 133.088 2197.31 133.088 Q2195.39 133.088 2193.19 133.504 Q2190.99 133.921 2188.35 134.801 L2188.35 130.634 Q2191.01 129.893 2193.33 129.523 Q2195.66 129.153 2197.72 129.153 Q2203.05 129.153 2206.15 131.583 Q2209.25 133.99 2209.25 138.111 Q2209.25 140.981 2207.61 142.972 Q2205.96 144.94 2202.93 145.703 Z" fill="#f8f8f2" fill-rule="evenodd" fill-opacity="1" /><path clip-path="url(#clip150)" d="M2217.65 128.366 L2221.36 128.366 Q2224.83 133.828 2226.54 139.06 Q2228.28 144.291 2228.28 149.453 Q2228.28 154.639 2226.54 159.893 Q2224.83 165.148 2221.36 170.588 L2217.65 170.588 Q2220.73 165.287 2222.24 160.055 Q2223.77 154.801 2223.77 149.453 Q2223.77 144.106 2222.24 138.898 Q2220.73 133.69 2217.65 128.366 Z" fill="#f8f8f2" fill-rule="evenodd" fill-opacity="1" /></svg>
