<?xml version="1.0" encoding="utf-8"?>
<svg xmlns="http://www.w3.org/2000/svg" xmlns:xlink="http://www.w3.org/1999/xlink" width="600" height="400" viewBox="0 0 2400 1600">
<defs>
  <clipPath id="clip160">
    <rect x="0" y="0" width="2400" height="1600"/>
  </clipPath>
</defs>
<path clip-path="url(#clip160)" d="
M0 1600 L2400 1600 L2400 0 L0 0  Z
  " fill="#282a36" fill-rule="evenodd" fill-opacity="1"/>
<defs>
  <clipPath id="clip161">
    <rect x="480" y="0" width="1681" height="1600"/>
  </clipPath>
</defs>
<defs>
  <clipPath id="clip162">
    <rect x="147" y="47" width="2206" height="1440"/>
  </clipPath>
</defs>
<path clip-path="url(#clip162)" d="
M-399.354 1496.1 L-419.075 1383.77 L-312.429 1344.59 L-161.107 1365.01 L-177.405 1470.35 L-247.968 1540.06 L-399.354 1496.1  Z
  " fill="#30343b" fill-rule="evenodd" fill-opacity="1"/>
<polyline clip-path="url(#clip162)" style="stroke:#f8f8f2; stroke-linecap:butt; stroke-linejoin:round; stroke-width:2; stroke-opacity:0.1; fill:none" points="
  729.784,1182 1144.57,829.153 
  "/>
<polyline clip-path="url(#clip162)" style="stroke:#f8f8f2; stroke-linecap:butt; stroke-linejoin:round; stroke-width:2; stroke-opacity:0.1; fill:none" points="
  1144.57,829.153 1130.22,205.3 
  "/>
<polyline clip-path="url(#clip162)" style="stroke:#f8f8f2; stroke-linecap:butt; stroke-linejoin:round; stroke-width:2; stroke-opacity:0.1; fill:none" points="
  866.579,1237.43 1265.79,866.283 
  "/>
<polyline clip-path="url(#clip162)" style="stroke:#f8f8f2; stroke-linecap:butt; stroke-linejoin:round; stroke-width:2; stroke-opacity:0.1; fill:none" points="
  1265.79,866.283 1267.98,231.244 
  "/>
<polyline clip-path="url(#clip162)" style="stroke:#f8f8f2; stroke-linecap:butt; stroke-linejoin:round; stroke-width:2; stroke-opacity:0.1; fill:none" points="
  1011.31,1296.08 1392.73,905.163 
  "/>
<polyline clip-path="url(#clip162)" style="stroke:#f8f8f2; stroke-linecap:butt; stroke-linejoin:round; stroke-width:2; stroke-opacity:0.1; fill:none" points="
  1392.73,905.163 1413.16,258.586 
  "/>
<polyline clip-path="url(#clip162)" style="stroke:#f8f8f2; stroke-linecap:butt; stroke-linejoin:round; stroke-width:2; stroke-opacity:0.1; fill:none" points="
  1164.7,1358.24 1525.79,945.919 
  "/>
<polyline clip-path="url(#clip162)" style="stroke:#f8f8f2; stroke-linecap:butt; stroke-linejoin:round; stroke-width:2; stroke-opacity:0.1; fill:none" points="
  1525.79,945.919 1566.38,287.442 
  "/>
<polyline clip-path="url(#clip162)" style="stroke:#f8f8f2; stroke-linecap:butt; stroke-linejoin:round; stroke-width:2; stroke-opacity:0.1; fill:none" points="
  1327.53,1424.22 1665.44,988.691 
  "/>
<polyline clip-path="url(#clip162)" style="stroke:#f8f8f2; stroke-linecap:butt; stroke-linejoin:round; stroke-width:2; stroke-opacity:0.1; fill:none" points="
  1665.44,988.691 1728.33,317.941 
  "/>
<polyline clip-path="url(#clip160)" style="stroke:#f8f8f2; stroke-linecap:butt; stroke-linejoin:round; stroke-width:4; stroke-opacity:1; fill:none" points="
  716.516,1176.62 1413.7,1459.14 
  "/>
<polyline clip-path="url(#clip160)" style="stroke:#f8f8f2; stroke-linecap:butt; stroke-linejoin:round; stroke-width:4; stroke-opacity:1; fill:none" points="
  729.784,1182 735.834,1176.85 
  "/>
<polyline clip-path="url(#clip160)" style="stroke:#f8f8f2; stroke-linecap:butt; stroke-linejoin:round; stroke-width:4; stroke-opacity:1; fill:none" points="
  866.579,1237.43 872.431,1231.99 
  "/>
<polyline clip-path="url(#clip160)" style="stroke:#f8f8f2; stroke-linecap:butt; stroke-linejoin:round; stroke-width:4; stroke-opacity:1; fill:none" points="
  1011.31,1296.08 1016.93,1290.32 
  "/>
<polyline clip-path="url(#clip160)" style="stroke:#f8f8f2; stroke-linecap:butt; stroke-linejoin:round; stroke-width:4; stroke-opacity:1; fill:none" points="
  1164.7,1358.24 1170.05,1352.13 
  "/>
<polyline clip-path="url(#clip160)" style="stroke:#f8f8f2; stroke-linecap:butt; stroke-linejoin:round; stroke-width:4; stroke-opacity:1; fill:none" points="
  1327.53,1424.22 1332.57,1417.73 
  "/>
<path clip-path="url(#clip160)" d="M705.434 1223 L721.753 1223 L721.753 1226.94 L699.809 1226.94 L699.809 1223 Q702.471 1220.25 707.054 1215.62 Q711.661 1210.97 712.841 1209.62 Q715.086 1207.1 715.966 1205.36 Q716.869 1203.61 716.869 1201.92 Q716.869 1199.16 714.924 1197.43 Q713.003 1195.69 709.901 1195.69 Q707.702 1195.69 705.249 1196.45 Q702.818 1197.22 700.04 1198.77 L700.04 1194.05 Q702.864 1192.91 705.318 1192.33 Q707.772 1191.75 709.809 1191.75 Q715.179 1191.75 718.373 1194.44 Q721.568 1197.12 721.568 1201.61 Q721.568 1203.74 720.758 1205.67 Q719.971 1207.56 717.864 1210.16 Q717.286 1210.83 714.184 1214.05 Q711.082 1217.24 705.434 1223 Z" fill="#f8f8f2" fill-rule="evenodd" fill-opacity="1" /><path clip-path="url(#clip160)" d="M848.965 1251.89 L837.16 1270.33 L848.965 1270.33 L848.965 1251.89 M847.738 1247.81 L853.618 1247.81 L853.618 1270.33 L858.548 1270.33 L858.548 1274.22 L853.618 1274.22 L853.618 1282.37 L848.965 1282.37 L848.965 1274.22 L833.363 1274.22 L833.363 1269.71 L847.738 1247.81 Z" fill="#f8f8f2" fill-rule="evenodd" fill-opacity="1" /><path clip-path="url(#clip160)" d="M991.755 1321.88 Q988.607 1321.88 986.755 1324.03 Q984.926 1326.18 984.926 1329.93 Q984.926 1333.66 986.755 1335.84 Q988.607 1337.99 991.755 1337.99 Q994.903 1337.99 996.732 1335.84 Q998.584 1333.66 998.584 1329.93 Q998.584 1326.18 996.732 1324.03 Q994.903 1321.88 991.755 1321.88 M1001.04 1307.23 L1001.04 1311.48 Q999.278 1310.65 997.473 1310.21 Q995.69 1309.77 993.931 1309.77 Q989.301 1309.77 986.848 1312.9 Q984.417 1316.02 984.07 1322.34 Q985.436 1320.33 987.496 1319.26 Q989.556 1318.17 992.033 1318.17 Q997.241 1318.17 1000.25 1321.35 Q1003.28 1324.49 1003.28 1329.93 Q1003.28 1335.26 1000.13 1338.48 Q996.987 1341.69 991.755 1341.69 Q985.76 1341.69 982.588 1337.11 Q979.417 1332.5 979.417 1323.78 Q979.417 1315.58 983.306 1310.72 Q987.195 1305.84 993.746 1305.84 Q995.505 1305.84 997.287 1306.18 Q999.093 1306.53 1001.04 1307.23 Z" fill="#f8f8f2" fill-rule="evenodd" fill-opacity="1" /><path clip-path="url(#clip160)" d="M1144.82 1386.77 Q1141.48 1386.77 1139.56 1388.55 Q1137.66 1390.33 1137.66 1393.45 Q1137.66 1396.58 1139.56 1398.36 Q1141.48 1400.14 1144.82 1400.14 Q1148.15 1400.14 1150.07 1398.36 Q1151.99 1396.56 1151.99 1393.45 Q1151.99 1390.33 1150.07 1388.55 Q1148.17 1386.77 1144.82 1386.77 M1140.14 1384.77 Q1137.13 1384.03 1135.44 1381.97 Q1133.77 1379.91 1133.77 1376.95 Q1133.77 1372.81 1136.71 1370.4 Q1139.68 1367.99 1144.82 1367.99 Q1149.98 1367.99 1152.92 1370.4 Q1155.86 1372.81 1155.86 1376.95 Q1155.86 1379.91 1154.17 1381.97 Q1152.5 1384.03 1149.52 1384.77 Q1152.9 1385.56 1154.77 1387.85 Q1156.67 1390.14 1156.67 1393.45 Q1156.67 1398.48 1153.59 1401.16 Q1150.53 1403.85 1144.82 1403.85 Q1139.1 1403.85 1136.02 1401.16 Q1132.96 1398.48 1132.96 1393.45 Q1132.96 1390.14 1134.86 1387.85 Q1136.76 1385.56 1140.14 1384.77 M1138.43 1377.39 Q1138.43 1380.08 1140.09 1381.58 Q1141.78 1383.08 1144.82 1383.08 Q1147.83 1383.08 1149.52 1381.58 Q1151.23 1380.08 1151.23 1377.39 Q1151.23 1374.71 1149.52 1373.2 Q1147.83 1371.7 1144.82 1371.7 Q1141.78 1371.7 1140.09 1373.2 Q1138.43 1374.71 1138.43 1377.39 Z" fill="#f8f8f2" fill-rule="evenodd" fill-opacity="1" /><path clip-path="url(#clip160)" d="M1268.21 1465.23 L1275.85 1465.23 L1275.85 1438.86 L1267.54 1440.53 L1267.54 1436.27 L1275.8 1434.6 L1280.48 1434.6 L1280.48 1465.23 L1288.12 1465.23 L1288.12 1469.16 L1268.21 1469.16 L1268.21 1465.23 Z" fill="#f8f8f2" fill-rule="evenodd" fill-opacity="1" /><path clip-path="url(#clip160)" d="M1307.56 1437.68 Q1303.95 1437.68 1302.12 1441.25 Q1300.31 1444.79 1300.31 1451.92 Q1300.31 1459.02 1302.12 1462.59 Q1303.95 1466.13 1307.56 1466.13 Q1311.19 1466.13 1313 1462.59 Q1314.83 1459.02 1314.83 1451.92 Q1314.83 1444.79 1313 1441.25 Q1311.19 1437.68 1307.56 1437.68 M1307.56 1433.98 Q1313.37 1433.98 1316.43 1438.58 Q1319.5 1443.17 1319.5 1451.92 Q1319.5 1460.64 1316.43 1465.25 Q1313.37 1469.83 1307.56 1469.83 Q1301.75 1469.83 1298.67 1465.25 Q1295.62 1460.64 1295.62 1451.92 Q1295.62 1443.17 1298.67 1438.58 Q1301.75 1433.98 1307.56 1433.98 Z" fill="#f8f8f2" fill-rule="evenodd" fill-opacity="1" /><polyline clip-path="url(#clip162)" style="stroke:#f8f8f2; stroke-linecap:butt; stroke-linejoin:round; stroke-width:2; stroke-opacity:0.1; fill:none" points="
  1428.82,1438.29 735.42,1160.68 
  "/>
<polyline clip-path="url(#clip162)" style="stroke:#f8f8f2; stroke-linecap:butt; stroke-linejoin:round; stroke-width:2; stroke-opacity:0.1; fill:none" points="
  735.42,1160.68 648.647,442.862 
  "/>
<polyline clip-path="url(#clip162)" style="stroke:#f8f8f2; stroke-linecap:butt; stroke-linejoin:round; stroke-width:2; stroke-opacity:0.1; fill:none" points="
  1502.78,1336.33 828.514,1082.15 
  "/>
<polyline clip-path="url(#clip162)" style="stroke:#f8f8f2; stroke-linecap:butt; stroke-linejoin:round; stroke-width:2; stroke-opacity:0.1; fill:none" points="
  828.514,1082.15 760.768,385.367 
  "/>
<polyline clip-path="url(#clip162)" style="stroke:#f8f8f2; stroke-linecap:butt; stroke-linejoin:round; stroke-width:2; stroke-opacity:0.1; fill:none" points="
  1570.25,1243.32 914.381,1009.72 
  "/>
<polyline clip-path="url(#clip162)" style="stroke:#f8f8f2; stroke-linecap:butt; stroke-linejoin:round; stroke-width:2; stroke-opacity:0.1; fill:none" points="
  914.381,1009.72 862.848,333.021 
  "/>
<polyline clip-path="url(#clip162)" style="stroke:#f8f8f2; stroke-linecap:butt; stroke-linejoin:round; stroke-width:2; stroke-opacity:0.1; fill:none" points="
  1632.04,1158.12 993.83,942.708 
  "/>
<polyline clip-path="url(#clip162)" style="stroke:#f8f8f2; stroke-linecap:butt; stroke-linejoin:round; stroke-width:2; stroke-opacity:0.1; fill:none" points="
  993.83,942.708 956.178,285.161 
  "/>
<polyline clip-path="url(#clip162)" style="stroke:#f8f8f2; stroke-linecap:butt; stroke-linejoin:round; stroke-width:2; stroke-opacity:0.1; fill:none" points="
  1688.85,1079.8 1067.56,880.52 
  "/>
<polyline clip-path="url(#clip162)" style="stroke:#f8f8f2; stroke-linecap:butt; stroke-linejoin:round; stroke-width:2; stroke-opacity:0.1; fill:none" points="
  1067.56,880.52 1041.84,241.235 
  "/>
<polyline clip-path="url(#clip160)" style="stroke:#f8f8f2; stroke-linecap:butt; stroke-linejoin:round; stroke-width:4; stroke-opacity:1; fill:none" points="
  1413.7,1459.14 1738.67,1011.12 
  "/>
<polyline clip-path="url(#clip160)" style="stroke:#f8f8f2; stroke-linecap:butt; stroke-linejoin:round; stroke-width:4; stroke-opacity:1; fill:none" points="
  1428.82,1438.29 1419.33,1434.49 
  "/>
<polyline clip-path="url(#clip160)" style="stroke:#f8f8f2; stroke-linecap:butt; stroke-linejoin:round; stroke-width:4; stroke-opacity:1; fill:none" points="
  1502.78,1336.33 1493.6,1332.87 
  "/>
<polyline clip-path="url(#clip160)" style="stroke:#f8f8f2; stroke-linecap:butt; stroke-linejoin:round; stroke-width:4; stroke-opacity:1; fill:none" points="
  1570.25,1243.32 1561.37,1240.15 
  "/>
<polyline clip-path="url(#clip160)" style="stroke:#f8f8f2; stroke-linecap:butt; stroke-linejoin:round; stroke-width:4; stroke-opacity:1; fill:none" points="
  1632.04,1158.12 1623.44,1155.22 
  "/>
<polyline clip-path="url(#clip160)" style="stroke:#f8f8f2; stroke-linecap:butt; stroke-linejoin:round; stroke-width:4; stroke-opacity:1; fill:none" points="
  1688.85,1079.8 1680.52,1077.12 
  "/>
<path clip-path="url(#clip160)" d="M1461.01 1444.58 Q1457.4 1444.58 1455.57 1448.14 Q1453.76 1451.69 1453.76 1458.82 Q1453.76 1465.92 1455.57 1469.49 Q1457.4 1473.03 1461.01 1473.03 Q1464.64 1473.03 1466.45 1469.49 Q1468.28 1465.92 1468.28 1458.82 Q1468.28 1451.69 1466.45 1448.14 Q1464.64 1444.58 1461.01 1444.58 M1461.01 1440.88 Q1466.82 1440.88 1469.87 1445.48 Q1472.95 1450.07 1472.95 1458.82 Q1472.95 1467.54 1469.87 1472.15 Q1466.82 1476.73 1461.01 1476.73 Q1455.2 1476.73 1452.12 1472.15 Q1449.06 1467.54 1449.06 1458.82 Q1449.06 1450.07 1452.12 1445.48 Q1455.2 1440.88 1461.01 1440.88 Z" fill="#f8f8f2" fill-rule="evenodd" fill-opacity="1" /><path clip-path="url(#clip160)" d="M1481.17 1470.18 L1486.05 1470.18 L1486.05 1476.06 L1481.17 1476.06 L1481.17 1470.18 Z" fill="#f8f8f2" fill-rule="evenodd" fill-opacity="1" /><path clip-path="url(#clip160)" d="M1506.24 1444.58 Q1502.63 1444.58 1500.8 1448.14 Q1498.99 1451.69 1498.99 1458.82 Q1498.99 1465.92 1500.8 1469.49 Q1502.63 1473.03 1506.24 1473.03 Q1509.87 1473.03 1511.68 1469.49 Q1513.51 1465.92 1513.51 1458.82 Q1513.51 1451.69 1511.68 1448.14 Q1509.87 1444.58 1506.24 1444.58 M1506.24 1440.88 Q1512.05 1440.88 1515.1 1445.48 Q1518.18 1450.07 1518.18 1458.82 Q1518.18 1467.54 1515.1 1472.15 Q1512.05 1476.73 1506.24 1476.73 Q1500.43 1476.73 1497.35 1472.15 Q1494.29 1467.54 1494.29 1458.82 Q1494.29 1450.07 1497.35 1445.48 Q1500.43 1440.88 1506.24 1440.88 Z" fill="#f8f8f2" fill-rule="evenodd" fill-opacity="1" /><path clip-path="url(#clip160)" d="M1528.65 1370.16 L1544.96 1370.16 L1544.96 1374.1 L1523.02 1374.1 L1523.02 1370.16 Q1525.68 1367.41 1530.27 1362.78 Q1534.87 1358.13 1536.05 1356.78 Q1538.3 1354.26 1539.18 1352.53 Q1540.08 1350.77 1540.08 1349.08 Q1540.08 1346.32 1538.14 1344.59 Q1536.21 1342.85 1533.11 1342.85 Q1530.91 1342.85 1528.46 1343.61 Q1526.03 1344.38 1523.25 1345.93 L1523.25 1341.21 Q1526.08 1340.07 1528.53 1339.49 Q1530.98 1338.91 1533.02 1338.91 Q1538.39 1338.91 1541.58 1341.6 Q1544.78 1344.28 1544.78 1348.78 Q1544.78 1350.9 1543.97 1352.83 Q1543.18 1354.72 1541.08 1357.32 Q1540.5 1357.99 1537.4 1361.21 Q1534.29 1364.4 1528.65 1370.16 Z" fill="#f8f8f2" fill-rule="evenodd" fill-opacity="1" /><path clip-path="url(#clip160)" d="M1554.78 1368.22 L1559.66 1368.22 L1559.66 1374.1 L1554.78 1374.1 L1554.78 1368.22 Z" fill="#f8f8f2" fill-rule="evenodd" fill-opacity="1" /><path clip-path="url(#clip160)" d="M1569.89 1339.54 L1588.25 1339.54 L1588.25 1343.47 L1574.18 1343.47 L1574.18 1351.95 Q1575.2 1351.6 1576.21 1351.44 Q1577.23 1351.25 1578.25 1351.25 Q1584.04 1351.25 1587.42 1354.42 Q1590.8 1357.59 1590.8 1363.01 Q1590.8 1368.59 1587.33 1371.69 Q1583.85 1374.77 1577.53 1374.77 Q1575.36 1374.77 1573.09 1374.4 Q1570.84 1374.03 1568.44 1373.29 L1568.44 1368.59 Q1570.52 1369.72 1572.74 1370.28 Q1574.96 1370.84 1577.44 1370.84 Q1581.45 1370.84 1583.78 1368.73 Q1586.12 1366.62 1586.12 1363.01 Q1586.12 1359.4 1583.78 1357.29 Q1581.45 1355.19 1577.44 1355.19 Q1575.57 1355.19 1573.69 1355.6 Q1571.84 1356.02 1569.89 1356.9 L1569.89 1339.54 Z" fill="#f8f8f2" fill-rule="evenodd" fill-opacity="1" /><path clip-path="url(#clip160)" d="M1591.95 1246.52 L1610.3 1246.52 L1610.3 1250.46 L1596.23 1250.46 L1596.23 1258.93 Q1597.25 1258.58 1598.27 1258.42 Q1599.28 1258.24 1600.3 1258.24 Q1606.09 1258.24 1609.47 1261.41 Q1612.85 1264.58 1612.85 1270 Q1612.85 1275.57 1609.38 1278.68 Q1605.9 1281.76 1599.58 1281.76 Q1597.41 1281.76 1595.14 1281.39 Q1592.9 1281.01 1590.49 1280.27 L1590.49 1275.57 Q1592.57 1276.71 1594.79 1277.26 Q1597.02 1277.82 1599.49 1277.82 Q1603.5 1277.82 1605.83 1275.71 Q1608.17 1273.61 1608.17 1270 Q1608.17 1266.39 1605.83 1264.28 Q1603.5 1262.17 1599.49 1262.17 Q1597.62 1262.17 1595.74 1262.59 Q1593.89 1263.01 1591.95 1263.89 L1591.95 1246.52 Z" fill="#f8f8f2" fill-rule="evenodd" fill-opacity="1" /><path clip-path="url(#clip160)" d="M1622.06 1275.2 L1626.95 1275.2 L1626.95 1281.08 L1622.06 1281.08 L1622.06 1275.2 Z" fill="#f8f8f2" fill-rule="evenodd" fill-opacity="1" /><path clip-path="url(#clip160)" d="M1647.13 1249.6 Q1643.52 1249.6 1641.69 1253.17 Q1639.89 1256.71 1639.89 1263.84 Q1639.89 1270.95 1641.69 1274.51 Q1643.52 1278.05 1647.13 1278.05 Q1650.77 1278.05 1652.57 1274.51 Q1654.4 1270.95 1654.4 1263.84 Q1654.4 1256.71 1652.57 1253.17 Q1650.77 1249.6 1647.13 1249.6 M1647.13 1245.9 Q1652.94 1245.9 1656 1250.51 Q1659.08 1255.09 1659.08 1263.84 Q1659.08 1272.57 1656 1277.17 Q1652.94 1281.76 1647.13 1281.76 Q1641.32 1281.76 1638.24 1277.17 Q1635.19 1272.57 1635.19 1263.84 Q1635.19 1255.09 1638.24 1250.51 Q1641.32 1245.9 1647.13 1245.9 Z" fill="#f8f8f2" fill-rule="evenodd" fill-opacity="1" /><path clip-path="url(#clip160)" d="M1652.28 1161.33 L1674.51 1161.33 L1674.51 1163.32 L1661.96 1195.89 L1657.08 1195.89 L1668.88 1165.26 L1652.28 1165.26 L1652.28 1161.33 Z" fill="#f8f8f2" fill-rule="evenodd" fill-opacity="1" /><path clip-path="url(#clip160)" d="M1683.63 1190.01 L1688.51 1190.01 L1688.51 1195.89 L1683.63 1195.89 L1683.63 1190.01 Z" fill="#f8f8f2" fill-rule="evenodd" fill-opacity="1" /><path clip-path="url(#clip160)" d="M1698.74 1161.33 L1717.1 1161.33 L1717.1 1165.26 L1703.02 1165.26 L1703.02 1173.74 Q1704.04 1173.39 1705.06 1173.23 Q1706.08 1173.04 1707.1 1173.04 Q1712.89 1173.04 1716.26 1176.21 Q1719.64 1179.38 1719.64 1184.8 Q1719.64 1190.38 1716.17 1193.48 Q1712.7 1196.56 1706.38 1196.56 Q1704.2 1196.56 1701.94 1196.19 Q1699.69 1195.82 1697.28 1195.08 L1697.28 1190.38 Q1699.37 1191.51 1701.59 1192.07 Q1703.81 1192.62 1706.29 1192.62 Q1710.29 1192.62 1712.63 1190.52 Q1714.97 1188.41 1714.97 1184.8 Q1714.97 1181.19 1712.63 1179.08 Q1710.29 1176.98 1706.29 1176.98 Q1704.41 1176.98 1702.54 1177.39 Q1700.69 1177.81 1698.74 1178.69 L1698.74 1161.33 Z" fill="#f8f8f2" fill-rule="evenodd" fill-opacity="1" /><path clip-path="url(#clip160)" d="M1709.77 1113.63 L1717.4 1113.63 L1717.4 1087.26 L1709.09 1088.93 L1709.09 1084.67 L1717.36 1083.01 L1722.03 1083.01 L1722.03 1113.63 L1729.67 1113.63 L1729.67 1117.57 L1709.77 1117.57 L1709.77 1113.63 Z" fill="#f8f8f2" fill-rule="evenodd" fill-opacity="1" /><path clip-path="url(#clip160)" d="M1749.12 1086.08 Q1745.51 1086.08 1743.68 1089.65 Q1741.87 1093.19 1741.87 1100.32 Q1741.87 1107.43 1743.68 1110.99 Q1745.51 1114.53 1749.12 1114.53 Q1752.75 1114.53 1754.56 1110.99 Q1756.39 1107.43 1756.39 1100.32 Q1756.39 1093.19 1754.56 1089.65 Q1752.75 1086.08 1749.12 1086.08 M1749.12 1082.38 Q1754.93 1082.38 1757.98 1086.99 Q1761.06 1091.57 1761.06 1100.32 Q1761.06 1109.05 1757.98 1113.65 Q1754.93 1118.24 1749.12 1118.24 Q1743.31 1118.24 1740.23 1113.65 Q1737.17 1109.05 1737.17 1100.32 Q1737.17 1091.57 1740.23 1086.99 Q1743.31 1082.38 1749.12 1082.38 Z" fill="#f8f8f2" fill-rule="evenodd" fill-opacity="1" /><path clip-path="url(#clip160)" d="M1769.28 1111.69 L1774.16 1111.69 L1774.16 1117.57 L1769.28 1117.57 L1769.28 1111.69 Z" fill="#f8f8f2" fill-rule="evenodd" fill-opacity="1" /><path clip-path="url(#clip160)" d="M1794.35 1086.08 Q1790.74 1086.08 1788.91 1089.65 Q1787.1 1093.19 1787.1 1100.32 Q1787.1 1107.43 1788.91 1110.99 Q1790.74 1114.53 1794.35 1114.53 Q1797.98 1114.53 1799.79 1110.99 Q1801.62 1107.43 1801.62 1100.32 Q1801.62 1093.19 1799.79 1089.65 Q1797.98 1086.08 1794.35 1086.08 M1794.35 1082.38 Q1800.16 1082.38 1803.21 1086.99 Q1806.29 1091.57 1806.29 1100.32 Q1806.29 1109.05 1803.21 1113.65 Q1800.16 1118.24 1794.35 1118.24 Q1788.54 1118.24 1785.46 1113.65 Q1782.4 1109.05 1782.4 1100.32 Q1782.4 1091.57 1785.46 1086.99 Q1788.54 1082.38 1794.35 1082.38 Z" fill="#f8f8f2" fill-rule="evenodd" fill-opacity="1" /><polyline clip-path="url(#clip162)" style="stroke:#f8f8f2; stroke-linecap:butt; stroke-linejoin:round; stroke-width:2; stroke-opacity:0.1; fill:none" points="
  714.897,1163.76 1132.45,814.102 
  "/>
<polyline clip-path="url(#clip162)" style="stroke:#f8f8f2; stroke-linecap:butt; stroke-linejoin:round; stroke-width:2; stroke-opacity:0.1; fill:none" points="
  1132.45,814.102 1740.02,998.886 
  "/>
<polyline clip-path="url(#clip162)" style="stroke:#f8f8f2; stroke-linecap:butt; stroke-linejoin:round; stroke-width:2; stroke-opacity:0.1; fill:none" points="
  702.229,1063.06 1130.18,725.068 
  "/>
<polyline clip-path="url(#clip162)" style="stroke:#f8f8f2; stroke-linecap:butt; stroke-linejoin:round; stroke-width:2; stroke-opacity:0.1; fill:none" points="
  1130.18,725.068 1750.62,903.327 
  "/>
<polyline clip-path="url(#clip162)" style="stroke:#f8f8f2; stroke-linecap:butt; stroke-linejoin:round; stroke-width:2; stroke-opacity:0.1; fill:none" points="
  688.947,957.469 1127.81,632.522 
  "/>
<polyline clip-path="url(#clip162)" style="stroke:#f8f8f2; stroke-linecap:butt; stroke-linejoin:round; stroke-width:2; stroke-opacity:0.1; fill:none" points="
  1127.81,632.522 1761.68,803.545 
  "/>
<polyline clip-path="url(#clip162)" style="stroke:#f8f8f2; stroke-linecap:butt; stroke-linejoin:round; stroke-width:2; stroke-opacity:0.1; fill:none" points="
  675.004,846.636 1125.35,536.253 
  "/>
<polyline clip-path="url(#clip162)" style="stroke:#f8f8f2; stroke-linecap:butt; stroke-linejoin:round; stroke-width:2; stroke-opacity:0.1; fill:none" points="
  1125.35,536.253 1773.24,699.253 
  "/>
<polyline clip-path="url(#clip162)" style="stroke:#f8f8f2; stroke-linecap:butt; stroke-linejoin:round; stroke-width:2; stroke-opacity:0.1; fill:none" points="
  660.352,730.155 1122.79,436.032 
  "/>
<polyline clip-path="url(#clip162)" style="stroke:#f8f8f2; stroke-linecap:butt; stroke-linejoin:round; stroke-width:2; stroke-opacity:0.1; fill:none" points="
  1122.79,436.032 1785.33,590.138 
  "/>
<polyline clip-path="url(#clip162)" style="stroke:#f8f8f2; stroke-linecap:butt; stroke-linejoin:round; stroke-width:2; stroke-opacity:0.1; fill:none" points="
  644.933,607.583 1120.12,331.609 
  "/>
<polyline clip-path="url(#clip162)" style="stroke:#f8f8f2; stroke-linecap:butt; stroke-linejoin:round; stroke-width:2; stroke-opacity:0.1; fill:none" points="
  1120.12,331.609 1798,475.857 
  "/>
<polyline clip-path="url(#clip162)" style="stroke:#f8f8f2; stroke-linecap:butt; stroke-linejoin:round; stroke-width:2; stroke-opacity:0.1; fill:none" points="
  628.686,478.431 1117.34,222.716 
  "/>
<polyline clip-path="url(#clip162)" style="stroke:#f8f8f2; stroke-linecap:butt; stroke-linejoin:round; stroke-width:2; stroke-opacity:0.1; fill:none" points="
  1117.34,222.716 1811.28,356.036 
  "/>
<polyline clip-path="url(#clip160)" style="stroke:#f8f8f2; stroke-linecap:butt; stroke-linejoin:round; stroke-width:4; stroke-opacity:1; fill:none" points="
  716.516,1176.62 625.692,454.634 
  "/>
<polyline clip-path="url(#clip160)" style="stroke:#f8f8f2; stroke-linecap:butt; stroke-linejoin:round; stroke-width:4; stroke-opacity:1; fill:none" points="
  714.897,1163.76 720.988,1158.66 
  "/>
<polyline clip-path="url(#clip160)" style="stroke:#f8f8f2; stroke-linecap:butt; stroke-linejoin:round; stroke-width:4; stroke-opacity:1; fill:none" points="
  702.229,1063.06 708.498,1058.1 
  "/>
<polyline clip-path="url(#clip160)" style="stroke:#f8f8f2; stroke-linecap:butt; stroke-linejoin:round; stroke-width:4; stroke-opacity:1; fill:none" points="
  688.947,957.469 695.404,952.688 
  "/>
<polyline clip-path="url(#clip160)" style="stroke:#f8f8f2; stroke-linecap:butt; stroke-linejoin:round; stroke-width:4; stroke-opacity:1; fill:none" points="
  675.004,846.636 681.661,842.048 
  "/>
<polyline clip-path="url(#clip160)" style="stroke:#f8f8f2; stroke-linecap:butt; stroke-linejoin:round; stroke-width:4; stroke-opacity:1; fill:none" points="
  660.352,730.155 667.219,725.787 
  "/>
<polyline clip-path="url(#clip160)" style="stroke:#f8f8f2; stroke-linecap:butt; stroke-linejoin:round; stroke-width:4; stroke-opacity:1; fill:none" points="
  644.933,607.583 652.025,603.464 
  "/>
<polyline clip-path="url(#clip160)" style="stroke:#f8f8f2; stroke-linecap:butt; stroke-linejoin:round; stroke-width:4; stroke-opacity:1; fill:none" points="
  628.686,478.431 636.017,474.594 
  "/>
<path clip-path="url(#clip160)" d="M625.611 1164.21 L655.287 1164.21 L655.287 1168.15 L625.611 1168.15 L625.611 1164.21 Z" fill="#f8f8f2" fill-rule="evenodd" fill-opacity="1" /><path clip-path="url(#clip160)" d="M666.19 1177.1 L673.829 1177.1 L673.829 1150.74 L665.519 1152.41 L665.519 1148.15 L673.783 1146.48 L678.458 1146.48 L678.458 1177.1 L686.097 1177.1 L686.097 1181.04 L666.19 1181.04 L666.19 1177.1 Z" fill="#f8f8f2" fill-rule="evenodd" fill-opacity="1" /><path clip-path="url(#clip160)" d="M661.485 1048.85 Q657.874 1048.85 656.045 1052.42 Q654.239 1055.96 654.239 1063.09 Q654.239 1070.2 656.045 1073.76 Q657.874 1077.3 661.485 1077.3 Q665.119 1077.3 666.925 1073.76 Q668.753 1070.2 668.753 1063.09 Q668.753 1055.96 666.925 1052.42 Q665.119 1048.85 661.485 1048.85 M661.485 1045.15 Q667.295 1045.15 670.35 1049.76 Q673.429 1054.34 673.429 1063.09 Q673.429 1071.82 670.35 1076.42 Q667.295 1081.01 661.485 1081.01 Q655.675 1081.01 652.596 1076.42 Q649.54 1071.82 649.54 1063.09 Q649.54 1054.34 652.596 1049.76 Q655.675 1045.15 661.485 1045.15 Z" fill="#f8f8f2" fill-rule="evenodd" fill-opacity="1" /><path clip-path="url(#clip160)" d="M640.239 970.814 L647.878 970.814 L647.878 944.448 L639.568 946.115 L639.568 941.856 L647.832 940.189 L652.508 940.189 L652.508 970.814 L660.147 970.814 L660.147 974.749 L640.239 974.749 L640.239 970.814 Z" fill="#f8f8f2" fill-rule="evenodd" fill-opacity="1" /><path clip-path="url(#clip160)" d="M629.885 859.981 L646.204 859.981 L646.204 863.916 L624.26 863.916 L624.26 859.981 Q626.922 857.226 631.505 852.596 Q636.112 847.944 637.292 846.601 Q639.538 844.078 640.417 842.342 Q641.32 840.583 641.32 838.893 Q641.32 836.138 639.376 834.402 Q637.454 832.666 634.353 832.666 Q632.154 832.666 629.7 833.43 Q627.269 834.194 624.492 835.745 L624.492 831.022 Q627.316 829.888 629.769 829.31 Q632.223 828.731 634.26 828.731 Q639.63 828.731 642.825 831.416 Q646.019 834.101 646.019 838.592 Q646.019 840.722 645.209 842.643 Q644.422 844.541 642.315 847.134 Q641.737 847.805 638.635 851.022 Q635.533 854.217 629.885 859.981 Z" fill="#f8f8f2" fill-rule="evenodd" fill-opacity="1" /><path clip-path="url(#clip160)" d="M624.422 728.801 Q627.778 729.518 629.653 731.787 Q631.552 734.055 631.552 737.389 Q631.552 742.504 628.033 745.305 Q624.515 748.106 618.033 748.106 Q615.857 748.106 613.542 747.666 Q611.251 747.25 608.797 746.393 L608.797 741.879 Q610.741 743.014 613.056 743.592 Q615.371 744.171 617.894 744.171 Q622.292 744.171 624.584 742.435 Q626.899 740.699 626.899 737.389 Q626.899 734.333 624.746 732.62 Q622.616 730.884 618.797 730.884 L614.769 730.884 L614.769 727.041 L618.982 727.041 Q622.431 727.041 624.26 725.676 Q626.089 724.287 626.089 721.694 Q626.089 719.032 624.19 717.62 Q622.315 716.185 618.797 716.185 Q616.876 716.185 614.677 716.602 Q612.478 717.018 609.839 717.898 L609.839 713.731 Q612.501 712.991 614.816 712.62 Q617.153 712.25 619.214 712.25 Q624.538 712.25 627.64 714.68 Q630.741 717.088 630.741 721.208 Q630.741 724.079 629.098 726.069 Q627.454 728.037 624.422 728.801 Z" fill="#f8f8f2" fill-rule="evenodd" fill-opacity="1" /><path clip-path="url(#clip160)" d="M606.549 594.377 L594.744 612.826 L606.549 612.826 L606.549 594.377 M605.322 590.303 L611.202 590.303 L611.202 612.826 L616.133 612.826 L616.133 616.715 L611.202 616.715 L611.202 624.863 L606.549 624.863 L606.549 616.715 L590.947 616.715 L590.947 612.201 L605.322 590.303 Z" fill="#f8f8f2" fill-rule="evenodd" fill-opacity="1" /><path clip-path="url(#clip160)" d="M578.983 461.151 L597.339 461.151 L597.339 465.086 L583.265 465.086 L583.265 473.558 Q584.284 473.211 585.302 473.049 Q586.321 472.864 587.339 472.864 Q593.126 472.864 596.506 476.035 Q599.886 479.206 599.886 484.623 Q599.886 490.201 596.413 493.303 Q592.941 496.382 586.622 496.382 Q584.446 496.382 582.177 496.012 Q579.932 495.641 577.525 494.9 L577.525 490.201 Q579.608 491.336 581.83 491.891 Q584.052 492.447 586.529 492.447 Q590.534 492.447 592.872 490.34 Q595.21 488.234 595.21 484.623 Q595.21 481.012 592.872 478.905 Q590.534 476.799 586.529 476.799 Q584.654 476.799 582.779 477.215 Q580.927 477.632 578.983 478.512 L578.983 461.151 Z" fill="#f8f8f2" fill-rule="evenodd" fill-opacity="1" /><polyline clip-path="url(#clip162)" style="stroke:#8be9fd; stroke-linecap:butt; stroke-linejoin:round; stroke-width:4; stroke-opacity:1; fill:none" points="
  819.304,389.779 819.274,390.341 819.252,390.986 819.237,391.712 819.228,392.521 819.227,393.412 819.233,394.385 819.246,395.44 819.266,396.578 819.293,397.797 
  819.327,399.099 819.368,400.482 819.416,401.948 819.472,403.495 819.534,405.124 819.603,406.834 819.68,408.626 819.763,410.499 819.853,412.454 819.951,414.49 
  820.055,416.607 820.167,418.805 820.285,421.084 820.411,423.443 820.543,425.882 820.682,428.402 820.829,431.002 820.982,433.682 821.142,436.442 821.309,439.281 
  821.483,442.199 821.664,445.196 821.852,448.273 822.046,451.427 822.248,454.661 822.456,457.972 822.671,461.361 822.893,464.828 823.121,468.372 823.357,471.993 
  823.599,475.691 823.847,479.465 824.103,483.316 824.365,487.242 824.633,491.244 824.909,495.321 825.191,499.473 825.479,503.7 825.774,508.001 826.075,512.375 
  826.383,516.824 826.697,521.345 827.018,525.939 827.345,530.606 827.679,535.345 828.019,540.156 828.365,545.037 828.717,549.99 829.076,555.013 829.441,560.107 
  829.812,565.27 830.189,570.502 830.572,575.803 830.961,581.173 831.357,586.611 831.758,592.116 832.166,597.688 832.579,603.327 832.998,609.032 833.423,614.803 
  833.854,620.639 834.291,626.54 834.733,632.506 835.181,638.535 835.635,644.628 836.095,650.784 836.56,657.002 837.03,663.282 837.507,669.623 837.988,676.026 
  838.475,682.488 838.968,689.011 839.466,695.594 839.969,702.235 840.477,708.934 840.991,715.692 841.51,722.507 842.034,729.378 842.563,736.306 843.097,743.29 
  843.636,750.329 844.18,757.423 844.729,764.571 845.283,771.773 845.842,779.027 846.405,786.334 846.973,793.694 847.546,801.104 848.124,808.566 848.706,816.078 
  849.293,823.639 849.884,831.25 850.48,838.91 851.08,846.617 851.685,854.373 852.294,862.175 852.907,870.023 853.524,877.918 854.146,885.858 854.772,893.842 
  855.402,901.871 856.036,909.943 856.673,918.059 857.315,926.217 857.961,934.416 858.611,942.657 859.264,950.939 859.921,959.261 860.582,967.623 861.247,976.023 
  861.915,984.463 862.587,992.94 863.262,1001.45 863.941,1010.01 864.623,1018.59 865.309,1027.22 865.998,1035.87 866.69,1044.57 867.385,1053.29 868.084,1062.05 
  868.786,1070.85 869.491,1079.67 870.198,1088.53 870.909,1097.42 871.623,1106.33 872.34,1115.28 873.06,1124.26 873.782,1133.27 874.058,1137.19 873.321,1129.58 
  872.586,1122 871.855,1114.46 871.126,1106.95 870.401,1099.48 869.678,1092.05 868.959,1084.66 868.243,1077.31 867.53,1070 866.821,1062.73 866.114,1055.49 
  865.412,1048.3 864.712,1041.16 864.016,1034.05 863.324,1026.99 862.635,1019.97 861.95,1013 861.269,1006.07 860.592,999.187 859.918,992.35 859.248,985.559 
  858.582,978.817 857.92,972.122 857.263,965.475 856.609,958.877 855.959,952.33 855.314,945.832 854.673,939.385 854.036,932.99 853.404,926.646 852.776,920.355 
  852.152,914.117 851.533,907.933 850.919,901.802 850.309,895.727 849.704,889.707 849.104,883.743 848.508,877.836 847.917,871.985 847.331,866.192 846.75,860.457 
  846.175,854.781 845.604,849.165 845.038,843.608 844.477,838.111 843.922,832.675 843.372,827.301 842.827,821.989 842.287,816.739 841.753,811.552 841.224,806.429 
  840.701,801.37 840.184,796.375 839.672,791.445 839.165,786.582 838.665,781.784 838.17,777.053 837.68,772.389 837.197,767.792 836.72,763.264 836.248,758.804 
  835.783,754.414 835.323,750.093 834.87,745.841 834.422,741.661 833.981,737.551 833.546,733.513 833.117,729.546 832.695,725.652 832.279,721.83 831.869,718.082 
  831.466,714.407 831.069,710.806 830.678,707.28 830.294,703.828 829.917,700.452 829.546,697.151 829.182,693.926 828.825,690.777 828.474,687.706 828.13,684.711 
  827.793,681.794 827.463,678.954 827.139,676.193 826.823,673.511 826.513,670.907 826.211,668.382 825.915,665.937 825.626,663.571 825.345,661.286 825.07,659.081 
  824.803,656.957 824.543,654.913 824.29,652.951 824.044,651.071 823.805,649.272 823.574,647.555 823.862,645.591 824.867,643.252 825.88,640.997 826.9,638.827 
  827.928,636.742 828.962,634.742 830.003,632.826 831.051,630.996 832.106,629.251 833.168,627.59 834.237,626.016 835.312,624.526 836.394,623.121 837.482,621.802 
  838.577,620.569 839.679,619.42 840.787,618.357 841.901,617.38 843.021,616.487 844.148,615.68 845.281,614.958 846.42,614.322 847.564,613.77 848.715,613.304 
  849.872,612.923 851.034,612.626 852.202,612.415 853.376,612.288 854.556,612.246 855.741,612.289 856.931,612.416 858.127,612.627 859.328,612.922 860.534,613.301 
  861.746,613.765 862.962,614.311 864.184,614.942 865.41,615.655 866.642,616.452 867.878,617.332 869.119,618.294 870.364,619.339 871.615,620.466 872.869,621.675 
  874.128,622.966 875.392,624.339 876.66,625.792 877.931,627.327 879.208,628.943 880.488,630.639 881.772,632.415 883.06,634.271 884.351,636.207 885.647,638.222 
  886.946,640.316 888.249,642.489 889.555,644.74 890.865,647.069 892.178,649.476 893.495,651.96 894.814,654.52 896.137,657.158 897.463,659.872 898.791,662.661 
  900.123,665.526 901.457,668.466 902.795,671.481 904.134,674.57 905.477,677.733 906.822,680.969 908.169,684.278 909.519,687.66 910.871,691.114 912.225,694.64 
  913.581,698.238 914.94,701.906 916.3,705.644 917.662,709.453 919.026,713.331 920.392,717.278 921.759,721.293 923.129,725.377 924.499,729.529 925.871,733.747 
  927.245,738.032 928.619,742.384 929.995,746.801 931.372,751.283 932.75,755.83 934.129,760.442 935.509,765.116 936.89,769.855 938.272,774.655 939.655,779.518 
  941.038,784.443 942.421,789.428 943.805,794.475 945.19,799.581 946.575,804.747 947.96,809.972 949.345,815.255 950.731,820.596 952.117,825.994 953.502,831.45 
  954.888,836.961 956.274,842.529 957.659,848.151 959.044,853.829 960.429,859.56 961.813,865.345 963.197,871.183 964.581,877.073 965.964,883.015 967.346,889.009 
  968.727,895.053 970.108,901.148 971.488,907.292 972.867,913.485 974.246,919.727 975.623,926.016 976.999,932.353 978.374,938.737 979.748,945.167 981.12,951.643 
  982.492,958.164 983.861,964.73 985.23,971.34 986.597,977.993 987.963,984.689 989.327,991.427 990.689,998.207 992.05,1005.03 993.409,1011.89 994.766,1018.79 
  996.121,1025.73 997.475,1032.71 998.826,1039.73 1000.18,1046.79 1001.52,1053.88 1002.87,1061.02 1004.21,1068.18 1005.55,1075.39 1006.89,1082.62 1008.23,1089.9 
  1009.56,1097.2 1010.9,1104.54 1012.23,1111.92 1013.06,1110.37 1013.55,1102.55 1014.05,1094.78 1014.55,1087.06 1015.05,1079.39 1015.56,1071.76 1016.08,1064.19 
  1016.59,1056.67 1017.12,1049.2 1017.65,1041.78 1018.18,1034.41 1018.72,1027.09 1019.26,1019.83 1019.81,1012.62 1020.37,1005.47 1020.92,998.368 1021.49,991.324 
  1022.05,984.335 1022.63,977.403 1023.2,970.529 1023.78,963.711 1024.37,956.952 1024.96,950.251 1025.56,943.609 1026.16,937.026 1026.76,930.504 1027.37,924.042 
  1027.99,917.641 1028.6,911.302 1029.23,905.025 1029.86,898.81 1030.49,892.658 1031.13,886.57 1031.77,880.545 1032.41,874.586 1033.06,868.69 1033.72,862.861 
  1034.38,857.097 1035.04,851.399 1035.71,845.768 1036.38,840.204 1037.06,834.707 1037.74,829.279 1038.42,823.918 1039.11,818.627 1039.81,813.405 1040.5,808.252 
  1041.21,803.17 1041.91,798.158 1042.62,793.217 1043.34,788.346 1044.06,783.548 1044.78,778.821 1045.51,774.167 1046.24,769.585 1046.97,765.076 1047.71,760.641 
  1048.45,756.279 1049.2,751.991 1049.95,747.778 1050.7,743.639 1051.46,739.575 1052.22,735.587 1052.99,731.673 1053.75,727.836 1054.53,724.075 1055.3,720.39 
  1056.08,716.782 1056.86,713.251 1057.65,709.796 1058.44,706.42 1059.23,703.12 1060.03,699.899 1060.83,696.756 1061.63,693.691 1062.44,690.705 1063.25,687.797 
  1064.06,684.968 1064.88,682.218 1065.7,679.547 1066.52,676.956 1067.35,674.444 1068.17,672.012 1069,669.66 1069.84,667.388 1070.68,665.196 1071.52,663.084 
  1072.36,661.053 1073.2,659.101 1074.05,657.231 1074.9,655.441 1075.75,653.732 1076.61,652.103 1077.47,650.555 1078.33,649.088 1079.19,647.702 1080.06,646.397 
  1080.93,645.173 1081.8,644.03 1082.67,642.968 1083.54,641.987 1084.42,641.087 1085.3,640.268 1086.18,639.529 1087.06,638.872 1087.95,638.296 1088.83,637.8 
  1089.72,637.386 1090.61,637.052 1091.5,636.798 1092.4,636.625 1093.29,636.533 1094.19,636.521 1095.09,636.59 1095.99,636.738 1096.89,636.967 1097.79,637.275 
  1098.7,637.664 1099.61,638.132 1100.51,638.679 1101.42,639.306 1102.33,640.012 1103.24,640.797 1104.15,641.661 1105.07,642.604 1105.98,643.625 1106.9,644.724 
  1107.81,645.901 1108.73,647.157 1109.65,648.489 1110.57,649.9 1111.49,651.387 1112.41,652.951 1113.33,654.592 1114.25,656.309 1115.17,658.102 1116.09,659.971 
  1117.01,661.916 1117.94,663.936 1118.86,666.031 1119.78,668.201 1120.71,670.445 1121.63,672.763 1122.56,675.155 1123.48,677.62 1124.41,680.158 1125.33,682.769 
  1126.26,685.453 1127.18,688.209 1128.11,691.036 1129.03,693.935 1129.95,696.905 1130.88,699.945 1131.8,703.056 1132.72,706.236 1133.65,709.486 1134.57,712.806 
  1135.49,716.193 1136.41,719.65 1137.34,723.174 1138.26,726.765 1139.18,730.424 1140.1,734.149 1141.01,737.941 1141.93,741.799 1142.85,745.721 1143.77,749.709 
  1144.68,753.761 1145.59,757.878 1146.51,762.058 1147.42,766.301 1148.33,770.607 1149.24,774.975 1150.15,779.405 1151.06,783.896 1151.97,788.449 1152.87,793.061 
  1153.78,797.734 1154.68,802.466 1155.58,807.256 1156.48,812.106 1157.38,817.013 1158.28,821.978 1159.18,827 1160.07,832.078 1160.96,837.213 1161.85,842.403 
  1162.74,847.648 1163.63,852.947 1164.52,858.301 1165.4,863.708 1166.29,869.168 1167.17,874.681 1168.05,880.245 1168.93,885.862 1169.8,891.529 1170.67,897.246 
  1171.55,903.014 1172.42,908.83 1173.28,914.696 1174.15,920.61 1175.01,926.572 1175.88,932.582 1176.74,938.638 1177.59,944.74 1178.45,950.889 1179.3,957.082 
  1180.15,963.32 1181,969.603 1181.85,975.929 1182.69,982.298 1183.53,988.71 1184.37,995.164 1185.21,1001.66 1186.04,1008.2 1186.88,1014.77 1187.71,1021.39 
  1188.53,1028.05 1189.36,1034.74 1190.18,1041.48 1190.94,1043.54 1191.57,1036.43 1192.2,1029.38 1192.84,1022.38 1193.48,1015.43 1194.12,1008.54 1194.76,1001.7 
  1195.41,994.909 1196.05,988.176 1196.7,981.497 1197.36,974.874 1198.01,968.306 1198.66,961.795 1199.32,955.34 1199.98,948.943 1200.64,942.603 1201.31,936.322 
  1201.97,930.1 1202.64,923.936 1203.31,917.832 1203.98,911.789 1204.65,905.805 1205.32,899.883 1206,894.023 1206.68,888.224 1207.36,882.487 1208.04,876.814 
  1208.72,871.203 1209.4,865.656 1210.09,860.173 1210.78,854.755 1211.46,849.401 1212.15,844.113 1212.85,838.89 1213.54,833.733 1214.23,828.643 1214.93,823.62 
  1215.62,818.664 1216.32,813.775 1217.02,808.955 1217.72,804.202 1218.42,799.519 1219.13,794.904 1219.83,790.359 1220.54,785.884 1221.24,781.478 1221.95,777.143 
  1222.66,772.879 1223.37,768.686 1224.08,764.564 1224.79,760.513 1225.5,756.535 1226.21,752.628 1226.93,748.795 1227.64,745.034 1228.35,741.346 1229.07,737.731 
  1229.79,734.19 1230.5,730.723 1231.22,727.329 1231.94,724.01 1232.66,720.766 1233.38,717.596 1234.1,714.501 1234.82,711.482 1235.54,708.538 1236.26,705.669 
  1236.98,702.876 1237.7,700.159 1238.42,697.518 1239.14,694.953 1239.86,692.465 1240.58,690.053 1241.31,687.718 1242.03,685.46 1242.75,683.278 1243.47,681.174 
  1244.19,679.147 1244.92,677.197 1245.64,675.325 1246.36,673.53 1247.08,671.813 1247.8,670.173 1248.52,668.611 1249.24,667.127 1249.97,665.721 1250.69,664.392 
  1251.4,663.142 1252.12,661.969 1252.84,660.874 1253.56,659.857 1254.28,658.918 1255,658.057 1255.71,657.275 1256.43,656.569 1257.14,655.942 1257.86,655.393 
  1258.57,654.922 1259.28,654.528 1260,654.212 1260.71,653.974 1261.42,653.813 1262.13,653.73 1262.84,653.724 1263.54,653.796 1264.25,653.945 1264.96,654.171 
  1265.66,654.474 1266.36,654.854 1267.07,655.31 1267.77,655.844 1268.47,656.454 1269.17,657.14 1269.86,657.902 1270.56,658.74 1271.25,659.654 1271.95,660.644 
  1272.64,661.71 1273.33,662.85 1274.02,664.066 1274.71,665.356 1275.39,666.721 1276.08,668.161 1276.76,669.675 1277.44,671.263 1278.12,672.924 1278.8,674.66 
  1279.48,676.468 1280.15,678.349 1280.82,680.303 1281.49,682.33 1282.16,684.429 1282.83,686.599 1283.5,688.841 1284.16,691.155 1284.82,693.539 1285.48,695.995 
  1286.14,698.52 1286.8,701.116 1287.45,703.782 1288.1,706.517 1288.75,709.321 1289.4,712.194 1290.04,715.135 1290.69,718.144 1291.33,721.221 1291.97,724.366 
  1292.6,727.577 1293.24,730.855 1293.87,734.2 1294.5,737.61 1295.13,741.085 1295.75,744.626 1296.38,748.232 1297,751.902 1297.62,755.636 1298.23,759.433 
  1298.85,763.293 1299.46,767.217 1300.07,771.202 1300.67,775.249 1301.28,779.358 1301.88,783.528 1302.48,787.758 1303.07,792.049 1303.67,796.399 1304.26,800.809 
  1304.84,805.278 1305.43,809.805 1306.01,814.389 1306.59,819.032 1307.17,823.731 1307.75,828.487 1308.32,833.3 1308.89,838.167 1309.46,843.091 1310.02,848.068 
  1310.58,853.101 1311.14,858.186 1311.7,863.326 1312.25,868.518 1312.8,873.763 1313.35,879.059 1313.89,884.407 1314.43,889.806 1314.97,895.255 1315.51,900.754 
  1316.04,906.303 1316.57,911.901 1317.1,917.548 1317.62,923.242 1318.15,928.984 1318.66,934.773 1319.18,940.608 1319.69,946.49 1320.2,952.417 1320.71,958.39 
  1321.21,964.407 1321.72,970.468 1322.21,976.572 1322.71,982.72 1323.2,988.91 1323.69,995.143 1324.18,1001.42 1324.66,1007.73 1325.14,1014.09 1325.62,1020.48 
  1326.09,1026.92 1326.64,1029.06 1327.34,1022.32 1328.04,1015.64 1328.74,1009 1329.45,1002.42 1330.15,995.886 1330.85,989.409 1331.55,982.986 1332.26,976.617 
  1332.96,970.303 1333.66,964.044 1334.36,957.842 1335.07,951.695 1335.77,945.605 1336.47,939.573 1337.17,933.597 1337.88,927.68 1338.58,921.822 1339.28,916.022 
  1339.98,910.281 1340.68,904.601 1341.38,898.98 1342.08,893.42 1342.78,887.921 1343.48,882.484 1344.18,877.108 1344.88,871.794 1345.58,866.543 1346.28,861.355 
  1346.97,856.23 1347.67,851.17 1348.36,846.173 1349.06,841.24 1349.75,836.373 1350.45,831.571 1351.14,826.834 1351.83,822.163 1352.52,817.559 1353.21,813.021 
  1353.9,808.55 1354.59,804.146 1355.27,799.81 1355.96,795.542 1356.64,791.342 1357.33,787.211 1358.01,783.148 1358.69,779.154 1359.37,775.23 1360.05,771.376 
  1360.73,767.591 1361.4,763.877 1362.08,760.233 1362.75,756.66 1363.42,753.158 1364.09,749.727 1364.76,746.368 1365.43,743.08 1366.09,739.865 1366.76,736.721 
  1367.42,733.65 1368.08,730.651 1368.74,727.725 1369.4,724.873 1370.05,722.093 1370.7,719.386 1371.36,716.753 1372.01,714.194 1372.65,711.709 1373.3,709.297 
  1373.94,706.96 1374.59,704.697 1375.23,702.508 1375.87,700.393 1376.5,698.354 1377.14,696.389 1377.77,694.499 1378.4,692.683 1379.02,690.943 1379.65,689.278 
  1380.27,687.688 1380.89,686.173 1381.51,684.733 1382.13,683.369 1382.74,682.08 1383.35,680.867 1383.96,679.729 1384.57,678.666 1385.17,677.679 1385.77,676.768 
  1386.37,675.932 1386.97,675.171 1387.56,674.486 1388.15,673.876 1388.74,673.342 1389.33,672.883 1389.91,672.499 1390.49,672.191 1391.07,671.958 1391.64,671.8 
  1392.21,671.717 1392.78,671.709 1393.35,671.776 1393.91,671.918 1394.47,672.135 1395.03,672.426 1395.59,672.792 1396.14,673.232 1396.69,673.747 1397.23,674.335 
  1397.78,674.998 1398.31,675.735 1398.85,676.545 1399.38,677.429 1399.92,678.386 1400.44,679.416 1400.97,680.52 1401.49,681.696 1402.01,682.945 1402.52,684.266 
  1403.03,685.66 1403.54,687.126 1404.04,688.663 1404.55,690.272 1405.04,691.953 1405.54,693.705 1406.03,695.527 1406.52,697.42 1407.01,699.384 1407.49,701.418 
  1407.97,703.521 1408.44,705.694 1408.91,707.937 1409.38,710.248 1409.84,712.629 1410.31,715.078 1410.76,717.595 1411.22,720.179 1411.67,722.832 1412.12,725.552 
  1412.56,728.338 1413,731.191 1413.44,734.111 1413.87,737.096 1414.3,740.147 1414.73,743.264 1415.15,746.445 1415.57,749.691 1415.98,753.001 1416.4,756.375 
  1416.8,759.812 1417.21,763.313 1417.61,766.876 1418.01,770.502 1418.4,774.19 1418.79,777.939 1419.18,781.749 1419.56,785.621 1419.94,789.553 1420.32,793.544 
  1420.69,797.596 1421.06,801.707 1421.42,805.876 1421.78,810.104 1422.14,814.39 1422.5,818.734 1422.85,823.135 1423.19,827.592 1423.54,832.106 1423.88,836.676 
  1424.21,841.301 1424.54,845.981 1424.87,850.716 1425.2,855.504 1425.52,860.347 1425.84,865.243 1426.15,870.191 1426.46,875.192 1426.77,880.245 1427.07,885.35 
  1427.37,890.505 1427.66,895.711 1427.96,900.967 1428.24,906.272 1428.53,911.627 1428.81,917.031 1429.09,922.482 1429.36,927.982 1429.63,933.529 1429.9,939.122 
  1430.16,944.762 1430.42,950.448 1430.68,956.179 1430.93,961.956 1431.18,967.776 1431.42,973.641 1431.67,979.55 1432.18,978.817 1432.91,972.678 1433.65,966.593 
  1434.38,960.563 1435.11,954.589 1435.84,948.67 1436.56,942.807 1437.29,937.002 1438.01,931.253 1438.73,925.562 1439.45,919.928 1440.17,914.353 1440.89,908.837 
  1441.61,903.38 1442.32,897.982 1443.03,892.644 1443.74,887.367 1444.45,882.15 1445.15,876.994 1445.86,871.9 1446.56,866.867 1447.26,861.897 1447.95,856.989 
  1448.65,852.144 1449.34,847.362 1450.03,842.644 1450.72,837.99 1451.41,833.4 1452.09,828.875 1452.77,824.415 1453.45,820.02 1454.12,815.69 1454.8,811.427 
  1455.47,807.229 1456.14,803.099 1456.8,799.034 1457.47,795.038 1458.13,791.108 1458.79,787.246 1459.44,783.452 1460.09,779.726 1460.74,776.069 1461.39,772.48 
  1462.03,768.961 1462.67,765.51 1463.31,762.129 1463.95,758.818 1464.58,755.576 1465.21,752.405 1465.83,749.304 1466.46,746.274 1467.08,743.314 1467.69,740.425 
  1468.31,737.608 1468.92,734.861 1469.52,732.186 1470.13,729.583 1470.73,727.052 1471.32,724.592 1471.92,722.205 1472.51,719.89 1473.09,717.648 1473.67,715.477 
  1474.25,713.38 1474.83,711.355 1475.4,709.403 1475.97,707.524 1476.54,705.719 1477.1,703.986 1477.66,702.327 1478.21,700.74 1478.76,699.228 1479.31,697.788 
  1479.85,696.423 1480.39,695.13 1480.93,693.912 1481.46,692.766 1481.99,691.695 1482.51,690.697 1483.03,689.773 1483.55,688.923 1484.06,688.146 1484.57,687.443 
  1485.07,686.813 1485.57,686.257 1486.07,685.775 1486.56,685.367 1487.05,685.031 1487.53,684.77 1488.01,684.582 1488.49,684.467 1488.96,684.425 1489.42,684.457 
  1489.89,684.561 1490.35,684.739 1490.8,684.99 1491.25,685.314 1491.7,685.71 1492.14,686.179 1492.58,686.72 1493.01,687.334 1493.44,688.02 1493.87,688.778 
  1494.29,689.608 1494.7,690.51 1495.11,691.484 1495.52,692.529 1495.93,693.645 1496.32,694.832 1496.72,696.091 1497.11,697.42 1497.49,698.819 1497.88,700.289 
  1498.25,701.829 1498.62,703.439 1498.99,705.119 1499.36,706.868 1499.71,708.686 1500.07,710.574 1500.42,712.53 1500.76,714.554 1501.11,716.647 1501.44,718.808 
  1501.77,721.036 1502.1,723.332 1502.42,725.696 1502.74,728.126 1503.06,730.622 1503.37,733.185 1503.67,735.815 1503.97,738.509 1504.27,741.269 1504.56,744.095 
  1504.85,746.985 1505.13,749.939 1505.41,752.958 1505.68,756.041 1505.95,759.187 1506.21,762.396 1506.47,765.668 1506.73,769.002 1506.98,772.399 1507.23,775.857 
  1507.47,779.377 1507.71,782.957 1507.94,786.599 1508.17,790.301 1508.39,794.062 1508.61,797.883 1508.83,801.764 1509.04,805.703 1509.24,809.7 1509.45,813.756 
  1509.64,817.869 1509.84,822.039 1510.02,826.267 1510.21,830.55 1510.39,834.89 1510.56,839.285 1510.73,843.736 1510.9,848.241 1511.06,852.8 1511.22,857.414 
  1511.37,862.081 1511.52,866.801 1511.67,871.574 1511.81,876.399 1511.95,881.276 1512.08,886.204 1512.21,891.183 1512.33,896.213 1512.45,901.293 1512.56,906.422 
  1512.67,911.601 1512.78,916.828 1512.88,922.104 1512.98,927.427 1513.08,932.798 1513.17,938.216 1513.25,943.68 1513.33,949.191 1513.41,954.747 1513.48,960.348 
  1513.56,965.873 1514.31,960.025 1515.06,954.233 1515.8,948.496 1516.54,942.814 1517.28,937.189 1518.02,931.62 1518.75,926.109 1519.48,920.654 1520.21,915.258 
  1520.93,909.919 1521.65,904.639 1522.37,899.418 1523.09,894.256 1523.8,889.154 1524.51,884.112 1525.21,879.13 1525.92,874.209 1526.62,869.35 1527.31,864.551 
  1528.01,859.815 1528.7,855.14 1529.38,850.528 1530.06,845.979 1530.74,841.493 1531.42,837.07 1532.09,832.711 1532.76,828.416 1533.43,824.186 1534.09,820.02 
  1534.75,815.919 1535.4,811.884 1536.05,807.914 1536.7,804.01 1537.34,800.172 1537.98,796.4 1538.61,792.695 1539.24,789.057 1539.87,785.486 1540.49,781.983 
  1541.11,778.547 1541.73,775.179 1542.34,771.879 1542.95,768.648 1543.55,765.485 1544.15,762.391 1544.74,759.365 1545.33,756.409 1545.92,753.523 1546.5,750.705 
  1547.08,747.958 1547.65,745.28 1548.22,742.673 1548.78,740.136 1549.34,737.669 1549.9,735.273 1550.45,732.947 1550.99,730.692 1551.53,728.508 1552.07,726.395 
  1552.6,724.354 1553.13,722.384 1553.65,720.485 1554.17,718.657 1554.68,716.902 1555.19,715.218 1555.7,713.605 1556.2,712.065 1556.69,710.596 1557.18,709.2 
  1557.66,707.875 1558.14,706.623 1558.62,705.442 1559.09,704.334 1559.55,703.298 1560.01,702.334 1560.47,701.442 1560.92,700.622 1561.36,699.875 1561.8,699.2 
  1562.24,698.597 1562.67,698.066 1563.09,697.607 1563.51,697.22 1563.93,696.906 1564.34,696.663 1564.74,696.492 1565.14,696.393 1565.54,696.367 1565.92,696.411 
  1566.31,696.528 1566.69,696.716 1567.06,696.975 1567.43,697.306 1567.79,697.709 1568.15,698.182 1568.5,698.726 1568.85,699.342 1569.19,700.028 1569.53,700.785 
  1569.86,701.612 1570.18,702.51 1570.5,703.478 1570.82,704.516 1571.13,705.624 1571.44,706.802 1571.73,708.049 1572.03,709.366 1572.32,710.752 1572.6,712.207 
  1572.88,713.73 1573.15,715.323 1573.42,716.983 1573.68,718.712 1573.94,720.509 1574.19,722.373 1574.44,724.305 1574.68,726.304 1574.91,728.37 1575.14,730.502 
  1575.37,732.701 1575.59,734.967 1575.8,737.298 1576.01,739.695 1576.22,742.158 1576.41,744.685 1576.61,747.277 1576.79,749.934 1576.98,752.655 1577.15,755.44 
  1577.33,758.289 1577.49,761.201 1577.65,764.176 1577.81,767.214 1577.96,770.314 1578.11,773.476 1578.25,776.7 1578.38,779.985 1578.51,783.332 1578.64,786.739 
  1578.76,790.206 1578.87,793.734 1578.98,797.321 1579.09,800.967 1579.18,804.673 1579.28,808.436 1579.37,812.259 1579.45,816.139 1579.53,820.076 1579.6,824.071 
  1579.67,828.122 1579.74,832.229 1579.8,836.393 1579.85,840.612 1579.9,844.886 1579.94,849.215 1579.98,853.598 1580.01,858.036 1580.04,862.527 1580.07,867.071 
  1580.09,871.667 1580.1,876.316 1580.11,881.017 1580.11,885.77 1580.11,890.574 1580.11,895.428 1580.1,900.332 1580.08,905.287 1580.07,910.291 1580.04,915.343 
  1580.01,920.445 1579.98,925.594 1579.94,930.791 1579.9,936.036 1579.85,941.327 1579.8,946.664 1579.75,952.048 1579.69,957.477 1579.62,962.951 1579.55,968.47 
  1579.48,974.033 1579.4,979.64 1579.32,985.29 1579.23,990.983 1579.54,991.237 1580.32,985.374 1581.08,979.563 1581.85,973.806 1582.61,968.103 1583.37,962.454 
  1584.12,956.859 1584.87,951.32 1585.62,945.836 1586.36,940.408 1587.1,935.036 1587.84,929.72 1588.57,924.462 1589.3,919.261 1590.03,914.117 1590.75,909.032 
  1591.46,904.005 1592.17,899.036 1592.88,894.127 1593.59,889.277 1594.29,884.487 1594.98,879.758 1595.68,875.088 1596.36,870.48 1597.05,865.933 1597.72,861.447 
  1598.4,857.023 1599.07,852.661 1599.73,848.361 1600.4,844.125 1601.05,839.951 1601.7,835.84 1602.35,831.794 1602.99,827.811 1603.63,823.892 1604.27,820.037 
  1604.89,816.248 1605.52,812.523 1606.14,808.863 1606.75,805.269 1607.36,801.741 1607.97,798.279 1608.56,794.882 1609.16,791.553 1609.75,788.29 1610.33,785.093 
  1610.91,781.964 1611.49,778.902 1612.06,775.908 1612.62,772.981 1613.18,770.123 1613.73,767.332 1614.28,764.61 1614.82,761.956 1615.36,759.37 1615.89,756.853 
  1616.42,754.406 1616.94,752.027 1617.46,749.717 1617.97,747.477 1618.47,745.306 1618.97,743.205 1619.47,741.174 1619.96,739.212 1620.44,737.32 1620.92,735.498 
  1621.39,733.747 1621.85,732.065 1622.32,730.454 1622.77,728.913 1623.22,727.443 1623.66,726.043 1624.1,724.713 1624.53,723.454 1624.96,722.266 1625.38,721.149 
  1625.79,720.102 1626.2,719.125 1626.61,718.22 1627,717.385 1627.39,716.621 1627.78,715.928 1628.16,715.305 1628.53,714.753 1628.9,714.272 1629.26,713.862 
  1629.62,713.522 1629.97,713.252 1630.31,713.054 1630.65,712.925 1630.98,712.867 1631.31,712.88 1631.63,712.962 1631.94,713.115 1632.25,713.338 1632.55,713.632 
  1632.84,713.995 1633.13,714.427 1633.42,714.93 1633.7,715.502 1633.97,716.144 1634.23,716.855 1634.49,717.635 1634.75,718.484 1634.99,719.402 1635.23,720.389 
  1635.47,721.445 1635.7,722.569 1635.92,723.762 1636.14,725.022 1636.35,726.351 1636.55,727.747 1636.75,729.211 1636.94,730.742 1637.13,732.34 1637.31,734.006 
  1637.49,735.738 1637.65,737.536 1637.82,739.401 1637.97,741.332 1638.12,743.329 1638.27,745.392 1638.41,747.52 1638.54,749.713 1638.66,751.97 1638.78,754.293 
  1638.9,756.68 1639.01,759.131 1639.11,761.645 1639.21,764.224 1639.3,766.865 1639.38,769.57 1639.46,772.337 1639.53,775.166 1639.6,778.058 1639.66,781.011 
  1639.72,784.026 1639.77,787.102 1639.81,790.239 1639.85,793.436 1639.88,796.693 1639.91,800.011 1639.93,803.388 1639.94,806.824 1639.95,810.319 1639.95,813.872 
  1639.95,817.484 1639.94,821.153 1639.93,824.88 1639.91,828.664 1639.88,832.505 1639.85,836.402 1639.82,840.355 1639.78,844.364 1639.73,848.428 1639.68,852.547 
  1639.62,856.72 1639.55,860.948 1639.49,865.229 1639.41,869.564 1639.33,873.952 1639.25,878.392 1639.16,882.885 1639.06,887.429 1638.96,892.025 1638.85,896.672 
  1638.74,901.369 1638.62,906.117 1638.5,910.914 1638.38,915.761 1638.24,920.656 1638.25,923.924 1638.98,918.853 1639.7,913.838 1640.42,908.882 1641.13,903.983 
  1641.84,899.143 1642.55,894.362 1643.25,889.64 1643.94,884.978 1644.63,880.375 1645.31,875.832 1645.99,871.35 1646.67,866.929 1647.34,862.568 1648,858.269 
  1648.66,854.032 1649.32,849.856 1649.97,845.743 1650.61,841.693 1651.25,837.705 1651.88,833.78 1652.51,829.919 1653.13,826.121 1653.75,822.388 1654.36,818.718 
  1654.97,815.113 1655.57,811.573 1656.17,808.097 1656.76,804.687 1657.34,801.342 1657.92,798.062 1658.49,794.848 1659.06,791.701 1659.62,788.62 1660.18,785.605 
  1660.73,782.656 1661.27,779.775 1661.81,776.961 1662.34,774.213 1662.87,771.533 1663.39,768.921 1663.9,766.377 1664.41,763.9 1664.91,761.491 1665.41,759.151 
  1665.9,756.878 1666.38,754.674 1666.86,752.539 1667.34,750.473 1667.72,748.453 1667.8,746.424 1667.88,744.465 1667.95,742.575 1668.01,740.754 1668.07,739.003 
  1668.12,737.322 1668.16,735.71 1668.2,734.168 1668.24,732.696 1668.26,731.293 1668.28,729.96 1668.3,728.698 1668.31,727.505 1668.31,726.382 1668.3,725.329 
  1668.29,724.346 1668.28,723.432 1668.25,722.589 1668.23,721.816 1668.19,721.112 1668.15,720.479 1668.1,719.915 1668.05,719.421 1667.99,718.997 1667.92,718.643 
  1667.85,718.358 1667.78,718.143 1667.69,717.997 1667.6,717.921 1667.51,717.914 1667.4,717.977 1667.3,718.108 1667.18,718.309 1667.06,718.579 1666.94,718.918 
  1666.8,719.325 1666.67,719.802 1666.52,720.346 1666.37,720.959 1666.22,721.641 1666.05,722.39 1665.89,723.208 1665.71,724.093 1665.53,725.046 1665.35,726.066 
  1665.16,727.154 1664.96,728.309 1664.76,729.531 1664.55,730.819 1664.34,732.174 1664.12,733.596 1663.89,735.084 1663.66,736.637 1663.42,738.257 1663.18,739.942 
  1662.93,741.692 1662.68,743.507 1662.42,745.388 1662.16,747.332 1661.89,749.341 1661.61,751.415 1661.33,753.552 1661.04,755.753 1660.75,758.017 1660.46,760.344 
  1660.15,762.734 1659.85,765.186 1659.53,767.701 1659.21,770.277 1658.89,772.916 1658.56,775.615 1658.23,778.376 1657.89,781.198 1657.54,784.08 1657.2,787.022 
  1656.84,790.024 1656.48,793.085 1656.12,796.206 1655.75,799.386 1655.37,802.624 1655,805.92 1654.61,809.274 1654.22,812.686 1653.83,816.155 1653.43,819.681 
  1653.03,823.264 1652.62,826.902 1652.21,830.597 1651.79,834.347 1651.37,838.152 1650.94,842.011 1650.51,845.925 1650.08,849.893 1649.64,853.915 1649.19,857.99 
  1648.75,862.118 1648.29,866.298 1647.84,870.53 1647.38,874.814 1646.91,879.15 1646.44,883.536 1645.97,887.973 1645.49,892.46 1645.01,896.997 1644.52,901.584 
  1644.03,906.219 1643.54,910.903 1643.04,915.635 1642.54,920.415 1642.12,924.256 1642.48,919.122 1642.84,914.044 1643.19,909.024 1643.54,904.061 1643.88,899.156 
  1644.22,894.309 1644.55,889.52 1644.88,884.79 1645.2,880.119 1645.52,875.508 1645.83,870.956 1646.14,866.464 1646.44,862.032 1646.73,857.661 1647.02,853.351 
  1647.31,849.102 1647.59,844.914 1647.86,840.788 1648.13,836.724 1648.39,832.722 1648.65,828.783 1648.9,824.906 1649.15,821.093 1649.39,817.342 1649.63,813.655 
  1649.86,810.032 1650.08,806.473 1650.3,802.978 1650.51,799.547 1650.72,796.181 1650.92,792.88 1651.12,789.644 1651.31,786.473 1651.49,783.367 1651.67,780.327 
  1651.85,777.353 1652.02,774.445 1652.18,771.603 1652.33,768.827 1652.48,766.118 1652.63,763.475 1652.77,760.899 1652.9,758.39 1653.03,755.949 1653.15,753.574 
  1653.27,751.266 1653.38,749.026 1653.48,746.854 1653.55,744.78 1653.46,742.943 1653.37,741.173 1653.26,739.47 1653.16,737.836 1653.05,736.268 1652.93,734.769 
  1652.8,733.337 1652.67,731.973 1652.54,730.678 1652.4,729.45 1652.25,728.29 1652.1,727.199 1651.94,726.176 1651.77,725.221 1651.6,724.334 1651.43,723.516 
  1651.24,722.766 1651.06,722.084 1650.86,721.471 1650.66,720.926 1650.46,720.45 1650.25,720.042 1650.03,719.702 1649.81,719.431 1649.58,719.228 1649.35,719.093 
  1649.11,719.027 1648.87,719.028 1648.62,719.098 1648.36,719.237 1648.1,719.443 1647.83,719.717 1647.56,720.059 1647.28,720.47 1647,720.947 1646.71,721.493 
  1646.42,722.106 1646.12,722.787 1645.81,723.535 1645.5,724.351 1645.18,725.233 1644.86,726.183 1644.54,727.2 1644.2,728.283 1643.87,729.433 1643.52,730.65 
  1643.18,731.933 1642.82,733.282 1642.46,734.697 1642.1,736.179 1641.73,737.726 1641.36,739.338 1640.98,741.016 1640.59,742.759 1640.2,744.567 1639.81,746.44 
  1639.41,748.377 1639.01,750.379 1638.6,752.445 1638.18,754.575 1637.76,756.768 1637.34,759.025 1636.91,761.346 1636.48,763.729 1636.04,766.175 1635.6,768.684 
  1635.15,771.255 1634.7,773.888 1634.24,776.583 1633.78,779.339 1633.31,782.157 1632.84,785.036 1632.36,787.975 1631.88,790.975 1631.4,794.035 1630.91,797.154 
  1630.41,800.334 1629.92,803.572 1629.41,806.87 1628.91,810.226 1628.4,813.64 1627.88,817.113 1627.36,820.643 1626.84,824.23 1626.31,827.875 1625.78,831.576 
  1625.24,835.334 1624.7,839.148 1624.16,843.018 1623.61,846.942 1623.06,850.923 1622.5,854.957 1621.94,859.046 1621.38,863.189 1620.81,867.386 1620.24,871.636 
  1619.66,875.939 1619.09,880.294 1618.5,884.702 1617.92,889.162 1617.33,893.673 1616.74,898.235 1616.14,902.847 1615.54,907.51 1614.94,912.223 1614.33,916.986 
  1613.72,921.797 1613.11,926.658 1612.49,931.567 1611.89,936.224 1612.06,931.387 1612.23,926.606 1612.39,921.882 1612.55,917.213 1612.7,912.601 1612.84,908.046 
  1612.99,903.549 1613.12,899.109 1613.25,894.727 1613.38,890.403 1613.5,886.138 1613.62,881.932 1613.73,877.785 1613.84,873.697 1613.94,869.669 1614.04,865.702 
  1614.13,861.795 1614.22,857.948 1614.3,854.162 1614.38,850.438 1614.45,846.775 1614.51,843.173 1614.57,839.634 1614.63,836.157 1614.68,832.743 1614.73,829.391 
  1614.77,826.102 1614.8,822.877 1614.83,819.715 1614.86,816.616 1614.88,813.582 1614.89,810.611 1614.9,807.705 1614.91,804.864 1614.91,802.087 1614.9,799.375 
  1614.89,796.729 1614.87,794.147 1614.85,791.631 1614.82,789.181 1614.79,786.796 1614.75,784.478 1614.71,782.225 1614.66,780.039 1614.61,777.92 1614.55,775.867 
  1614.49,773.88 1614.42,771.96 1614.34,770.108 1614.26,768.322 1614.18,766.604 1614.09,764.952 1613.99,763.369 1613.89,761.852 1613.79,760.403 1613.67,759.022 
  1613.56,757.709 1613.44,756.463 1613.31,755.285 1613.18,754.175 1613.04,753.133 1612.9,752.159 1612.75,751.252 1612.6,750.414 1612.44,749.644 1612.27,748.942 
  1612.1,748.309 1611.93,747.743 1611.75,747.245 1611.57,746.816 1611.38,746.455 1611.18,746.161 1610.98,745.936 1610.78,745.779 1610.57,745.69 1610.35,745.669 
  1610.13,745.716 1609.91,745.83 1609.68,746.013 1609.44,746.263 1609.2,746.581 1608.96,746.967 1608.71,747.42 1608.45,747.94 1608.19,748.528 1607.93,749.183 
  1607.66,749.906 1607.38,750.695 1607.1,751.551 1606.82,752.474 1606.53,753.464 1606.23,754.521 1605.94,755.643 1605.63,756.832 1605.32,758.088 1605.01,759.409 
  1604.69,760.796 1604.37,762.248 1604.04,763.767 1603.71,765.35 1603.37,766.999 1603.03,768.712 1602.68,770.49 1602.33,772.333 1601.98,774.24 1601.62,776.212 
  1601.25,778.247 1600.88,780.346 1600.51,782.509 1600.13,784.734 1599.75,787.023 1599.36,789.375 1598.97,791.789 1598.58,794.266 1598.18,796.804 1597.78,799.405 
  1597.37,802.067 1596.96,804.79 1596.54,807.574 1596.12,810.42 1595.69,813.325 1595.26,816.291 1594.83,819.317 1594.4,822.402 1593.95,825.547 1593.51,828.751 
  1593.06,832.013 1592.61,835.335 1592.15,838.714 1591.69,842.151 1591.23,845.645 1590.76,849.197 1590.29,852.805 1589.81,856.471 1589.33,860.192 1588.85,863.969 
  1588.36,867.802 1587.87,871.69 1587.38,875.633 1586.88,879.63 1586.38,883.682 1585.87,887.787 1585.37,891.946 1584.85,896.158 1584.34,900.423 1583.82,904.74 
  1583.43,907.388 1583.54,903.145 1583.65,898.96 1583.76,894.835 1583.86,890.769 1583.96,886.762 1584.05,882.816 1584.14,878.93 1584.22,875.105 1584.3,871.341 
  1584.37,867.637 1584.44,863.996 1584.5,860.415 1584.56,856.897 1584.62,853.441 1584.67,850.048 1584.71,846.717 1584.75,843.449 1584.79,840.245 1584.82,837.103 
  1584.84,834.026 1584.87,831.012 1584.88,828.062 1584.89,825.177 1584.9,822.355 1584.9,819.599 1584.9,816.908 1584.89,814.281 1584.88,811.72 1584.86,809.224 
  1584.84,806.794 1584.81,804.429 1584.78,802.13 1584.75,799.897 1584.71,797.731 1584.66,795.631 1584.61,793.597 1584.55,791.63 1584.49,789.73 1584.43,787.896 
  1584.36,786.129 1584.28,784.43 1584.2,782.797 1584.12,781.232 1584.03,779.734 1583.93,778.304 1583.83,776.941 1583.73,775.646 1583.62,774.418 1583.51,773.258 
  1583.39,772.166 1583.26,771.142 1583.13,770.185 1583,769.296 1582.86,768.476 1582.72,767.723 1582.57,767.038 1582.42,766.421 1582.26,765.872 1582.1,765.391 
  1581.94,764.978 1581.77,764.633 1581.59,764.356 1581.41,764.147 1581.22,764.006 1581.03,763.932 1580.84,763.927 1580.64,763.989 1580.44,764.119 1580.23,764.316 
  1580.01,764.581 1579.8,764.914 1579.57,765.314 1579.35,765.782 1579.12,766.316 1578.88,766.918 1578.64,767.587 1578.39,768.323 1578.14,769.126 1577.89,769.996 
  1577.63,770.932 1577.37,771.934 1577.1,773.003 1576.83,774.139 1576.55,775.34 1576.27,776.607 1575.98,777.94 1575.69,779.339 1575.4,780.803 1575.1,782.333 
  1574.8,783.927 1574.49,785.586 1574.18,787.311 1573.87,789.099 1573.55,790.952 1573.22,792.87 1572.9,794.851 1572.56,796.895 1572.23,799.004 1571.89,801.175 
  1571.54,803.41 1571.19,805.707 1570.84,808.068 1570.49,810.49 1570.13,812.974 1569.76,815.521 1569.39,818.129 1569.02,820.798 1568.64,823.528 1568.26,826.32 
  1567.88,829.171 1567.49,832.083 1567.1,835.055 1566.71,838.087 1566.31,841.178 1565.91,844.328 1565.5,847.537 1565.09,850.804 1564.68,854.13 1564.26,857.513 
  1563.84,860.954 1563.42,864.452 1562.99,868.008 1562.56,871.62 1562.12,875.288 1561.68,879.012 1561.24,882.792 1560.8,886.627 1560.35,890.517 1559.9,894.461 
  1559.44,898.46 1558.99,902.513 1558.53,906.619 1558.06,910.779 1557.59,914.991 1557.47,914.179 1557.57,910.076 1557.67,906.031 1557.76,902.047 1557.85,898.122 
  1557.93,894.258 1558.01,890.454 1558.09,886.711 1558.16,883.029 1558.22,879.409 1558.29,875.85 1558.34,872.353 1558.4,868.919 1558.45,865.546 1558.49,862.237 
  1558.53,858.99 1558.57,855.806 1558.6,852.686 1558.62,849.629 1558.65,846.636 1558.67,843.707 1558.68,840.843 1558.69,838.042 1558.69,835.307 1558.69,832.635 
  1558.69,830.029 1558.68,827.488 1558.67,825.013 1558.65,822.603 1558.63,820.258 1558.6,817.979 1558.57,815.767 1558.54,813.62 1558.5,811.54 1558.45,809.526 
  1558.41,807.578 1558.35,805.697 1558.29,803.883 1558.23,802.135 1558.17,800.455 1558.1,798.842 1558.02,797.295 1557.94,795.816 1557.86,794.405 1557.77,793.06 
  1557.67,791.783 1557.58,790.574 1557.47,789.432 1557.37,788.358 1557.26,787.352 1557.14,786.413 1557.02,785.542 1556.9,784.739 1556.77,784.003 1556.64,783.336 
  1556.5,782.736 1556.36,782.204 1556.21,781.74 1556.06,781.344 1555.9,781.015 1555.74,780.755 1555.58,780.562 1555.41,780.437 1555.24,780.379 1555.06,780.389 
  1554.88,780.467 1554.7,780.613 1554.51,780.825 1554.31,781.106 1554.12,781.453 1553.91,781.868 1553.71,782.35 1553.5,782.899 1553.28,783.516 1553.06,784.199 
  1552.84,784.948 1552.61,785.765 1552.38,786.648 1552.14,787.598 1551.9,788.613 1551.66,789.695 1551.41,790.843 1551.16,792.057 1550.9,793.337 1550.64,794.682 
  1550.38,796.093 1550.11,797.569 1549.84,799.11 1549.56,800.716 1549.28,802.386 1548.99,804.121 1548.71,805.921 1548.41,807.784 1548.12,809.712 1547.82,811.703 
  1547.52,813.758 1547.21,815.876 1546.9,818.057 1546.58,820.301 1546.26,822.607 1545.94,824.976 1545.61,827.407 1545.28,829.9 1544.95,832.455 1544.61,835.07 
  1544.27,837.747 1543.93,840.485 1543.58,843.284 1543.23,846.142 1542.88,849.061 1542.52,852.039 1542.16,855.077 1541.79,858.174 1541.42,861.33 1541.05,864.545 
  1540.67,867.817 1540.3,871.148 1539.91,874.536 1539.53,877.982 1539.14,881.485 1538.75,885.044 1538.35,888.66 1537.96,892.331 1537.55,896.059 1537.15,899.842 
  1536.74,903.68 1536.33,907.572 1535.92,911.519 1535.5,915.52 1535.08,919.575 1534.66,923.683 1534.23,927.844 1533.8,932.057 1533.37,936.323 1532.94,940.585 
  1533.05,936.354 1533.15,932.181 1533.25,928.067 1533.34,924.013 1533.43,920.017 1533.52,916.082 1533.6,912.207 1533.68,908.392 1533.76,904.638 1533.83,900.944 
  1533.89,897.312 1533.96,893.741 1534.01,890.232 1534.07,886.785 1534.12,883.399 1534.17,880.077 1534.21,876.817 1534.25,873.62 1534.28,870.486 1534.31,867.415 
  1534.34,864.408 1534.36,861.464 1534.38,858.585 1534.39,855.77 1534.4,853.019 1534.41,850.332 1534.41,847.711 1534.41,845.154 1534.4,842.663 1534.39,840.236 
  1534.38,837.875 1534.36,835.58 1534.34,833.35 1534.31,831.187 1534.28,829.089 1534.24,827.058 1534.2,825.092 1534.16,823.193 1534.11,821.361 1534.06,819.595 
  1534,817.896 1533.94,816.264 1533.88,814.699 1533.81,813.201 1533.74,811.77 1533.66,810.406 1533.58,809.11 1533.5,807.88 1533.41,806.719 1533.32,805.624 
  1533.22,804.597 1533.12,803.638 1533.01,802.746 1532.9,801.922 1532.79,801.165 1532.67,800.476 1532.55,799.855 1532.43,799.301 1532.3,798.815 1532.16,798.396 
  1532.03,798.046 1531.89,797.762 1531.74,797.547 1531.59,797.399 1531.44,797.318 1531.28,797.305 1531.12,797.36 1530.95,797.481 1530.78,797.67 1530.61,797.927 
  1530.43,798.25 1530.25,798.641 1530.07,799.099 1529.88,799.623 1529.68,800.215 1529.49,800.873 1529.29,801.598 1529.08,802.389 1528.87,803.247 1528.66,804.171 
  1528.44,805.161 1528.22,806.217 1528,807.339 1527.77,808.527 1527.54,809.78 1527.31,811.099 1527.07,812.483 1526.83,813.933 1526.58,815.447 1526.33,817.026 
  1526.08,818.669 1525.82,820.377 1525.56,822.149 1525.29,823.985 1525.03,825.885 1524.76,827.849 1524.48,829.876 1524.2,831.966 1523.92,834.119 1523.63,836.334 
  1523.35,838.612 1523.05,840.953 1522.76,843.355 1522.46,845.819 1522.16,848.345 1521.85,850.932 1521.54,853.58 1521.23,856.289 1520.91,859.058 1520.59,861.887 
  1520.27,864.776 1519.95,867.725 1519.62,870.733 1519.28,873.801 1518.95,876.927 1518.61,880.111 1518.27,883.354 1517.93,886.654 1517.58,890.012 1517.23,893.428 
  1516.87,896.9 1516.52,900.429 1516.16,904.014 1515.8,907.655 1515.43,911.352 1515.06,915.104 1514.69,918.911 1514.32,922.773 1513.94,926.689 1513.56,930.658 
  1513.18,934.682 1512.79,938.759 1512.4,942.888 1512.01,947.07 1511.82,947.856 1511.92,943.744 1512.01,939.692 1512.1,935.699 1512.18,931.766 1512.26,927.893 
  1512.34,924.079 1512.41,920.327 1512.48,916.635 1512.55,913.003 1512.61,909.434 1512.67,905.925 1512.72,902.479 1512.77,899.094 1512.82,895.772 1512.87,892.512 
  1512.91,889.315 1512.94,886.18 1512.98,883.109 1513,880.101 1513.03,877.157 1513.05,874.277 1513.07,871.461 1513.08,868.708 1513.09,866.02 1513.1,863.397 
  1513.1,860.839 1513.1,858.345 1513.09,855.917 1513.08,853.553 1513.07,851.255 1513.05,849.023 1513.03,846.856 1513.01,844.756 1512.98,842.721 1512.95,840.752 
  1512.91,838.85 1512.87,837.013 1512.83,835.244 1512.78,833.541 1512.73,831.904 1512.68,830.334 1512.62,828.832 1512.56,827.396 1512.49,826.027 1512.42,824.725 
  1512.35,823.49 1512.27,822.323 1512.19,821.222 1512.1,820.189 1512.01,819.224 1511.92,818.326 1511.82,817.495 1511.72,816.731 1511.62,816.035 1511.51,815.407 
  1511.4,814.846 1511.28,814.352 1511.17,813.926 1511.04,813.568 1510.92,813.277 1510.79,813.053 1510.65,812.896 1510.51,812.807 1510.37,812.786 1510.23,812.831 
  1510.08,812.944 1509.93,813.124 1509.77,813.37 1509.61,813.684 1509.45,814.065 1509.28,814.513 1509.11,815.027 1508.93,815.608 1508.76,816.256 1508.57,816.97 
  1508.39,817.751 1508.2,818.598 1508.01,819.51 1507.81,820.489 1507.61,821.534 1507.41,822.644 1507.2,823.82 1506.99,825.062 1506.78,826.368 1506.56,827.74 
  1506.34,829.177 1506.12,830.678 1505.89,832.244 1505.66,833.875 1505.43,835.569 1505.19,837.328 1504.95,839.15 1504.71,841.037 1504.46,842.986 1504.21,844.999 
  1503.96,847.075 1503.7,849.213 1503.44,851.415 1503.18,853.678 1502.91,856.004 1502.64,858.391 1502.37,860.84 1502.09,863.35 1501.81,865.922 1501.53,868.554 
  1501.25,871.247 1500.96,874 1500.67,876.813 1500.37,879.686 1500.07,882.618 1499.77,885.61 1499.47,888.66 1499.16,891.769 1498.86,894.937 1498.54,898.162 
  1498.23,901.445 1497.91,904.786 1497.59,908.184 1497.27,911.638 1496.94,915.149 1496.61,918.716 1496.3,921.974 1496.36,918.427 1496.42,914.941 1496.47,911.517 
  1496.52,908.155 1496.57,904.855 1496.61,901.617 1496.65,898.443 1496.69,895.331 1496.72,892.282 1496.75,889.297 1496.78,886.375 1496.8,883.517 1496.82,880.723 
  1496.83,877.994 1496.85,875.328 1496.85,872.727 1496.86,870.191 1496.86,867.72 1496.86,865.314 1496.85,862.973 1496.84,860.697 1496.83,858.487 1496.81,856.342 
  1496.79,854.264 1496.77,852.251 1496.74,850.304 1496.71,848.424 1496.67,846.61 1496.63,844.862 1496.59,843.181 1496.55,841.566 1496.5,840.018 1496.44,838.537 
  1496.39,837.123 1496.33,835.776 1496.26,834.495 1496.2,833.282 1496.13,832.136 1496.05,831.057 1495.98,830.045 1495.89,829.101 1495.81,828.224 1495.72,827.414 
  1495.63,826.672 1495.53,825.997 1495.43,825.389 1495.33,824.849 1495.23,824.376 1495.12,823.97 1495,823.632 1494.89,823.361 1494.77,823.157 1494.64,823.021 
  1494.52,822.952 1494.39,822.95 1494.25,823.016 1494.11,823.148 1493.97,823.347 1493.83,823.614 1493.68,823.947 1493.53,824.347 1493.37,824.814 1493.22,825.347 
  1493.06,825.947 1492.89,826.614 1492.72,827.346 1492.55,828.145 1492.38,829.011 1492.2,829.942 1492.02,830.939 1491.83,832.001 1491.64,833.129 1491.45,834.323 
  1491.26,835.582 1491.06,836.906 1490.86,838.295 1490.65,839.749 1490.45,841.267 1490.24,842.85 1490.02,844.497 1489.8,846.208 1489.58,847.983 1489.36,849.822 
  1489.13,851.724 1488.9,853.689 1488.67,855.718 1488.44,857.809 1488.2,859.963 1487.95,862.179 1487.71,864.457 1487.46,866.798 1487.21,869.2 1486.96,871.663 
  1486.7,874.188 1486.44,876.773 1486.18,879.419 1485.91,882.126 1485.64,884.892 1485.37,887.719 1485.1,890.605 1484.82,893.55 1484.54,896.555 1484.26,899.618 
  1483.97,902.739 1483.68,905.919 1483.39,909.156 1483.1,912.451 1482.8,915.804 1482.51,919.213 1482.2,922.678 1481.9,926.2 1481.59,929.778 1481.28,933.412 
  1480.97,937.1 1480.66,940.844 1480.34,944.642 1480.02,948.495 1479.7,952.402 1479.37,956.362 1479.05,960.375 1478.72,964.441 1478.39,968.56 1478.35,967.029 
  1478.43,963 1478.52,959.029 1478.6,955.118 1478.67,951.267 1478.75,947.476 1478.82,943.745 1478.88,940.075 1478.95,936.465 1479.01,932.916 1479.07,929.429 
  1479.12,926.003 1479.02,925.721 1478.72,929.196 1478.42,932.727 1478.12,936.314 1477.81,939.956 1477.51,943.653 1477.2,947.405 1476.88,951.212 1476.57,955.072 
  1476.25,958.987 1475.93,962.954 1475.61,966.975 1475.38,969.276 1475.46,965.29 1475.54,961.364 1475.62,957.497 1475.69,953.691 1475.76,949.944 1475.83,946.257 
  1475.9,942.632 1475.96,939.067 1476.02,935.563 1476.07,932.12 1476.13,928.739 1476.18,925.42 1475.89,928.677 1475.6,932.107 1475.31,935.593 1475.02,939.135 
  1474.72,942.732 1474.42,946.384 1474.12,950.092 1473.81,953.854 1473.5,957.67 1473.19,961.54 1472.88,965.464 1472.57,969.441 1472.55,967.52 1472.63,963.636 
  1472.7,959.812 1472.77,956.048 1472.84,952.344 1472.91,948.701 1472.97,945.118 1473.03,941.596 1473.09,938.136 1473.14,934.736 1473.19,931.399 1473.24,928.123 
  1473.12,928.22 1472.84,931.549 1472.55,934.935 1472.27,938.378 1471.98,941.876 1471.69,945.43 1471.4,949.04 1471.1,952.704 1470.8,956.423 1470.5,960.197 
  1470.2,964.024 1469.89,967.906 1469.69,969.69 1469.77,965.847 1469.84,962.065 1469.91,958.342 1469.98,954.68 1470.04,951.078 1470.1,947.536 1470.16,944.056 
  1470.21,940.637 1470.27,937.28 1470.31,933.984 1470.36,930.75 1470.39,927.822 1470.12,931.053 1469.84,934.34 1469.57,937.684 1469.29,941.085 1469.01,944.542 
  1468.72,948.054 1468.43,951.622 1468.14,955.245 1467.85,958.923 1467.56,962.655 1467.26,966.442 1466.96,970.282 1466.96,968 1467.04,964.258 1467.1,960.575 
  1467.17,956.952 1467.23,953.39 1467.29,949.889 1467.34,946.449 1467.4,943.07 1467.45,939.753 1467.49,936.497 1467.54,933.304 1467.58,930.173 1467.44,930.616 
  1467.18,933.806 1466.91,937.053 1466.64,940.357 1466.37,943.717 1466.09,947.133 1465.81,950.606 1465.53,954.134 1465.25,957.717 1464.97,961.355 1464.68,965.048 
  1464.39,968.795 1464.22,970.097 1464.29,966.392 1464.35,962.748 1464.41,959.164 1464.47,955.641 1464.53,952.178 1464.59,948.777 1464.64,945.436 1464.68,942.158 
  1464.73,938.941 1464.77,935.787 1464.81,932.694 1464.82,930.237 1464.56,933.331 1464.3,936.482 1464.04,939.69 1463.78,942.955 1463.51,946.276 1463.24,949.654 
  1462.97,953.088 1462.69,956.578 1462.42,960.123 1462.14,963.723 1461.86,967.378 1461.57,971.087 1461.59,968.472 1461.65,964.864 1461.71,961.317 1461.77,957.831 
  1461.83,954.406 1461.88,951.041 1461.93,947.739 1461.98,944.498 1462.02,941.318 1462.06,938.201 1462.1,935.146 1462.13,932.154 1461.99,932.914 1461.74,935.97 
  1461.48,939.083 1461.23,942.254 1460.97,945.481 1460.71,948.766 1460.44,952.107 1460.18,955.504 1459.91,958.957 1459.64,962.465 1459.37,966.028 1459.09,969.647 
  1458.95,970.497 1459.01,966.925 1459.07,963.414 1459.12,959.964 1459.18,956.574 1459.23,953.246 1459.28,949.979 1459.32,946.774 1459.36,943.631 1459.4,940.55 
  1459.44,937.531 1459.47,934.575 1459.46,932.553 1459.22,935.515 1458.97,938.535 1458.72,941.612 1458.47,944.747 1458.22,947.939 1457.96,951.188 1457.71,954.493 
  1457.45,957.855 1457.18,961.272 1456.92,964.745 1456.65,968.273 1456.38,971.857 1456.42,968.933 1456.47,965.456 1456.53,962.04 1456.58,958.685 1456.63,955.391 
  1456.68,952.159 1456.72,948.989 1456.76,945.88 1456.8,942.834 1456.83,939.85 1456.86,936.929 1456.89,934.07 1456.74,935.117 1456.5,938.044 1456.26,941.029 
  1456.02,944.072 1455.78,947.173 1455.53,950.331 1455.28,953.545 1455.03,956.816 1454.77,960.144 1454.51,963.527 1454.25,966.966 1453.99,970.461 1453.87,970.89 
  1453.93,967.446 1453.98,964.063 1454.03,960.741 1454.08,957.481 1454.13,954.282 1454.17,951.145 1454.21,948.069 1454.24,945.056 1454.28,942.106 1454.31,939.218 
  1454.34,936.393 1454.31,934.774 1454.08,937.61 1453.85,940.504 1453.61,943.456 1453.37,946.466 1453.13,949.533 1452.89,952.658 1452.65,955.84 1452.4,959.078 
  1452.15,962.373 1451.9,965.724 1451.64,969.13 1451.39,972.592 1451.43,969.385 1451.49,966.034 1451.54,962.744 1451.58,959.516 1451.63,956.349 1451.67,953.243 
  1451.71,950.2 1451.74,947.219 1451.77,944.301 1451.8,941.445 1451.83,938.652 1451.85,935.922 1451.69,937.23 1451.47,940.034 1451.24,942.896 1451.01,945.816 
  1450.78,948.794 1450.55,951.83 1450.31,954.923 1450.07,958.074 1449.83,961.281 1449.58,964.544 1449.34,967.864 1449.09,971.24 1448.99,971.275 1449.04,967.955 
  1449.09,964.696 1449.13,961.498 1449.18,958.361 1449.22,955.287 1449.25,952.275 1449.29,949.325 1449.32,946.437 1449.35,943.612 1449.37,940.85 1449.39,938.151 
  1449.35,936.904 1449.14,939.618 1448.91,942.391 1448.69,945.223 1448.47,948.113 1448.24,951.061 1448.01,954.067 1447.78,957.13 1447.54,960.25 1447.31,963.427 
  1447.07,966.66 1446.83,969.95 1446.59,973.119 1446.64,969.828 1446.69,966.598 1446.73,963.429 1446.77,960.322 1446.81,957.277 1446.85,954.295 1446.88,951.374 
  1446.91,948.516 1446.94,945.721 1446.96,942.988 1446.99,940.319 1447,937.713 1446.84,939.256 1446.63,941.941 1446.41,944.685 1446.19,947.488 1445.97,950.349 
  1445.75,953.268 1445.53,956.244 1445.3,959.279 1445.07,962.37 1444.84,965.518 1444.6,968.723 1444.37,971.984 1444.29,971.654 1444.33,968.452 1444.38,965.312 
  1444.42,962.233 1444.46,959.217 1444.49,956.262 1444.52,953.37 1444.55,950.54 1444.58,947.773 1444.6,945.069 1444.62,942.429 1444.64,939.851 1444.59,938.946 
  1444.38,941.544 1444.17,944.201 1443.96,946.917 1443.75,949.692 1443.53,952.525 1443.31,955.417 1443.09,958.366 1442.87,961.372 1442.65,964.436 1442.42,967.557 
  1442.19,970.735 1441.98,973.435 1442.03,970.261 1442.07,967.147 1442.11,964.096 1442.15,961.106 1442.18,958.179 1442.21,955.314 1442.24,952.512 1442.27,949.772 
  1442.29,947.095 1442.31,944.482 1442.33,941.931 1442.34,939.444 1442.17,941.198 1441.97,943.77 1441.77,946.4 1441.56,949.09 1441.35,951.838 1441.14,954.645 
  1440.93,957.51 1440.71,960.433 1440.49,963.413 1440.27,966.451 1440.05,969.546 1439.83,972.697 1439.76,972.025 1439.81,968.938 1439.84,965.912 1439.88,962.949 
  1439.91,960.047 1439.94,957.208 1439.97,954.432 1440,951.718 1440.02,949.067 1440.04,946.48 1440.06,943.955 1440.07,941.495 1440.01,940.903 1439.81,943.39 
  1439.61,945.936 1439.41,948.541 1439.21,951.206 1439.01,953.929 1438.8,956.71 1438.59,959.55 1438.38,962.448 1438.16,965.403 1437.95,968.416 1437.73,971.486 
  1437.55,973.747 1437.59,970.684 1437.62,967.684 1437.66,964.745 1437.69,961.868 1437.72,959.054 1437.75,956.303 1437.77,953.614 1437.8,950.988 1437.81,948.425 
  
  "/>
<path clip-path="url(#clip160)" d="
M1794.61 198.898 L2279.25 198.898 L2279.25 95.2176 L1794.61 95.2176  Z
  " fill="#282a36" fill-rule="evenodd" fill-opacity="1"/>
<polyline clip-path="url(#clip160)" style="stroke:#f8f8f2; stroke-linecap:butt; stroke-linejoin:round; stroke-width:4; stroke-opacity:1; fill:none" points="
  1794.61,198.898 2279.25,198.898 2279.25,95.2176 1794.61,95.2176 1794.61,198.898 
  "/>
<polyline clip-path="url(#clip160)" style="stroke:#8be9fd; stroke-linecap:butt; stroke-linejoin:round; stroke-width:4; stroke-opacity:1; fill:none" points="
  1819.11,147.058 1966.13,147.058 
  "/>
<path clip-path="url(#clip160)" d="M2001.26 128.366 Q1998.16 133.69 1996.65 138.898 Q1995.15 144.106 1995.15 149.453 Q1995.15 154.801 1996.65 160.055 Q1998.18 165.287 2001.26 170.588 L1997.56 170.588 Q1994.08 165.148 1992.35 159.893 Q1990.64 154.639 1990.64 149.453 Q1990.64 144.291 1992.35 139.06 Q1994.06 133.828 1997.56 128.366 L2001.26 128.366 Z" fill="#f8f8f2" fill-rule="evenodd" fill-opacity="1" /><path clip-path="url(#clip160)" d="M2009.08 154.106 L2009.08 138.412 L2013.34 138.412 L2013.34 153.944 Q2013.34 157.625 2014.78 159.476 Q2016.21 161.305 2019.08 161.305 Q2022.53 161.305 2024.52 159.106 Q2026.54 156.907 2026.54 153.111 L2026.54 138.412 L2030.8 138.412 L2030.8 164.338 L2026.54 164.338 L2026.54 160.356 Q2024.99 162.717 2022.93 163.875 Q2020.89 165.009 2018.18 165.009 Q2013.71 165.009 2011.4 162.231 Q2009.08 159.453 2009.08 154.106 M2019.8 137.787 L2019.8 137.787 Z" fill="#f8f8f2" fill-rule="evenodd" fill-opacity="1" /><path clip-path="url(#clip160)" d="M2040.98 160.402 L2048.62 160.402 L2048.62 134.037 L2040.31 135.703 L2040.31 131.444 L2048.57 129.778 L2053.25 129.778 L2053.25 160.402 L2060.89 160.402 L2060.89 164.338 L2040.98 164.338 L2040.98 160.402 Z" fill="#f8f8f2" fill-rule="evenodd" fill-opacity="1" /><path clip-path="url(#clip160)" d="M2070.82 158.458 L2075.7 158.458 L2075.7 162.439 L2071.91 169.847 L2068.92 169.847 L2070.82 162.439 L2070.82 158.458 Z" fill="#f8f8f2" fill-rule="evenodd" fill-opacity="1" /><path clip-path="url(#clip160)" d="M2084.36 154.106 L2084.36 138.412 L2088.62 138.412 L2088.62 153.944 Q2088.62 157.625 2090.06 159.476 Q2091.49 161.305 2094.36 161.305 Q2097.81 161.305 2099.8 159.106 Q2101.82 156.907 2101.82 153.111 L2101.82 138.412 L2106.07 138.412 L2106.07 164.338 L2101.82 164.338 L2101.82 160.356 Q2100.26 162.717 2098.2 163.875 Q2096.17 165.009 2093.46 165.009 Q2088.99 165.009 2086.68 162.231 Q2084.36 159.453 2084.36 154.106 M2095.08 137.787 L2095.08 137.787 Z" fill="#f8f8f2" fill-rule="evenodd" fill-opacity="1" /><path clip-path="url(#clip160)" d="M2119.48 160.402 L2135.8 160.402 L2135.8 164.338 L2113.85 164.338 L2113.85 160.402 Q2116.51 157.648 2121.1 153.018 Q2125.7 148.365 2126.88 147.023 Q2129.13 144.5 2130.01 142.764 Q2130.91 141.004 2130.91 139.315 Q2130.91 136.56 2128.97 134.824 Q2127.05 133.088 2123.94 133.088 Q2121.75 133.088 2119.29 133.852 Q2116.86 134.615 2114.08 136.166 L2114.08 131.444 Q2116.91 130.31 2119.36 129.731 Q2121.82 129.153 2123.85 129.153 Q2129.22 129.153 2132.42 131.838 Q2135.61 134.523 2135.61 139.014 Q2135.61 141.143 2134.8 143.065 Q2134.01 144.963 2131.91 147.555 Q2131.33 148.227 2128.23 151.444 Q2125.13 154.639 2119.48 160.402 Z" fill="#f8f8f2" fill-rule="evenodd" fill-opacity="1" /><path clip-path="url(#clip160)" d="M2146.1 158.458 L2150.98 158.458 L2150.98 162.439 L2147.19 169.847 L2144.2 169.847 L2146.1 162.439 L2146.1 158.458 Z" fill="#f8f8f2" fill-rule="evenodd" fill-opacity="1" /><path clip-path="url(#clip160)" d="M2159.64 154.106 L2159.64 138.412 L2163.9 138.412 L2163.9 153.944 Q2163.9 157.625 2165.33 159.476 Q2166.77 161.305 2169.64 161.305 Q2173.09 161.305 2175.08 159.106 Q2177.09 156.907 2177.09 153.111 L2177.09 138.412 L2181.35 138.412 L2181.35 164.338 L2177.09 164.338 L2177.09 160.356 Q2175.54 162.717 2173.48 163.875 Q2171.44 165.009 2168.74 165.009 Q2164.27 165.009 2161.95 162.231 Q2159.64 159.453 2159.64 154.106 M2170.36 137.787 L2170.36 137.787 Z" fill="#f8f8f2" fill-rule="evenodd" fill-opacity="1" /><path clip-path="url(#clip160)" d="M2204.89 145.703 Q2208.25 146.421 2210.12 148.689 Q2212.02 150.958 2212.02 154.291 Q2212.02 159.407 2208.5 162.208 Q2204.99 165.009 2198.5 165.009 Q2196.33 165.009 2194.01 164.569 Q2191.72 164.152 2189.27 163.296 L2189.27 158.782 Q2191.21 159.916 2193.53 160.495 Q2195.84 161.074 2198.37 161.074 Q2202.76 161.074 2205.06 159.338 Q2207.37 157.601 2207.37 154.291 Q2207.37 151.236 2205.22 149.523 Q2203.09 147.787 2199.27 147.787 L2195.24 147.787 L2195.24 143.944 L2199.45 143.944 Q2202.9 143.944 2204.73 142.578 Q2206.56 141.19 2206.56 138.597 Q2206.56 135.935 2204.66 134.523 Q2202.79 133.088 2199.27 133.088 Q2197.35 133.088 2195.15 133.504 Q2192.95 133.921 2190.31 134.801 L2190.31 130.634 Q2192.97 129.893 2195.29 129.523 Q2197.62 129.153 2199.69 129.153 Q2205.01 129.153 2208.11 131.583 Q2211.21 133.99 2211.21 138.111 Q2211.21 140.981 2209.57 142.972 Q2207.93 144.94 2204.89 145.703 Z" fill="#f8f8f2" fill-rule="evenodd" fill-opacity="1" /><path clip-path="url(#clip160)" d="M2219.62 128.366 L2223.32 128.366 Q2226.79 133.828 2228.5 139.06 Q2230.24 144.291 2230.24 149.453 Q2230.24 154.639 2228.5 159.893 Q2226.79 165.148 2223.32 170.588 L2219.62 170.588 Q2222.69 165.287 2224.2 160.055 Q2225.73 154.801 2225.73 149.453 Q2225.73 144.106 2224.2 138.898 Q2222.69 133.69 2219.62 128.366 Z" fill="#f8f8f2" fill-rule="evenodd" fill-opacity="1" /></svg>
